<?xml version="1.0" standalone="no"?>
<!DOCTYPE svg PUBLIC "-//W3C//DTD SVG 1.1//EN" "http://www.w3.org/Graphics/SVG/1.1/DTD/svg11.dtd" >
<svg xmlns="http://www.w3.org/2000/svg">
<metadata>
This is a custom SVG webfont generated by Fontspring.
Designer    : Robbie de Villiers
Foundry     : Wilton Foundry
Foundry URL : wiltonfoundry.com
</metadata>
<defs>
<font id="webfont" horiz-adv-x="500" >
<font-face units-per-em="1000" ascent="800" descent="-200" />
<missing-glyph horiz-adv-x="386" />
<glyph unicode=" "  horiz-adv-x="386" />
<glyph unicode="&#x09;" horiz-adv-x="386" />
<glyph unicode="&#xa0;" horiz-adv-x="386" />
<glyph unicode="!" horiz-adv-x="283" d="M92 59q0 58 57 58t57 -58q0 -59 -57 -59t-57 59zM102 711h93l2 -222l-6 -320h-84l-7 320z" />
<glyph unicode="&#x22;" horiz-adv-x="397" d="M128 711h17q22 0 32.5 -10.5t9.5 -25t-1 -28.5q-6 -77 -14 -142q-3 -25 -8.5 -30.5t-29.5 -5.5q-18 0 -26 5t-9 11t-1 20q-2 22 -3.5 53t-3 52t-2.5 33q-4 40 5.5 54t33.5 14zM266 711h17q22 0 32.5 -10.5t9.5 -25t-1 -28.5q-6 -77 -14 -142q-3 -25 -8.5 -30.5 t-29.5 -5.5q-18 0 -26 5t-9 11t-1 20q-2 22 -3.5 53t-3 52t-2.5 33q-4 40 5.5 54t33.5 14z" />
<glyph unicode="#" horiz-adv-x="581" d="M261 421l-22 -126h103l22 126h-103zM41 210v85h111l22 126h-109v85h121l33 205h88l-33 -205h103l33 205h87l-33 -205h91v-85h-103l-23 -126h102v-85h-114l-34 -210h-87l33 210h-102l-34 -210h-87l33 210h-98z" />
<glyph unicode="$" horiz-adv-x="562" d="M505 192q0 -69 -52.5 -123.5t-124.5 -72.5v-98h-84v94q-53 4 -107.5 33.5t-87.5 71.5l44 82q77 -101 178 -101q57 0 99 31.5t42 83.5q0 24 -11.5 43.5t-36 35.5t-44.5 25.5t-55 23.5q-46 19 -75 34t-59 39t-44.5 56t-14.5 73q0 71 49.5 122.5t122.5 63.5v66h84v-64 q39 -4 84 -26t69 -47l-38 -88q-67 76 -155 76q-54 0 -89 -28.5t-35 -74.5q0 -22 12 -40.5t38 -34t44.5 -24.5t53.5 -23q50 -20 79 -35.5t58.5 -39.5t42.5 -56.5t13 -77.5z" />
<glyph unicode="%" horiz-adv-x="848" d="M610 268q-37 0 -60.5 -27t-23.5 -68q0 -42 23.5 -68.5t60.5 -26.5t60 26t23 69q0 41 -23.5 68t-59.5 27zM237 635q-37 0 -61.5 -27t-24.5 -68q0 -42 24 -69t62 -27q37 0 59.5 26.5t22.5 69.5q0 41 -23 68t-59 27zM151 -12l447 734h94l-449 -734h-92zM609 349 q75 0 122.5 -50.5t47.5 -126.5t-47.5 -127t-122.5 -51q-76 0 -122.5 49.5t-46.5 129.5q0 75 47 125.5t122 50.5zM236 717q74 0 121.5 -51.5t47.5 -126.5q0 -77 -46.5 -128t-122.5 -51q-77 0 -124 51t-47 129q0 75 48 126t123 51z" />
<glyph unicode="&#x26;" horiz-adv-x="653" d="M224 563q0 -52 52 -117q95 48 95 115q0 33 -19.5 52t-51.5 19q-31 0 -53.5 -19.5t-22.5 -49.5zM409 149l-159 187q-119 -58 -119 -148q0 -49 35 -81t85 -32q83 0 158 74zM524 366h88q-18 -121 -85 -217l123 -150h-115l-67 82q-92 -91 -217 -91q-91 0 -153 53t-62 141 q0 141 159 220q-63 82 -63 155q0 69 49.5 113.5t122.5 44.5q67 0 114.5 -43.5t47.5 -108.5q0 -108 -134 -186l136 -160q39 55 56 147z" />
<glyph unicode="'" horiz-adv-x="273" d="M128 711h17q22 0 32.5 -10.5t9.5 -25t-1 -28.5q-6 -77 -14 -142q-3 -25 -8.5 -30.5t-29.5 -5.5q-18 0 -26 5t-9 11t-1 20q-2 22 -3.5 53t-3 52t-2.5 33q-4 40 5.5 54t33.5 14z" />
<glyph unicode="(" horiz-adv-x="288" d="M137 293q0 -108 41.5 -224.5t110.5 -209.5l-91 -8q-68 88 -109.5 210.5t-41.5 231.5q0 110 41.5 232.5t109.5 210.5l90 -8q-69 -91 -110 -209t-41 -226z" />
<glyph unicode=")" horiz-adv-x="283" d="M155 293q0 109 -41.5 227t-110.5 208l91 8q69 -86 110 -209t41 -234q0 -110 -41.5 -233t-109.5 -209l-90 8q69 93 110 209.5t41 224.5z" />
<glyph unicode="*" horiz-adv-x="525" d="M226 328l7 125l-105 -68l-46 79l110 56l-110 57l46 79l104 -68l-6 124h90l-7 -125l105 69l46 -79l-110 -57l110 -56l-46 -79l-105 68l7 -125h-90z" />
<glyph unicode="+" horiz-adv-x="624" d="M46 327h217v214h90v-214h217v-87h-217v-220h-90v220h-217v87z" />
<glyph unicode="," horiz-adv-x="254" d="M133 113h21q39 0 39 -42q0 -54 -58 -173q-8 -16 -17 -20t-26 -4q-45 0 -29 41q24 83 24 131q0 38 11.5 52.5t34.5 14.5z" />
<glyph unicode="-" horiz-adv-x="298" d="M19 234v85h260v-85h-260z" />
<glyph unicode="." horiz-adv-x="257" d="M132 119q35 0 45.5 -11.5t10.5 -48.5t-12 -49t-44 -12q-36 0 -46 11.5t-10 49.5q0 37 11.5 48.5t44.5 11.5z" />
<glyph unicode="/" horiz-adv-x="350" d="M71 -31h-95l308 764h95z" />
<glyph unicode="0" horiz-adv-x="547" d="M429 355q0 128 -40 202.5t-111 74.5q-43 0 -74.5 -25.5t-47 -69t-22.5 -87.5t-7 -93q0 -50 6.5 -95t22.5 -88.5t47.5 -69t75.5 -25.5q43 0 74.5 25.5t47 69t22 88t6.5 93.5zM524 357q0 -68 -12.5 -129.5t-39.5 -116t-77 -87t-117 -32.5t-117 32t-77 86.5t-39.5 115.5 t-12.5 129t12.5 129t39.5 115.5t77 87t118 32.5q67 0 116.5 -32t76.5 -86.5t39.5 -115.5t12.5 -128z" />
<glyph unicode="1" horiz-adv-x="365" d="M193 711h53v-711h-94v601l-72 -32l-34 75z" />
<glyph unicode="2" horiz-adv-x="551" d="M493 0h-447v59q45 58 134 154.5l104 113.5q99 111 99 185q0 52 -35 86t-87 34q-45 0 -89 -31t-69 -83l-54 77q28 55 91 89.5t123 34.5q93 0 154.5 -56.5t61.5 -147.5q0 -115 -132 -253l-161 -174h307v-88z" />
<glyph unicode="3" horiz-adv-x="551" d="M110 537l-38 95q20 32 75.5 59.5t114.5 27.5q93 0 157 -49t64 -138q0 -103 -91 -156q97 -45 97 -169q0 -101 -68.5 -158t-173.5 -57q-66 0 -121 26.5t-86 63.5l50 92q25 -46 69 -70.5t88 -24.5q67 0 107.5 35t40.5 94q0 58 -41 88.5t-116 30.5h-55v88h42q76 0 119.5 31 t43.5 86q0 43 -36 71.5t-93 28.5q-41 0 -82 -24t-67 -71z" />
<glyph unicode="4" horiz-adv-x="552" d="M338 259v292l-205 -292h205zM12 236l340 475h79v-452h99v-87h-99v-172h-93v172h-326v64z" />
<glyph unicode="5" horiz-adv-x="551" d="M121 711h348v-88h-262l-15 -163q30 9 70 9q105 0 170.5 -64t65.5 -169q0 -111 -71.5 -177.5t-184.5 -66.5q-52 0 -108 22.5t-87 62.5l35 89q30 -38 76.5 -62.5t83.5 -24.5q72 0 117 42.5t45 113.5q0 67 -43 107t-115 40q-46 0 -101 -40l-55 8z" />
<glyph unicode="6" horiz-adv-x="567" d="M288 376q-59 0 -103.5 -36.5t-44.5 -94.5q0 -80 42 -123t103 -43q62 0 102.5 42.5t40.5 102.5q0 66 -39 109t-101 43zM522 224q0 -100 -70 -166t-167 -66q-64 0 -112.5 26.5t-75.5 71.5t-40 97t-13 110q0 94 39.5 188.5t117 162t171.5 67.5q16 0 58 -6l11 -88 q-33 11 -65 11q-92 0 -171 -113q-28 -45 -44 -100q57 40 131 40q103 0 166.5 -65.5t63.5 -169.5z" />
<glyph unicode="7" horiz-adv-x="552" d="M48 712h472v-53l-324 -672l-103 16l308 621h-353v88z" />
<glyph unicode="8" horiz-adv-x="551" d="M279 631q-52 0 -85.5 -29t-33.5 -74q0 -41 33 -73t86 -43q46 8 82 42t36 76q0 45 -35 73t-83 28zM417 196q0 45 -37 79.5t-101 50.5q-138 -34 -138 -129q0 -54 40.5 -86t97.5 -32t97.5 32t40.5 85zM46 193q0 120 113 179q-94 61 -94 158q0 87 64 138t154 51 q88 0 148.5 -52t60.5 -138q0 -98 -94 -157q113 -60 113 -176q0 -97 -66 -150.5t-167 -53.5q-97 0 -164.5 53.5t-67.5 147.5z" />
<glyph unicode="9" horiz-adv-x="551" d="M416 482q0 57 -41 103.5t-107 46.5q-62 0 -102 -41.5t-40 -105.5t38 -104.5t101 -40.5q61 0 106 37.5t45 104.5zM32 484q0 102 67.5 168.5t169.5 66.5q66 0 114 -23.5t76 -65.5t41 -94.5t13 -117.5q0 -70 -23 -142t-63.5 -132.5t-102.5 -99t-133 -38.5q-28 0 -75 5l-6 92 q50 -10 74 -10q150 0 222 208q-62 -48 -142 -48q-102 0 -167 64.5t-65 166.5z" />
<glyph unicode=":" horiz-adv-x="270" d="M134 478q35 0 45.5 -12t10.5 -49q0 -36 -12 -48t-44 -12q-36 0 -46 11.5t-10 48.5t11.5 49t44.5 12zM134 120q35 0 45.5 -11.5t10.5 -48.5t-12 -49t-44 -12q-36 0 -46 11.5t-10 49.5q0 37 11.5 48.5t44.5 11.5z" />
<glyph unicode=";" horiz-adv-x="284" d="M141 478q35 0 45.5 -12t10.5 -49q0 -36 -12 -48t-44 -12q-36 0 -46 11.5t-10 48.5t11.5 49t44.5 12zM133 113h21q39 0 39 -42q0 -8 -3.5 -23.5t-3.5 -16.5q-21 -69 -50 -133q-9 -16 -18 -20t-26 -4q-45 0 -29 41v-1q24 85 24 132q0 38 11.5 52.5t34.5 14.5z" />
<glyph unicode="&#x3c;" horiz-adv-x="609" d="M571 457l-398 -177l398 -177v-94l-524 234v74l524 234v-94z" />
<glyph unicode="=" horiz-adv-x="628" d="M570 330h-524v91h524v-91zM570 139h-524v91h524v-91z" />
<glyph unicode="&#x3e;" horiz-adv-x="626" d="M47 9v94l397 177l-397 177v94l524 -234v-74z" />
<glyph unicode="?" horiz-adv-x="445" d="M196 120q35 0 45.5 -11.5t10.5 -48.5t-12 -49t-44 -12q-36 0 -46 11.5t-10 49.5q0 37 11.5 48.5t44.5 11.5zM211 722q80 0 126.5 -48t46.5 -130q0 -60 -50 -117q-75 -84 -92.5 -107t-17.5 -39q0 -27 26 -77q-32 -16 -73 -42q-47 67 -47 119q0 67 61 128q65 64 82.5 90.5 t17.5 56.5q0 79 -84 79q-29 0 -63 -26t-51 -61l-48 79q16 38 66 66.5t100 28.5z" />
<glyph unicode="@" horiz-adv-x="799" d="M425 481q-39 0 -72 -30t-49 -77q-7 -29 -8 -61.5t16 -58t48 -25.5q29 0 48.5 16t41.5 50v-1q41 80 41 133q0 54 -66 54zM413 722q143 0 244.5 -86.5t101.5 -228.5q0 -100 -56 -179.5t-147 -78.5q-36 0 -64 23q-14 13 -21 29q-50 -52 -125 -52q-42 0 -75.5 23.5t-49 59.5 t-20 79t11.5 80q22 69 84 122.5t130 52.5q75 -1 121 -41.5t30 -110.5l-34 -146q-8 -16 -4 -29t20 -12q52 5 82 63.5t30 119.5q0 102 -76.5 165t-180.5 63q-122 0 -207.5 -88.5t-85.5 -210.5q0 -119 86.5 -207t204.5 -88q62 0 124.5 25t101.5 65l57 -61q-47 -54 -123.5 -83.5 t-151.5 -29.5q-162 0 -275 111.5t-113 272.5q0 152 113.5 265t266.5 113z" />
<glyph unicode="A" horiz-adv-x="655" d="M217 296h216l-108 275zM366 718l282 -718h-101l-81 208h-284l-81 -208h-100l286 718h79z" />
<glyph unicode="B" horiz-adv-x="580" d="M173 623v-212h80q140 0 140 107q0 105 -141 105h-79zM262 323h-90v-235h99q75 0 118 30.5t43 84.5q0 120 -170 120zM272 0h-194v711h181q230 0 230 -190q0 -48 -24.5 -87.5t-64.5 -56.5q60 -16 94 -63t34 -107q0 -100 -66.5 -153.5t-189.5 -53.5z" />
<glyph unicode="C" horiz-adv-x="672" d="M142 356q0 -118 72 -197.5t188 -79.5q111 0 192 95l24 -87q-88 -96 -220 -96q-158 0 -255.5 102.5t-97.5 262.5q0 155 98 260t251 105q140 0 225 -91l-33 -95q-89 98 -194 98q-114 0 -182 -79.5t-68 -197.5z" />
<glyph unicode="D" horiz-adv-x="679" d="M533 355q0 127 -68.5 198.5t-191.5 71.5h-99v-537h82q130 0 203.5 71t73.5 196zM80 0v711h198q164 0 257.5 -96t93.5 -260t-99 -260q-98 -95 -272 -95h-178z" />
<glyph unicode="E" horiz-adv-x="520" d="M473 88v-88h-395v711h385v-88h-290v-210h262v-88h-262v-237h300z" />
<glyph unicode="F" horiz-adv-x="460" d="M168 327v-327h-95v711h368v-88h-273v-207h242v-89h-242z" />
<glyph unicode="G" horiz-adv-x="731" d="M146 357q0 -122 71 -200t187 -78q55 0 103 23t62 66v117h-175v87h269v-238q-81 -143 -262 -143q-158 0 -254.5 105t-96.5 261q0 159 99.5 261.5t247.5 102.5q165 0 250 -108l-41 -85q-94 105 -209 105q-113 0 -182 -82t-69 -194z" />
<glyph unicode="H" horiz-adv-x="700" d="M82 0v711h95v-298h346v298h95v-711h-95v325h-346v-325h-95z" />
<glyph unicode="I" horiz-adv-x="220" d="M161 711v-711h-94v711h94z" />
<glyph unicode="J" horiz-adv-x="301" d="M135 106v605h95v-612q0 -192 -164 -192q-30 0 -64 13t-55 36l44 88q17 -22 38.5 -35t35.5 -13q70 0 70 110z" />
<glyph unicode="K" horiz-adv-x="592" d="M179 288v-288h-95v711h95v-297l286 297h127l-324 -330l348 -381h-125l-286 316z" />
<glyph unicode="L" horiz-adv-x="438" d="M73 711h95v-623h267v-88h-362v711z" />
<glyph unicode="M" horiz-adv-x="860" d="M431 207l224 505h98l35 -712h-95l-23 534l-210 -482h-59l-212 482l-24 -534h-95l35 712h101z" />
<glyph unicode="N" horiz-adv-x="740" d="M563 171v540h94v-711h-83l-400 546v-546h-95v711h90z" />
<glyph unicode="O" horiz-adv-x="759" d="M614 356q0 113 -64.5 195t-171.5 82t-171 -81.5t-64 -195.5q0 -115 64 -196t171 -81q108 0 172 81t64 196zM710 356q0 -156 -90 -260.5t-242 -104.5t-241.5 104t-89.5 261q0 156 89.5 260.5t241.5 104.5t242 -104.5t90 -260.5z" />
<glyph unicode="P" horiz-adv-x="520" d="M173 623v-235h81q147 0 147 122q0 113 -133 113h-95zM265 299h-92v-299h-94v711h191q109 0 167.5 -53t58.5 -152q0 -94 -63 -150.5t-168 -56.5z" />
<glyph unicode="Q" horiz-adv-x="759" d="M378 79q36 0 63 5l-43 46l57 55l59 -62q100 86 100 233q0 113 -64.5 195t-171.5 82t-171 -81.5t-64 -195.5q0 -115 64 -196t171 -81zM579 58l93 -96l-66 -56l-100 105q-52 -20 -128 -20q-152 0 -241.5 104t-89.5 261q0 156 89.5 260.5t241.5 104.5t242 -104.5t90 -260.5 q0 -191 -131 -298z" />
<glyph unicode="R" horiz-adv-x="561" d="M175 623v-223h79q66 0 104 31.5t38 85.5q0 106 -138 106h-83zM235 316h-60v-316h-94v711h184q109 0 168 -50.5t59 -144.5q0 -65 -36 -112t-96 -65q21 -23 63 -98l135 -241h-106l-116 207l-13 25t-17 30.5t-18 25t-25 22t-28 6.5z" />
<glyph unicode="S" horiz-adv-x="509" d="M473 195q0 -90 -66.5 -147t-160.5 -57q-139 0 -211 100l46 96q29 -49 75 -78.5t89 -29.5q54 0 93 32.5t39 84.5q0 26 -10 45.5t-33.5 36t-41.5 25t-56 24.5q-91 38 -137.5 81.5t-46.5 121.5q0 86 62.5 138.5t150.5 52.5q55 0 108 -24.5t78 -60.5l-44 -84q-59 81 -142 81 q-51 0 -84 -29t-33 -75q0 -18 9.5 -34.5t20 -27t34.5 -24t36.5 -19l41.5 -18.5q91 -39 137 -84.5t46 -126.5z" />
<glyph unicode="T" horiz-adv-x="515" d="M305 623v-623h-94v623h-205v88h504v-88h-205z" />
<glyph unicode="U" horiz-adv-x="679" d="M513 260v451h95v-454q0 -121 -72.5 -193.5t-193.5 -72.5q-122 0 -194.5 71t-72.5 192v457h95v-453q0 -85 45 -132t127 -47q81 0 126 48t45 133z" />
<glyph unicode="V" horiz-adv-x="583" d="M293 160l201 551h100l-268 -718h-69l-264 718h100z" />
<glyph unicode="W" horiz-adv-x="974" d="M701 179l166 532h96l-226 -711h-71l-180 537l-182 -537h-72l-223 711h99l164 -530l180 530h71z" />
<glyph unicode="X" horiz-adv-x="586" d="M298 447l179 264h113l-235 -343l251 -368h-115l-194 289l-196 -289h-113l251 368l-235 343h114z" />
<glyph unicode="Y" horiz-adv-x="581" d="M290 409l193 302h110l-255 -397v-314h-94v315l-255 396h112z" />
<glyph unicode="Z" horiz-adv-x="551" d="M147 88h381v-88h-509v63l375 560h-355v88h486v-62z" />
<glyph unicode="[" horiz-adv-x="284" d="M58 -148v888h219v-81h-129v-726h129v-81h-219z" />
<glyph unicode="\" horiz-adv-x="354" d="M381 -8h-94l-312 741h94z" />
<glyph unicode="]" horiz-adv-x="300" d="M236 719v-887h-219v80h129v727h-129v80h219z" />
<glyph unicode="^" horiz-adv-x="595" d="M309 594l-168 -299h-96l228 417h70l227 -415h-97z" />
<glyph unicode="_" d="M509 -42v-87h-515v87h515z" />
<glyph unicode="`" horiz-adv-x="209" d="M113 701l99 -145h-84l-140 145h125z" />
<glyph unicode="a" horiz-adv-x="482" d="M428 0h-86l-7 37q-60 -46 -135 -46q-77 0 -124 42t-47 108q0 79 59 126t161 47q43 0 81 -5v46q0 74 -95 74q-72 0 -140 -61l-33 75q26 29 79 48t96 19q183 0 183 -160v-266q0 -47 8 -84zM330 167v63q-38 6 -85 6q-54 0 -89 -22.5t-35 -69.5q0 -32 22.5 -51t63.5 -19 q44 0 81.5 27t41.5 66z" />
<glyph unicode="b" horiz-adv-x="549" d="M159 294v-93q0 -53 37 -90t88 -37q66 0 101.5 52t35.5 126q0 80 -35.5 128.5t-94.5 48.5q-52 0 -91 -38.5t-41 -96.5zM159 749v-290q57 52 138 52q101 0 159 -69.5t58 -189.5q0 -114 -61 -187.5t-171 -73.5q-91 0 -139 54q0 -4 -2 -22t-2 -23h-71v749h91z" />
<glyph unicode="c" horiz-adv-x="452" d="M410 146l22 -95q-64 -60 -160 -60q-114 0 -178 72t-64 188q0 113 66.5 186.5t177.5 73.5q90 0 154 -63l-24 -89q-67 69 -129 69q-70 0 -111.5 -47.5t-41.5 -127.5q0 -77 40.5 -128t112.5 -51q29 0 68.5 20t66.5 52z" />
<glyph unicode="d" horiz-adv-x="540" d="M390 201v101q-2 56 -38.5 91t-87.5 35q-63 0 -100 -48.5t-37 -129.5q0 -80 37.5 -128t101.5 -48q51 0 86.5 37t37.5 90zM405 0l-4 49q-60 -58 -139 -58q-109 0 -168 73t-59 186q0 114 58 187.5t167 73.5q80 0 130 -44v283h91v-750h-76z" />
<glyph unicode="e" d="M127 309h242q-1 53 -34 86t-79 33q-51 0 -88.5 -35.5t-40.5 -83.5zM411 152l46 -73q-29 -39 -82 -63.5t-109 -24.5q-111 0 -173.5 69.5t-62.5 192.5q0 105 61 181.5t162 76.5q100 0 157 -74t57 -210h-345q0 -65 40.5 -109t109.5 -44q33 0 74 22t65 56z" />
<glyph unicode="f" horiz-adv-x="281" d="M277 418h-101v-418h-91v418h-79v82h79v80q0 174 148 174q33 0 73 -18v-86q-48 21 -72 21q-58 0 -58 -89v-82h101v-82z" />
<glyph unicode="g" d="M207 1q-49 -9 -72.5 -22.5t-23.5 -45.5q0 -63 136 -63q23 0 45 3t44.5 9.5t36 20.5t13.5 33q0 31 -44.5 45t-134.5 20zM245 430q-46 0 -75 -30.5t-29 -79.5q0 -47 28.5 -76.5t74.5 -29.5t74.5 28.5t28.5 76.5q0 52 -27 81.5t-75 29.5zM50 322q0 82 56 135.5t139 53.5 q57 0 100 -24q49 27 145 27v-82q-61 0 -80 -6q28 -44 28 -106q0 -85 -55 -137t-141 -52q-25 0 -53 6q-22 -8 -25 -17q-2 -4 -2 -10q0 -22 100 -26q216 -8 216 -145q0 -43 -20.5 -74t-55.5 -46.5t-72.5 -22t-80.5 -6.5q-108 0 -168.5 37t-60.5 104q0 74 88 107q-37 18 -37 64 q0 48 51 73q-35 20 -53.5 60.5t-18.5 86.5z" />
<glyph unicode="h" horiz-adv-x="522" d="M460 316v-316h-91v310q0 118 -89 118q-51 0 -87 -37.5t-36 -87.5v-303h-91v750h91v-286q55 47 129 47q174 0 174 -195z" />
<glyph unicode="i" horiz-adv-x="200" d="M59 645q0 32 9 45.5t40 13.5q23 0 34.5 -9t13 -19t1.5 -31q0 -32 -10 -45.5t-39 -13.5q-31 0 -40 13.5t-9 45.5zM63 506h90v-506h-90v506z" />
<glyph unicode="j" horiz-adv-x="210" d="M57 645q0 32 9 45.5t40 13.5q23 0 34.5 -9t13 -19t1.5 -31q0 -32 -10 -45.5t-39 -13.5q-31 0 -40 13.5t-9 45.5zM61 -41v547h90v-548q0 -85 -38 -127.5t-128 -37.5v88q45 -3 60.5 14t15.5 64z" />
<glyph unicode="k" horiz-adv-x="472" d="M350 505h120l-230 -223l264 -282h-122l-213 225l-11 -9v-216h-91v750h91v-430z" />
<glyph unicode="l" horiz-adv-x="211" d="M59 0v750h89v-750h-89z" />
<glyph unicode="m" horiz-adv-x="799" d="M725 323v-323h-90v321q0 107 -79 107q-46 0 -79 -33.5t-33 -86.5v-308h-89v321q0 107 -79 107q-46 0 -79 -35.5t-33 -86.5v-306h-90v506h80l4 -43q47 48 123 48q85 0 127 -64q25 31 65 47.5t81 16.5q171 0 171 -188z" />
<glyph unicode="n" horiz-adv-x="520" d="M460 316v-316h-91v310q0 59 -25 89.5t-71 30.5q-48 0 -82 -37t-34 -90v-303h-91v506h82l4 -42q51 49 127 49q87 0 134 -50t47 -147z" />
<glyph unicode="o" horiz-adv-x="542" d="M416 251q0 73 -39 125t-107 52t-107 -52t-39 -125q0 -74 39 -125.5t107 -51.5t107 51.5t39 125.5zM508 251q0 -113 -64 -186.5t-174 -73.5t-174 73.5t-64 186.5q0 111 64.5 185.5t173.5 74.5t173.5 -74.5t64.5 -185.5z" />
<glyph unicode="p" horiz-adv-x="542" d="M159 291v-89q0 -49 37 -88.5t85 -39.5q65 0 101.5 47t36.5 130q0 72 -36 124t-101 52q-49 0 -86 -40t-37 -96zM159 35v-244h-91v714h80l5 -44q53 49 133 49q108 0 167 -73.5t59 -186.5q0 -110 -58.5 -184.5t-163.5 -74.5q-80 0 -131 44z" />
<glyph unicode="q" horiz-adv-x="539" d="M389 200v104q0 55 -36.5 89t-88.5 34q-64 0 -101 -48t-37 -131q0 -81 37 -128t102 -47q48 0 86 39t38 88zM389 -209v248q-52 -48 -133 -48q-107 0 -164.5 72.5t-57.5 183.5q0 123 59.5 193t166.5 70q84 0 134 -42l5 38h81v-715h-91z" />
<glyph unicode="r" horiz-adv-x="321" d="M155 292v-292h-91v506h81l5 -52q37 57 107 57q32 0 80 -28l-42 -91q-33 27 -58 27q-44 0 -63 -38.5t-19 -88.5z" />
<glyph unicode="s" horiz-adv-x="393" d="M363 144q0 -68 -50 -111t-129 -43q-50 0 -96 18.5t-70 53.5l38 82q50 -70 130 -70q37 0 61.5 19.5t24.5 48.5q0 27 -22.5 45t-76.5 36q-138 47 -138 146q0 64 45.5 103t116.5 39q42 0 85 -17t66 -44l-43 -74q-47 53 -106 53q-35 0 -55 -16.5t-20 -42.5q0 -36 93 -69 q73 -26 109.5 -59.5t36.5 -97.5z" />
<glyph unicode="t" horiz-adv-x="301" d="M175 421v-305q0 -42 33 -42q27 0 64 17v-83q-53 -16 -85 -16q-103 0 -103 111v318h-84v78h84v130l91 11v-141h104v-78h-104z" />
<glyph unicode="u" horiz-adv-x="519" d="M368 506h91v-506h-80l-1 37q-46 -46 -130 -46q-183 0 -183 191v324h91v-314q0 -118 94 -118q49 0 83.5 32t34.5 80v320z" />
<glyph unicode="v" horiz-adv-x="436" d="M352 506h96l-194 -506h-70l-192 506h96l132 -357z" />
<glyph unicode="w" horiz-adv-x="732" d="M332 506h71l116 -347l121 347h95l-183 -506h-68l-119 348l-118 -348h-71l-179 506h96l119 -350z" />
<glyph unicode="x" horiz-adv-x="468" d="M350 506h110l-179 -240l191 -266h-112l-132 196l-136 -196h-110l192 267l-180 239h112l122 -168z" />
<glyph unicode="y" horiz-adv-x="444" d="M224 154l133 352h98l-248 -621q-18 -47 -51.5 -70.5t-93.5 -23.5q-3 0 -9.5 0.5t-10.5 0.5v84q8 -1 21 -1q46 0 59 30l56 131l-189 470h99z" />
<glyph unicode="z" horiz-adv-x="437" d="M35 423v83h390v-55l-282 -368h285v-83h-417v55l286 368h-262z" />
<glyph unicode="{" horiz-adv-x="268" d="M-5 272v73q72 18 72 100v161q0 144 134 144h46v-82h-55q-32 0 -32 -57v-157q0 -96 -63 -146q63 -50 63 -144v-157q0 -57 32 -57h55v-82h-46q-134 0 -134 143v162q0 83 -72 99z" />
<glyph unicode="|" horiz-adv-x="242" d="M167 -57h-91v817h91v-817z" />
<glyph unicode="}" horiz-adv-x="263" d="M260 345v-73q-72 -16 -72 -99v-162q0 -143 -134 -143h-46v82h55q32 0 32 57v157q0 96 63 145q-63 51 -63 145v157q0 57 -32 57h-55v82h46q134 0 134 -144v-161q0 -82 72 -100z" />
<glyph unicode="~" horiz-adv-x="624" d="M201 265q-41 0 -94 -82l-53 72q21 45 63 74t86 29q21 0 107 -34.5t106 -34.5q36 0 96 80l51 -71q-21 -43 -61.5 -72.5t-87.5 -29.5q-21 0 -106.5 34.5t-106.5 34.5z" />
<glyph unicode="&#xa1;" horiz-adv-x="283" d="M191 454q0 -58 -57 -58t-57 58q0 59 57 59t57 -59zM181 -198h-93l-2 222l6 320h84l7 -320z" />
<glyph unicode="&#xa2;" horiz-adv-x="488" d="M201 140l85 317q-64 -4 -102 -51.5t-38 -122.5q0 -94 55 -143zM254 23l-30 -113h-83l36 138q-66 35 -94.5 91t-28.5 142q0 113 66.5 186.5t177.5 73.5h10l27 102h84l-33 -119q38 -17 66 -44l-24 -92q-35 37 -63 53l-90 -336q7 -1 24 -1q29 0 68.5 20t66.5 52l22 -95 q-66 -60 -160 -60q-31 0 -42 2z" />
<glyph unicode="&#xa3;" horiz-adv-x="540" d="M338 -5l-190 30q-29 -1 -76 -33l-49 78q47 27 88 39q64 17 64 140v45h-102v84h90q-20 112 -20 142q0 88 55.5 141t144.5 53q107 0 164 -92l-68 -57q-36 65 -98 65q-106 0 -103 -115q1 -33 21 -137h138v-84h-129q2 -32 2 -54q0 -88 -38 -141q78 -16 119 -16q71 0 146 54 l36 -81q-40 -28 -95 -44.5t-100 -16.5z" />
<glyph unicode="&#xa5;" horiz-adv-x="560" d="M67 202v78h169v24l-12 26h-157v78h110l-175 304h108l174 -311l179 311h106l-177 -304h109v-78h-156l-13 -26v-24h169v-78h-169v-202h-96v202h-169z" />
<glyph unicode="&#xa6;" horiz-adv-x="235" d="M167 -57h-91v336h91v-336zM167 424h-91v336h91v-336z" />
<glyph unicode="&#xa7;" horiz-adv-x="506" d="M218 402q-27 -13 -42.5 -36t-15.5 -47q0 -20 13 -40.5t39.5 -41t44.5 -31.5l48 -29q56 27 58 84q0 18 -13 38t-39.5 40.5t-44.5 32.5t-48 30zM453 266q0 -83 -78 -140q55 -47 55 -116t-49.5 -110.5t-129.5 -41.5q-135 0 -177 104l69 54q34 -75 107 -75q36 0 62.5 18 t26.5 50q0 41 -74 88l-82 52q-61 38 -87 75.5t-26 88.5q0 83 78 140q-55 47 -55 116t48 110.5t125 41.5q122 0 168 -108l-65 -50q-35 75 -100 75q-36 0 -60.5 -18t-24.5 -50q0 -42 74 -89l82 -51q113 -70 113 -164z" />
<glyph unicode="&#xa8;" horiz-adv-x="367" d="M75 801q0 32 9 45.5t40 13.5q23 0 34.5 -9t13 -19t1.5 -31q0 -32 -10 -45t-39 -13q-31 0 -40 13t-9 45zM218 801q0 32 9 45.5t40 13.5q23 0 34.5 -9t13 -19t1.5 -31q0 -32 -10.5 -45t-38.5 -13q-31 0 -40 13t-9 45z" />
<glyph unicode="&#xa9;" horiz-adv-x="795" d="M574 412l-87 -10q-7 40 -33.5 64.5t-60.5 24.5q-53 0 -84.5 -37t-31.5 -96q0 -60 30.5 -101t85.5 -41q37 0 63.5 25.5t34.5 68.5l85 -10q-19 -79 -68.5 -123.5t-114.5 -44.5q-91 0 -149.5 64t-58.5 158q0 97 56.5 157.5t151.5 60.5q67 0 117.5 -43t63.5 -117zM385 621 q-109 0 -186 -79.5t-77 -188.5t77 -189t186 -80t186 80t77 189t-77 188.5t-186 79.5zM384 704q145 0 248.5 -103t103.5 -248t-103 -248.5t-248 -103.5q-146 0 -249 103t-103 248t103 248.5t248 103.5z" />
<glyph unicode="&#xaa;" horiz-adv-x="263" d="M164 559v24q-9 1 -32 1q-22 0 -36.5 -9t-14.5 -27q0 -24 33 -24q19 0 34.5 9t15.5 26zM232 468h-61q-2 8 -2 19q-16 -23 -59 -23q-42 0 -67.5 23.5t-25.5 59.5q0 43 31.5 68.5t84.5 25.5q21 0 31 -1v12q0 26 -37 26q-35 0 -71 -35l-26 52q16 19 46 31t53 12q98 0 98 -88 v-130z" />
<glyph unicode="&#xab;" horiz-adv-x="471" d="M437 469l-147 -195l147 -195h-99l-154 192l154 198h99zM281 469l-147 -195l147 -195h-99l-154 192l154 198h99z" />
<glyph unicode="&#xad;" horiz-adv-x="298" d="M19 234v85h260v-85h-260z" />
<glyph unicode="&#xae;" horiz-adv-x="515" d="M257 717q95 0 163 -67.5t68 -162.5t-67.5 -163t-162.5 -68q-96 0 -163.5 67.5t-67.5 162.5q0 96 67.5 163.5t162.5 67.5zM242 458h-16l-1 -103h-61l1 264h98q104 0 104 -75q0 -60 -57 -66q23 -10 40 -38q7 -10 39 -66q42 50 42 113q0 71 -51 123t-122 52t-122 -52 t-51 -123q0 -72 51 -124t122 -52q66 0 113 44h-48l-36 70q-10 20 -19.5 26.5t-25.5 6.5zM226 568v-64h34q42 0 42 31q0 33 -41 33h-35z" />
<glyph unicode="&#xaf;" d="M118 712v74h289v-74h-289z" />
<glyph unicode="&#xb0;" horiz-adv-x="270" d="M134 658q-16 0 -26 -10.5t-10 -25.5t10.5 -25.5t25.5 -10.5t25.5 11t10.5 25q0 15 -10.5 25.5t-25.5 10.5zM134 729q44 0 75.5 -31.5t31.5 -75.5t-31.5 -75t-75.5 -31q-45 0 -76 31t-31 75t31 75.5t76 31.5z" />
<glyph unicode="&#xb1;" horiz-adv-x="621" d="M47 0v82h524v-82h-524zM46 375h217v190h90v-190h217v-91h-217v-178h-90v178h-217v91z" />
<glyph unicode="&#xb2;" horiz-adv-x="422" d="M353 284h-304v45q38 44 158 162q62 62 62 102q0 28 -20.5 45.5t-52.5 17.5q-62 0 -99 -67l-48 49q19 36 61 61t87 25q65 0 106 -36t41 -93q0 -69 -89 -155q-86 -85 -91 -89h189v-67z" />
<glyph unicode="&#xb3;" horiz-adv-x="415" d="M91 592l-37 64q16 28 53 47t79 19q67 0 109 -32.5t42 -85.5q0 -60 -50 -92q53 -31 53 -101q0 -60 -45 -97t-118 -37q-48 0 -87 20.5t-52 49.5l37 57q37 -60 102 -60q40 0 64.5 18.5t24.5 49.5q0 63 -95 63h-43v67h35q99 0 99 62q0 22 -22 36.5t-56 14.5q-62 0 -93 -63z " />
<glyph unicode="&#xb4;" horiz-adv-x="455" d="M203 681h-84l122 173h125z" />
<glyph unicode="&#xb5;" horiz-adv-x="522" d="M374 505h91v-505h-79v40q-43 -46 -121 -46q-67 0 -100 21v-164h-91v654h91v-309q0 -118 99 -118q46 0 76.5 32.5t33.5 80.5v314z" />
<glyph unicode="&#xb6;" horiz-adv-x="585" d="M540 633h-41v-763h-92v760h-73v-760h-93v443q-84 4 -138 62t-54 142q0 94 60.5 147.5t165.5 53.5h265v-85z" />
<glyph unicode="&#xb7;" horiz-adv-x="259" d="M132 330q35 0 45.5 -11.5t10.5 -48.5t-12 -49t-44 -12q-36 0 -46 11.5t-10 49.5q0 37 11.5 48.5t44.5 11.5z" />
<glyph unicode="&#xb8;" horiz-adv-x="417" d="M109 -162l1 71q50 -19 82 -19q19 0 19 14q0 5 -4.5 10.5t-11.5 5.5h-55l56 120h78l-41 -74q26 -5 42 -23.5t16 -44.5q0 -75 -96 -75q-28 0 -86 15z" />
<glyph unicode="&#xb9;" horiz-adv-x="337" d="M182 718h42v-434h-75v356l-53 -21l-16 56z" />
<glyph unicode="&#xba;" horiz-adv-x="288" d="M202 608q0 33 -16 55t-45 22t-45 -22t-16 -55q0 -32 16 -54.5t45 -22.5t45 22.5t16 54.5zM267 608q0 -59 -34 -98t-92 -39t-92 39t-34 98t34 97.5t92 38.5t92 -38.5t34 -97.5z" />
<glyph unicode="&#xbb;" horiz-adv-x="472" d="M200 79l145 195l-144 199h98l151 -197l-151 -197h-99zM44 79l145 195l-144 199h98l151 -197l-151 -197h-99z" />
<glyph unicode="&#xbc;" horiz-adv-x="851" d="M633 168v148l-111 -148h111zM197 718h42v-434h-75v356l-53 -21l-16 56zM421 150l225 289h61v-271h64v-67h-64v-101h-74v101h-212v49zM221 -14l-89 -1l449 741h89z" />
<glyph unicode="&#xbd;" horiz-adv-x="870" d="M194 718h41v-434h-74v356l-53 -21l-16 56zM781 0h-304v45q31 37 158 162q62 62 62 102q0 28 -20.5 46t-52.5 18q-61 0 -99 -67l-48 48q19 36 61 61t87 25q65 0 106 -36t41 -93q0 -63 -89 -155l-91 -89h189v-67zM201 -14l-89 -1l449 741h89z" />
<glyph unicode="&#xbe;" horiz-adv-x="862" d="M660 168v144l-108 -144h108zM103 596l-37 60q17 28 54 47t79 19q67 0 108.5 -32.5t41.5 -85.5q0 -60 -49 -92q53 -31 53 -101q0 -60 -45 -97t-119 -37q-48 0 -87 20.5t-52 49.5l37 57q38 -60 102 -60q40 0 64.5 18.5t24.5 49.5q0 63 -94 63h-43v67h34q100 0 100 62 q0 22 -22 36.5t-56 14.5q-64 0 -94 -59zM449 150l225 288h61v-270h64v-67h-64v-101h-75v101h-211v49zM270 -14l-89 -1l449 741h89z" />
<glyph unicode="&#xbf;" horiz-adv-x="445" d="M249 392q-35 0 -45.5 11.5t-10.5 48.5t12 49t44 12q36 0 46 -11.5t10 -49.5q0 -37 -11.5 -48.5t-44.5 -11.5zM234 -210q-80 0 -126.5 48t-46.5 130q0 60 50 117q75 84 92.5 107t17.5 39q0 27 -26 77q32 16 73 42q47 -67 47 -119q0 -67 -61 -128q-65 -64 -82.5 -90.5 t-17.5 -56.5q0 -79 84 -79q29 0 63 26t51 61l48 -79q-16 -38 -66 -66.5t-100 -28.5z" />
<glyph unicode="&#xc0;" horiz-adv-x="655" d="M326 895l99 -145h-84l-140 145h125zM217 296h216l-108 275zM366 718l282 -718h-101l-81 208h-284l-81 -208h-100l286 718h79z" />
<glyph unicode="&#xc1;" horiz-adv-x="655" d="M322 749h-73l101 146h109zM217 296h216l-108 275zM366 718l282 -718h-101l-81 208h-284l-81 -208h-100l286 718h79z" />
<glyph unicode="&#xc2;" horiz-adv-x="655" d="M252 719h-76l123 148h61l111 -148h-73l-71 74zM217 296h216l-108 275zM366 718l282 -718h-101l-81 208h-284l-81 -208h-100l286 718h79z" />
<glyph unicode="&#xc3;" horiz-adv-x="655" d="M399 843h62q-18 -100 -83 -100q-18 0 -51 14.5t-45 14.5q-19 0 -27 -29h-60q16 100 83 100q18 0 50 -14t46 -14q11 0 16.5 6.5t8.5 21.5zM217 296h216l-108 275zM366 718l282 -718h-101l-81 208h-284l-81 -208h-100l286 718h79z" />
<glyph unicode="&#xc4;" horiz-adv-x="655" d="M207 801q0 32 9 45.5t40 13.5q23 0 34.5 -9t13 -19t1.5 -31q0 -32 -10 -45t-39 -13q-31 0 -40 13t-9 45zM350 801q0 32 9 45.5t40 13.5q23 0 34.5 -9t13 -19t1.5 -31q0 -32 -10.5 -45t-38.5 -13q-31 0 -40 13t-9 45zM217 296h216l-108 275zM366 718l282 -718h-101 l-81 208h-284l-81 -208h-100l286 718h79z" />
<glyph unicode="&#xc5;" horiz-adv-x="655" d="M325 794q-16 0 -27 -10.5t-11 -26.5q0 -12 6 -23.5t17 -14.5h28q10 4 17 15.5t7 22.5q0 16 -11 26.5t-26 10.5zM217 296h216l-108 275zM324 849q40 0 68.5 -28.5t28.5 -68.5q0 -49 -39 -78l266 -674h-101l-81 208h-284l-81 -208h-100l268 672q-42 29 -42 80 q0 40 28.5 68.5t68.5 28.5z" />
<glyph unicode="&#xc6;" horiz-adv-x="930" d="M280 312h170v296zM450 0v225h-220l-133 -225h-107l418 711h420v-88h-283v-210h256v-88h-256v-237h293v-88h-388z" />
<glyph unicode="&#xc7;" horiz-adv-x="672" d="M142 356q0 -118 72 -197.5t188 -79.5q111 0 192 95l24 -87q-81 -89 -199 -95l-17 -35q29 -2 45 -17t16 -42q0 -75 -95 -75q-28 0 -86 15l1 71q50 -19 70 -19q23 0 23 14q0 15 -19 15h-42l30 76q-137 17 -218.5 116t-81.5 245q0 155 98 260t251 105q140 0 225 -91l-33 -95 q-89 98 -194 98q-114 0 -182 -79.5t-68 -197.5z" />
<glyph unicode="&#xc8;" horiz-adv-x="520" d="M267 895l99 -145h-84l-140 145h125zM473 88v-88h-395v711h385v-88h-290v-210h262v-88h-262v-237h300z" />
<glyph unicode="&#xc9;" horiz-adv-x="520" d="M288 711h175v-88h-290v-210h262v-88h-262v-237h300v-88h-395v711h126l122 173h125z" />
<glyph unicode="&#xca;" horiz-adv-x="520" d="M202 733h-76l123 148h61l111 -145h-73l-71 71zM473 88v-88h-395v711h385v-88h-290v-210h262v-88h-262v-237h300z" />
<glyph unicode="&#xcb;" horiz-adv-x="520" d="M162 801q0 32 9 45.5t40 13.5q23 0 34.5 -9t13 -19t1.5 -31q0 -32 -10 -45t-39 -13q-31 0 -40 13t-9 45zM305 801q0 32 9 45.5t40 13.5q23 0 34.5 -9t13 -19t1.5 -31q0 -32 -10.5 -45t-38.5 -13q-31 0 -40 13t-9 45zM473 88v-88h-395v711h385v-88h-290v-210h262v-88h-262 v-237h300z" />
<glyph unicode="&#xcc;" horiz-adv-x="220" d="M117 895l99 -145h-84l-140 145h125zM161 711v-711h-94v711h94z" />
<glyph unicode="&#xcd;" horiz-adv-x="220" d="M106 759h-73l101 146h109zM161 711v-711h-94v711h94z" />
<glyph unicode="&#xce;" horiz-adv-x="220" d="M39 719h-76l123 148h61l111 -148h-73l-71 74zM161 711v-711h-94v711h94z" />
<glyph unicode="&#xcf;" horiz-adv-x="220" d="M-6 801q0 32 9 45.5t40 13.5q23 0 34.5 -9t13 -19t1.5 -31q0 -32 -10 -45t-39 -13q-31 0 -40 13t-9 45zM137 801q0 32 9 45.5t40 13.5q23 0 34.5 -9t13 -19t1.5 -31q0 -32 -10.5 -45t-38.5 -13q-31 0 -40 13t-9 45zM161 711v-711h-94v711h94z" />
<glyph unicode="&#xd0;" horiz-adv-x="679" d="M1 329v83h79v299h198q164 0 257.5 -96t93.5 -260t-99 -260q-98 -95 -272 -95h-178v329h-79zM533 355q0 127 -68.5 198.5t-191.5 71.5h-99v-213h191v-83h-191v-241h82q130 0 203.5 71t73.5 196z" />
<glyph unicode="&#xd1;" horiz-adv-x="740" d="M458 798h62q-18 -100 -83 -100q-18 0 -51 14.5t-45 14.5q-19 0 -27 -29h-60q16 100 83 100q17 0 49 -14t47 -14q11 0 16.5 6.5t8.5 21.5zM563 171v540h94v-711h-83l-400 546v-546h-95v711h90z" />
<glyph unicode="&#xd2;" horiz-adv-x="759" d="M345 895l99 -145h-84l-140 145h125zM614 356q0 113 -64.5 195t-171.5 82t-171 -81.5t-64 -195.5q0 -115 64 -196t171 -81q108 0 172 81t64 196zM710 356q0 -156 -90 -260.5t-242 -104.5t-241.5 104t-89.5 261q0 156 89.5 260.5t241.5 104.5t242 -104.5t90 -260.5z" />
<glyph unicode="&#xd3;" horiz-adv-x="759" d="M375 759h-73l101 146h109zM614 356q0 113 -64.5 195t-171.5 82t-171 -81.5t-64 -195.5q0 -115 64 -196t171 -81q108 0 172 81t64 196zM710 356q0 -156 -90 -260.5t-242 -104.5t-241.5 104t-89.5 261q0 156 89.5 260.5t241.5 104.5t242 -104.5t90 -260.5z" />
<glyph unicode="&#xd4;" horiz-adv-x="759" d="M305 735h-76l123 148h61l111 -145h-73l-71 71zM614 356q0 113 -64.5 195t-171.5 82t-171 -81.5t-64 -195.5q0 -115 64 -196t171 -81q108 0 172 81t64 196zM710 356q0 -156 -90 -260.5t-242 -104.5t-241.5 104t-89.5 261q0 156 89.5 260.5t241.5 104.5t242 -104.5 t90 -260.5z" />
<glyph unicode="&#xd5;" horiz-adv-x="759" d="M442 846h62q-18 -100 -83 -100q-18 0 -51 14.5t-45 14.5q-19 0 -27 -29h-60q16 100 83 100q17 0 49 -14t47 -14q11 0 16.5 6.5t8.5 21.5zM614 356q0 113 -64.5 195t-171.5 82t-171 -81.5t-64 -195.5q0 -115 64 -196t171 -81q108 0 172 81t64 196zM710 356 q0 -156 -90 -260.5t-242 -104.5t-241.5 104t-89.5 261q0 156 89.5 260.5t241.5 104.5t242 -104.5t90 -260.5z" />
<glyph unicode="&#xd6;" horiz-adv-x="759" d="M259 801q0 32 9 45.5t40 13.5q23 0 34.5 -9t13 -19t1.5 -31q0 -32 -10 -45t-39 -13q-31 0 -40 13t-9 45zM402 801q0 32 9 45.5t40 13.5q23 0 34.5 -9t13 -19t1.5 -31q0 -32 -10.5 -45t-38.5 -13q-31 0 -40 13t-9 45zM614 356q0 113 -64.5 195t-171.5 82t-171 -81.5 t-64 -195.5q0 -115 64 -196t171 -81q108 0 172 81t64 196zM710 356q0 -156 -90 -260.5t-242 -104.5t-241.5 104t-89.5 261q0 156 89.5 260.5t241.5 104.5t242 -104.5t90 -260.5z" />
<glyph unicode="&#xd7;" horiz-adv-x="621" d="M58 95l186 185l-186 185l65 65l185 -186l185 186l65 -65l-186 -185l186 -185l-65 -65l-185 186l-185 -186z" />
<glyph unicode="&#xd8;" horiz-adv-x="759" d="M710 356q0 -156 -90 -260.5t-242 -104.5q-115 0 -196 61l-42 -54h-102l86 112q-77 100 -77 246q0 156 89.5 260.5t241.5 104.5q101 0 179 -51l40 51h102l-80 -104q91 -102 91 -261zM614 356q0 105 -56 183l-319 -412q59 -48 139 -48q108 0 172 81t64 196zM143 356 q0 -94 43 -166l314 406q-55 37 -122 37q-107 0 -171 -81.5t-64 -195.5z" />
<glyph unicode="&#xd9;" horiz-adv-x="679" d="M315 885l99 -145h-84l-140 145h125zM513 260v451h95v-454q0 -121 -72.5 -193.5t-193.5 -72.5q-122 0 -194.5 71t-72.5 192v457h95v-453q0 -85 45 -132t127 -47q81 0 126 48t45 133z" />
<glyph unicode="&#xda;" horiz-adv-x="679" d="M351 747h-73l101 146h109zM513 260v451h95v-454q0 -121 -72.5 -193.5t-193.5 -72.5q-122 0 -194.5 71t-72.5 192v457h95v-453q0 -85 45 -132t127 -47q81 0 126 48t45 133z" />
<glyph unicode="&#xdb;" horiz-adv-x="679" d="M280 731h-76l123 148h61l111 -145h-73l-71 71zM513 260v451h95v-454q0 -121 -72.5 -193.5t-193.5 -72.5q-122 0 -194.5 71t-72.5 192v457h95v-453q0 -85 45 -132t127 -47q81 0 126 48t45 133z" />
<glyph unicode="&#xdc;" horiz-adv-x="679" d="M219 801q0 32 9 45.5t40 13.5q23 0 34.5 -9t13 -19t1.5 -31q0 -32 -10 -45t-39 -13q-31 0 -40 13t-9 45zM362 801q0 32 9 45.5t40 13.5q23 0 34.5 -9t13 -19t1.5 -31q0 -32 -10.5 -45t-38.5 -13q-31 0 -40 13t-9 45zM513 260v451h95v-454q0 -121 -72.5 -193.5 t-193.5 -72.5q-122 0 -194.5 71t-72.5 192v457h95v-453q0 -85 45 -132t127 -47q81 0 126 48t45 133z" />
<glyph unicode="&#xdd;" horiz-adv-x="581" d="M308 710h-73l101 146h109zM290 409l193 302h110l-255 -397v-314h-94v315l-255 396h112z" />
<glyph unicode="&#xde;" horiz-adv-x="528" d="M173 485v-232h81q147 0 147 119q0 113 -133 113h-95zM79 0v711h94v-138h93q110 0 170 -53.5t60 -152.5q0 -93 -62.5 -147.5t-168.5 -54.5h-92v-165h-94z" />
<glyph unicode="&#xdf;" horiz-adv-x="527" d="M156 525v-525h-90v539q0 99 49.5 156t144.5 57q84 0 135.5 -50.5t51.5 -132.5q0 -97 -70 -145q56 -24 87.5 -75t31.5 -120q0 -100 -60 -167.5t-157 -67.5q-30 0 -87 15l17 89q49 -19 70 -19q52 0 87.5 44.5t35.5 104.5q0 68 -38 106.5t-109 38.5h-32v83h31q45 0 72.5 31 t27.5 81q0 46 -26.5 74t-72.5 28q-99 0 -99 -145z" />
<glyph unicode="&#xe0;" horiz-adv-x="482" d="M428 0h-86l-7 37q-60 -46 -135 -46q-77 0 -124 42t-47 108q0 79 59 126t161 47q43 0 81 -5v46q0 74 -95 74q-72 0 -140 -61l-33 75q26 29 79 48t96 19q183 0 183 -160v-266q0 -47 8 -84zM330 167v63q-38 6 -85 6q-54 0 -89 -22.5t-35 -69.5q0 -32 22.5 -51t63.5 -19 q44 0 81.5 27t41.5 66zM232 684l99 -145h-84l-140 145h125z" />
<glyph unicode="&#xe1;" horiz-adv-x="482" d="M428 0h-86l-7 37q-60 -46 -135 -46q-77 0 -124 42t-47 108q0 79 59 126t161 47q43 0 81 -5v46q0 74 -95 74q-72 0 -140 -61l-33 75q26 29 79 48t96 19q183 0 183 -160v-266q0 -47 8 -84zM330 167v63q-38 6 -85 6q-54 0 -89 -22.5t-35 -69.5q0 -32 22.5 -51t63.5 -19 q44 0 81.5 27t41.5 66zM234 538h-73l101 146h109z" />
<glyph unicode="&#xe2;" horiz-adv-x="482" d="M428 0h-86l-7 37q-60 -46 -135 -46q-77 0 -124 42t-47 108q0 79 59 126t161 47q43 0 81 -5v46q0 74 -95 74q-72 0 -140 -61l-33 75q26 29 79 48t96 19q183 0 183 -160v-266q0 -47 8 -84zM330 167v63q-38 6 -85 6q-54 0 -89 -22.5t-35 -69.5q0 -32 22.5 -51t63.5 -19 q44 0 81.5 27t41.5 66zM183 525h-76l123 148h61l111 -145h-73l-71 71z" />
<glyph unicode="&#xe3;" horiz-adv-x="482" d="M428 0h-86l-7 37q-60 -46 -135 -46q-77 0 -124 42t-47 108q0 79 59 126t161 47q43 0 81 -5v46q0 74 -95 74q-72 0 -140 -61l-33 75q26 29 79 48t96 19q183 0 183 -160v-266q0 -47 8 -84zM330 167v63q-38 6 -85 6q-54 0 -89 -22.5t-35 -69.5q0 -32 22.5 -51t63.5 -19 q44 0 81.5 27t41.5 66zM314 645h62q-18 -100 -83 -100q-18 0 -51 14.5t-45 14.5q-19 0 -27 -29h-60q16 100 83 100q17 0 49 -14t47 -14q11 0 16.5 6.5t8.5 21.5z" />
<glyph unicode="&#xe4;" horiz-adv-x="482" d="M428 0h-86l-7 37q-60 -46 -135 -46q-77 0 -124 42t-47 108q0 79 59 126t161 47q43 0 81 -5v46q0 74 -95 74q-72 0 -140 -61l-33 75q26 29 79 48t96 19q183 0 183 -160v-266q0 -47 8 -84zM330 167v63q-38 6 -85 6q-54 0 -89 -22.5t-35 -69.5q0 -32 22.5 -51t63.5 -19 q44 0 81.5 27t41.5 66zM259 601q0 32 9 45.5t40 13.5q23 0 34.5 -9t13 -19t1.5 -31q0 -32 -10.5 -45t-38.5 -13q-31 0 -40 13t-9 45zM116 601q0 32 9 45.5t40 13.5q23 0 34.5 -9t13 -19t1.5 -31q0 -32 -10 -45t-39 -13q-31 0 -40 13t-9 45z" />
<glyph unicode="&#xe5;" horiz-adv-x="482" d="M241 685q36 0 62.5 -26.5t26.5 -62.5q0 -30 -18.5 -53.5t-46.5 -31.5q155 -14 155 -161v-266l8 -84h-86l-7 37q-60 -46 -135 -46q-77 0 -124 42t-47 108q0 79 59 126t161 47q43 0 81 -5v46q0 74 -95 74q-72 0 -140 -61l-33 75q23 26 68 44.5t88 22.5q-29 8 -47.5 32 t-18.5 54q0 36 26 62.5t63 26.5zM330 167v63q-38 6 -85 6q-54 0 -89 -23.5t-35 -70.5q0 -32 22.5 -50t63.5 -18q45 0 84 27t39 66zM242 633q-16 0 -26.5 -11.5t-10.5 -26.5t10.5 -26.5t26.5 -11.5q14 0 26 11.5t12 26.5t-12 26.5t-26 11.5z" />
<glyph unicode="&#xe6;" horiz-adv-x="806" d="M423 309h228q0 53 -31 86t-76 33q-51 0 -86 -34t-35 -85zM332 184v45q-33 5 -66 5q-68 0 -104 -25.5t-36 -67.5q0 -68 85 -68q46 0 83.5 31.5t37.5 79.5zM242 511q107 0 151 -68q59 68 151 68q94 0 148 -66t56 -179v-39h-329q6 -69 41 -111t101 -42q31 0 73 27t66 64 l35 -87q-28 -39 -80 -63t-108 -24q-102 0 -165 82q-64 -83 -182 -83q-75 0 -120.5 41.5t-45.5 108.5q0 78 57 125.5t161 47.5q59 0 80 -2v30q0 88 -93 88q-70 0 -143 -65l-24 82q31 31 79 48t91 17z" />
<glyph unicode="&#xe7;" horiz-adv-x="452" d="M410 146l22 -95q-60 -55 -147 -60l-18 -35q29 -2 45 -17t16 -42q0 -75 -95 -75q-28 0 -86 15l1 71q50 -19 70 -19q23 0 23 14q0 15 -19 15h-42l36 78q-89 17 -137.5 85.5t-48.5 169.5q0 113 66.5 186.5t177.5 73.5q90 0 154 -63l-24 -89q-67 69 -129 69 q-70 0 -111.5 -47.5t-41.5 -127.5q0 -77 40.5 -128t112.5 -51q29 0 68.5 20t66.5 52z" />
<glyph unicode="&#xe8;" d="M229 684l99 -145h-84l-140 145h125zM127 309h242q-1 53 -34 86t-79 33q-51 0 -88.5 -35.5t-40.5 -83.5zM411 152l46 -73q-29 -39 -82 -63.5t-109 -24.5q-111 0 -173.5 69.5t-62.5 192.5q0 105 61 181.5t162 76.5q100 0 157 -74t57 -210h-345q0 -65 40.5 -109t109.5 -44 q33 0 74 22t65 56z" />
<glyph unicode="&#xe9;" d="M239 538h-73l101 146h109zM127 309h242q-1 53 -34 86t-79 33q-51 0 -88.5 -35.5t-40.5 -83.5zM411 152l46 -73q-29 -39 -82 -63.5t-109 -24.5q-111 0 -173.5 69.5t-62.5 192.5q0 105 61 181.5t162 76.5q100 0 157 -74t57 -210h-345q0 -65 40.5 -109t109.5 -44q33 0 74 22 t65 56z" />
<glyph unicode="&#xea;" d="M184 523h-76l123 148h61l111 -145h-73l-71 71zM127 309h242q-1 53 -34 86t-79 33q-51 0 -88.5 -35.5t-40.5 -83.5zM411 152l46 -73q-29 -39 -82 -63.5t-109 -24.5q-111 0 -173.5 69.5t-62.5 192.5q0 105 61 181.5t162 76.5q100 0 157 -74t57 -210h-345q0 -65 40.5 -109 t109.5 -44q33 0 74 22t65 56z" />
<glyph unicode="&#xeb;" d="M127 601q0 32 9 45.5t40 13.5q23 0 34.5 -9t13 -19t1.5 -31q0 -32 -10 -45t-39 -13q-31 0 -40 13t-9 45zM270 601q0 32 9 45.5t40 13.5q23 0 34.5 -9t13 -19t1.5 -31q0 -32 -10.5 -45t-38.5 -13q-31 0 -40 13t-9 45zM127 309h242q-1 53 -34 86t-79 33q-51 0 -88.5 -35.5 t-40.5 -83.5zM411 152l46 -73q-29 -39 -82 -63.5t-109 -24.5q-111 0 -173.5 69.5t-62.5 192.5q0 105 61 181.5t162 76.5q100 0 157 -74t57 -210h-345q0 -65 40.5 -109t109.5 -44q33 0 74 22t65 56z" />
<glyph unicode="&#xec;" horiz-adv-x="200" d="M115 684l99 -145h-84l-140 145h125zM63 506h90v-506h-90v506z" />
<glyph unicode="&#xed;" horiz-adv-x="200" d="M96 538h-73l101 146h109zM63 506h90v-506h-90v506z" />
<glyph unicode="&#xee;" horiz-adv-x="200" d="M36 525h-76l123 148h61l111 -145h-73l-71 71zM63 506h90v-506h-90v506z" />
<glyph unicode="&#xef;" horiz-adv-x="200" d="M-14 601q0 32 9 45.5t40 13.5q23 0 34.5 -9t13 -19t1.5 -31q0 -32 -10 -45t-39 -13q-31 0 -40 13t-9 45zM129 601q0 32 9 45.5t40 13.5q23 0 34.5 -9t13 -19t1.5 -31q0 -32 -10.5 -45t-38.5 -13q-31 0 -40 13t-9 45zM63 506h90v-506h-90v506z" />
<glyph unicode="&#xf0;" horiz-adv-x="540" d="M274 429q-71 0 -111 -52t-40 -128q0 -74 41 -125.5t110 -51.5q67 0 107 52.5t40 125.5q0 76 -38.5 127.5t-108.5 51.5zM513 269q0 -123 -61 -201t-178 -78q-110 0 -176 73t-66 186q0 112 66 187t176 75q51 0 101 -25q-31 54 -85 106l-91 -55l-41 59l71 42q-36 22 -103 40 l43 73q91 -30 140 -65l97 58l38 -61l-77 -46q146 -146 146 -368z" />
<glyph unicode="&#xf1;" horiz-adv-x="520" d="M352 645h62q-18 -100 -83 -100q-18 0 -51 14.5t-45 14.5q-19 0 -27 -29h-60q16 100 83 100q17 0 49 -14t47 -14q11 0 16.5 6.5t8.5 21.5zM460 316v-316h-91v310q0 59 -25 89.5t-71 30.5q-48 0 -82 -37t-34 -90v-303h-91v506h82l4 -42q51 49 127 49q87 0 134 -50t47 -147z " />
<glyph unicode="&#xf2;" horiz-adv-x="542" d="M267 684l99 -145h-84l-140 145h125zM416 251q0 73 -39 125t-107 52t-107 -52t-39 -125q0 -74 39 -125.5t107 -51.5t107 51.5t39 125.5zM508 251q0 -113 -64 -186.5t-174 -73.5t-174 73.5t-64 186.5q0 111 64.5 185.5t173.5 74.5t173.5 -74.5t64.5 -185.5z" />
<glyph unicode="&#xf3;" horiz-adv-x="542" d="M257 538h-73l101 146h109zM416 251q0 73 -39 125t-107 52t-107 -52t-39 -125q0 -74 39 -125.5t107 -51.5t107 51.5t39 125.5zM508 251q0 -113 -64 -186.5t-174 -73.5t-174 73.5t-64 186.5q0 111 64.5 185.5t173.5 74.5t173.5 -74.5t64.5 -185.5z" />
<glyph unicode="&#xf4;" horiz-adv-x="542" d="M191 522h-76l123 148h61l111 -145h-73l-71 71zM416 251q0 73 -39 125t-107 52t-107 -52t-39 -125q0 -74 39 -125.5t107 -51.5t107 51.5t39 125.5zM508 251q0 -113 -64 -186.5t-174 -73.5t-174 73.5t-64 186.5q0 111 64.5 185.5t173.5 74.5t173.5 -74.5t64.5 -185.5z" />
<glyph unicode="&#xf5;" horiz-adv-x="542" d="M349 645h62q-18 -100 -83 -100q-18 0 -51 14.5t-45 14.5q-19 0 -27 -29h-60q16 100 83 100q18 0 50 -14t46 -14q11 0 16.5 6.5t8.5 21.5zM416 251q0 73 -39 125t-107 52t-107 -52t-39 -125q0 -74 39 -125.5t107 -51.5t107 51.5t39 125.5zM508 251q0 -113 -64 -186.5 t-174 -73.5t-174 73.5t-64 186.5q0 111 64.5 185.5t173.5 74.5t173.5 -74.5t64.5 -185.5z" />
<glyph unicode="&#xf6;" horiz-adv-x="542" d="M153 601q0 32 9 45.5t40 13.5q23 0 34.5 -9t13 -19t1.5 -31q0 -32 -10 -45t-39 -13q-31 0 -40 13t-9 45zM296 601q0 32 9 45.5t40 13.5q23 0 34.5 -9t13 -19t1.5 -31q0 -32 -10.5 -45t-38.5 -13q-31 0 -40 13t-9 45zM416 251q0 73 -39 125t-107 52t-107 -52t-39 -125 q0 -74 39 -125.5t107 -51.5t107 51.5t39 125.5zM508 251q0 -113 -64 -186.5t-174 -73.5t-174 73.5t-64 186.5q0 111 64.5 185.5t173.5 74.5t173.5 -74.5t64.5 -185.5z" />
<glyph unicode="&#xf7;" horiz-adv-x="613" d="M312 522q35 0 45.5 -11.5t10.5 -48.5q0 -36 -12 -48.5t-44 -12.5q-36 0 -46 11.5t-10 49.5q0 37 11.5 48.5t44.5 11.5zM312 165q35 0 45.5 -12t10.5 -49q0 -36 -12 -48t-44 -12q-36 0 -46 11.5t-10 48.5t11.5 49t44.5 12zM570 235h-524v90h524v-90z" />
<glyph unicode="&#xf8;" horiz-adv-x="542" d="M508 251q0 -113 -64 -186.5t-174 -73.5q-76 0 -132 37l-24 -30h-103l70 85q-49 69 -49 168q0 111 64.5 185.5t173.5 74.5q72 0 130 -37l26 32h103l-72 -87q51 -71 51 -168zM416 251q0 50 -20 93l-202 -248q33 -22 76 -22q68 0 107 51.5t39 125.5zM124 251q0 -53 19 -92 l201 247q-34 22 -74 22q-68 0 -107 -52t-39 -125z" />
<glyph unicode="&#xf9;" horiz-adv-x="519" d="M249 653l98 -145h-83l-140 145h125zM368 506h91v-506h-80l-1 37q-46 -46 -130 -46q-183 0 -183 191v324h91v-314q0 -118 94 -118q49 0 83.5 32t34.5 80v320z" />
<glyph unicode="&#xfa;" horiz-adv-x="519" d="M249 538h-73l101 146h109zM368 506h91v-506h-80l-1 37q-46 -46 -130 -46q-183 0 -183 191v324h91v-314q0 -118 94 -118q49 0 83.5 32t34.5 80v320z" />
<glyph unicode="&#xfb;" horiz-adv-x="519" d="M191 542h-76l123 148h61l111 -145h-73l-71 71zM368 506h91v-506h-80l-1 37q-46 -46 -130 -46q-183 0 -183 191v324h91v-314q0 -118 94 -118q49 0 83.5 32t34.5 80v320z" />
<glyph unicode="&#xfc;" horiz-adv-x="519" d="M146 601q0 32 9 45.5t40 13.5q23 0 34.5 -9t13 -19t1.5 -31q0 -32 -10 -45t-39 -13q-31 0 -40 13t-9 45zM289 601q0 32 9 45.5t40 13.5q23 0 34.5 -9t13 -19t1.5 -31q0 -32 -10.5 -45t-38.5 -13q-31 0 -40 13t-9 45zM368 506h91v-506h-80l-1 37q-46 -46 -130 -46 q-183 0 -183 191v324h91v-314q0 -118 94 -118q49 0 83.5 32t34.5 80v320z" />
<glyph unicode="&#xfd;" horiz-adv-x="444" d="M234 538h-73l101 146h109zM224 154l133 352h98l-248 -621q-18 -47 -51.5 -70.5t-93.5 -23.5q-3 0 -9.5 0.5t-10.5 0.5v84q8 -1 21 -1q46 0 59 30l56 131l-189 470h99z" />
<glyph unicode="&#xfe;" horiz-adv-x="549" d="M158 290v-71q0 -59 37 -102t86 -43q65 0 101.5 47t36.5 130q0 72 -36 124.5t-101 52.5q-51 0 -87.5 -38t-36.5 -100zM159 35v-244h-91v919h91v-242q50 43 127 43q109 0 167.5 -73.5t58.5 -187.5q0 -110 -58.5 -184.5t-163.5 -74.5q-80 0 -131 44z" />
<glyph unicode="&#xff;" horiz-adv-x="444" d="M95 601q0 32 9 45.5t40 13.5q23 0 34.5 -9t13 -19t1.5 -31q0 -32 -10 -45t-39 -13q-31 0 -40 13t-9 45zM238 601q0 32 9 45.5t40 13.5q23 0 34.5 -9t13 -19t1.5 -31q0 -32 -10.5 -45t-38.5 -13q-31 0 -40 13t-9 45zM224 154l133 352h98l-248 -621q-18 -47 -51.5 -70.5 t-93.5 -23.5q-3 0 -9.5 0.5t-10.5 0.5v84q8 -1 21 -1q46 0 59 30l56 131l-189 470h99z" />
<glyph unicode="&#x152;" horiz-adv-x="1071" d="M386 633q-107 0 -170.5 -81.5t-63.5 -195.5q0 -115 63.5 -196t170.5 -81q88 0 156.5 64.5t68.5 144.5v141q0 73 -69.5 138.5t-155.5 65.5zM1006 88v-88h-395v84q-88 -93 -225 -93q-152 0 -241.5 104t-89.5 261q0 156 89.5 260.5t241.5 104.5q139 0 225 -91v81h385v-88 h-290v-210h262v-88h-262v-237h300z" />
<glyph unicode="&#x153;" horiz-adv-x="909" d="M522 309h242q-9 55 -39 87t-74 32q-50 0 -84 -33.5t-45 -85.5zM280 428q-68 0 -107 -52t-39 -125q0 -74 39 -125.5t107 -51.5q70 0 106.5 51t38.5 133q-2 71 -40.5 120.5t-104.5 49.5zM806 152l46 -73q-29 -39 -82 -63.5t-109 -24.5q-128 0 -191 98q-29 -44 -80 -71 t-110 -27q-110 0 -174.5 73.5t-64.5 186.5q0 111 65 185.5t174 74.5q124 0 191 -97q64 97 177 97q100 0 157 -74t57 -210h-344q3 -66 44 -109.5t105 -43.5q33 0 74 22t65 56z" />
<glyph unicode="&#x178;" horiz-adv-x="581" d="M166 793q0 32 9 45.5t40 13.5q23 0 34.5 -9t13 -19t1.5 -31q0 -32 -10 -45t-39 -13q-31 0 -40 13t-9 45zM309 793q0 32 9 45.5t40 13.5q23 0 34.5 -9t13 -19t1.5 -31q0 -32 -10.5 -45t-38.5 -13q-31 0 -40 13t-9 45zM290 409l193 302h110l-255 -397v-314h-94v315 l-255 396h112z" />
<glyph unicode="&#x2c6;" d="M173 694h-76l123 148h61l111 -145h-73l-71 71z" />
<glyph unicode="&#x2dc;" horiz-adv-x="445" d="M288 798h62q-18 -100 -83 -100q-18 0 -51 14.5t-45 14.5q-19 0 -27 -29h-60q16 100 83 100q17 0 49 -14t47 -14q11 0 16.5 6.5t8.5 21.5z" />
<glyph unicode="&#x2000;" horiz-adv-x="452" />
<glyph unicode="&#x2001;" horiz-adv-x="905" />
<glyph unicode="&#x2002;" horiz-adv-x="452" />
<glyph unicode="&#x2003;" horiz-adv-x="905" />
<glyph unicode="&#x2004;" horiz-adv-x="301" />
<glyph unicode="&#x2005;" horiz-adv-x="226" />
<glyph unicode="&#x2006;" horiz-adv-x="150" />
<glyph unicode="&#x2007;" horiz-adv-x="150" />
<glyph unicode="&#x2008;" horiz-adv-x="113" />
<glyph unicode="&#x2009;" horiz-adv-x="181" />
<glyph unicode="&#x200a;" horiz-adv-x="50" />
<glyph unicode="&#x2010;" horiz-adv-x="298" d="M19 234v85h260v-85h-260z" />
<glyph unicode="&#x2011;" horiz-adv-x="298" d="M19 234v85h260v-85h-260z" />
<glyph unicode="&#x2013;" horiz-adv-x="502" d="M-6 235v87h513v-87h-513z" />
<glyph unicode="&#x2014;" horiz-adv-x="926" d="M5 235v87h914v-87h-914z" />
<glyph unicode="&#x2018;" horiz-adv-x="211" d="M86 527h-21q-39 0 -39 42q0 1 7 39q6 20 25 69.5t26 64.5q8 16 17 19.5t26 3.5q45 0 29 -40q-24 -83 -24 -132q0 -38 -11.5 -52t-34.5 -14z" />
<glyph unicode="&#x2019;" horiz-adv-x="202" d="M104 750h21q39 0 39 -41q0 -1 -7 -40q-23 -73 -51 -133q-8 -16 -17 -20t-26 -4q-45 0 -29 40q24 83 24 132q0 38 11.5 52t34.5 14z" />
<glyph unicode="&#x201a;" horiz-adv-x="271" d="M133 113h21q39 0 39 -42q0 -8 -3.5 -23.5t-3.5 -16.5q-25 -81 -51 -133q-8 -16 -17 -20t-26 -4q-45 0 -29 41q24 83 24 131q0 38 11.5 52.5t34.5 14.5z" />
<glyph unicode="&#x201c;" horiz-adv-x="335" d="M227 527h-21q-39 0 -39 42q0 1 7 39q6 20 25 69.5t26 64.5q8 16 17 19.5t26 3.5q45 0 29 -40q-24 -89 -24 -132q0 -38 -11.5 -52t-34.5 -14zM89 527h-21q-39 0 -39 42q0 1 7 39q6 20 25 69.5t26 64.5q8 16 17 19.5t26 3.5q45 0 29 -40q-24 -83 -24 -132q0 -38 -11.5 -52 t-34.5 -14z" />
<glyph unicode="&#x201d;" horiz-adv-x="342" d="M107 750h21q39 0 39 -41q0 -1 -7 -40q-23 -73 -51 -133q-8 -16 -17 -20t-26 -4q-45 0 -29 40q24 83 24 132q0 38 11.5 52t34.5 14zM248 750h21q39 0 39 -41q0 -1 -7 -40q-23 -73 -51 -133q-8 -16 -17 -20t-26 -4q-45 0 -29 40q24 83 24 132q0 38 11.5 52t34.5 14z" />
<glyph unicode="&#x201e;" horiz-adv-x="408" d="M136 113h21q39 0 39 -42q0 -8 -3.5 -23.5t-3.5 -16.5q-25 -81 -51 -133q-8 -16 -17 -20t-26 -4q-45 0 -29 41q24 83 24 131q0 38 11.5 52.5t34.5 14.5zM281 113h21q39 0 39 -42q0 -8 -3.5 -23.5t-3.5 -16.5q-25 -81 -51 -133q-8 -16 -17 -20t-26 -4q-45 0 -29 41 q24 83 24 131q0 38 11.5 52.5t34.5 14.5z" />
<glyph unicode="&#x2022;" d="M264 447q74 0 114 -43.5t40 -115.5q0 -71 -40 -114t-107 -43t-110.5 42t-43.5 115q0 67 41 113t106 46z" />
<glyph unicode="&#x2026;" horiz-adv-x="532" d="M443 119q35 0 45.5 -11.5t10.5 -48.5t-12 -49t-44 -12q-36 0 -46 11.5t-10 49.5q0 37 11.5 48.5t44.5 11.5zM265 119q35 0 45.5 -11.5t10.5 -48.5t-12 -49t-44 -12q-36 0 -46 11.5t-10 49.5q0 37 11.5 48.5t44.5 11.5zM88 119q35 0 45.5 -11.5t10.5 -48.5t-12 -49 t-44 -12q-36 0 -46 11.5t-10 49.5q0 37 11.5 48.5t44.5 11.5z" />
<glyph unicode="&#x202f;" horiz-adv-x="181" />
<glyph unicode="&#x2039;" horiz-adv-x="323" d="M277 469l-148 -195l148 -195h-100l-154 192l154 198h100z" />
<glyph unicode="&#x203a;" horiz-adv-x="355" d="M39 79l146 195l-145 199h98l152 -197l-152 -197h-99z" />
<glyph unicode="&#x205f;" horiz-adv-x="226" />
<glyph unicode="&#x20ac;" horiz-adv-x="644" d="M51 275h-53v68h46v36h-46v73h57q26 120 120 194.5t218 74.5q134 0 220 -92l-27 -95q-92 99 -196 99q-85 0 -149 -49.5t-87 -131.5h356v-73h-369v-36h371v-68h-363q19 -89 85 -142.5t158 -53.5q116 0 198 99l31 -94q-93 -93 -224 -93q-133 0 -228.5 77.5t-117.5 206.5z " />
<glyph unicode="&#x2122;" horiz-adv-x="651" d="M267 712v-66h-77v-224h-71v224h-85v66h233zM488 712h87v-290h-70v143l-55 -143h-49l-52 135v-135h-68v290h84l63 -161z" />
</font>
</defs>
</svg>
