<?xml version="1.0" standalone="no"?>
<!DOCTYPE svg PUBLIC "-//W3C//DTD SVG 1.1//EN" "http://www.w3.org/Graphics/SVG/1.1/DTD/svg11.dtd" >
<svg xmlns="http://www.w3.org/2000/svg">
<metadata>
This is a custom SVG webfont generated by Fontspring.
Designer    : Robbie de Villiers
Foundry     : Wilton Foundry
Foundry URL : wiltonfoundry.com
</metadata>
<defs>
<font id="webfont" horiz-adv-x="520" >
<font-face units-per-em="1000" ascent="800" descent="-200" />
<missing-glyph horiz-adv-x="386" />
<glyph unicode=" "  horiz-adv-x="386" />
<glyph unicode="&#x09;" horiz-adv-x="386" />
<glyph unicode="&#xa0;" horiz-adv-x="386" />
<glyph unicode="!" horiz-adv-x="283" d="M110 53q11 48 58 48q53 0 39 -52q-9 -49 -56 -49q-27 0 -36.5 13t-4.5 40zM261 712h77l-45 -221l-74 -317h-66l59 321z" />
<glyph unicode="&#x22;" horiz-adv-x="369" d="M374 712h77l-28 -121l-27 -110h-66l19 115zM251 712h77l-27 -121l-27 -110h-67l20 115z" />
<glyph unicode="#" horiz-adv-x="581" d="M344 433l-57 -149h125l55 149h-123zM89 216l14 68h113l56 149h-112l15 68h124l78 211h70l-78 -211h126l77 211h70l-77 -211h94l-15 -68h-106l-55 -149h104l-14 -68h-115l-81 -216h-70l80 216h-125l-81 -216h-70l80 216h-102z" />
<glyph unicode="$" horiz-adv-x="562" d="M297 -105h-67l20 96q-54 4 -103.5 32.5t-72.5 69.5l48 63q51 -96 159 -96q63 0 124 45t61 116q0 34 -27.5 56.5t-79.5 46.5q-89 40 -116 60q-59 43 -59 107q0 85 66 148t152 72l15 66h68l-15 -64q38 -4 81 -25.5t60 -45.5l-43 -68q-50 70 -141 70q-65 0 -115.5 -39 t-50.5 -96q0 -21 10.5 -38.5t32.5 -32t39 -23.5t47 -22q81 -37 118 -70t37 -93q0 -87 -67 -153.5t-159 -81.5z" />
<glyph unicode="%" horiz-adv-x="848" d="M676 275q-49 0 -87.5 -41.5t-38.5 -96.5q0 -35 20.5 -56t54.5 -21q49 0 86.5 40.5t37.5 98.5q0 34 -19.5 55t-53.5 21zM372 652q-50 0 -87.5 -40.5t-37.5 -96.5q0 -35 20 -56.5t55 -21.5q48 0 85 40t37 98q0 34 -19.5 55.5t-52.5 21.5zM156 -13l603 735h77l-604 -735h-76 zM684 339q62 0 98 -37t36 -96q0 -82 -61.5 -147t-141.5 -65q-63 0 -99 35.5t-36 95.5q0 88 60.5 151t143.5 63zM380 718q62 0 98 -37.5t36 -97.5q0 -82 -62 -147.5t-142 -65.5q-63 0 -98.5 36.5t-35.5 96.5q0 87 60.5 151t143.5 64z" />
<glyph unicode="&#x26;" horiz-adv-x="826" d="M826 422l50 -45q-29 -33 -73 -52t-87 -19q-24 0 -44 3q-45 -98 -118 -170q7 -10 34.5 -59t47.5 -80h-90l-53 88q-117 -98 -244 -98q-79 0 -128 46.5t-49 115.5q0 76 60 142.5t161 109.5q-39 76 -39 133q0 64 52 122.5t142 58.5q56 0 95.5 -41t39.5 -96q0 -68 -48.5 -115 t-133.5 -88l114 -179q51 52 86 128q-26 6 -39 6t-38 -7l-17 66q33 8 55 8q31 0 77.5 -13.5t76.5 -13.5q29 0 60 13.5t50 35.5zM260 58q92 0 196 88q-93 141 -130 202q-73 -31 -123 -80t-50 -112q0 -44 30 -71t77 -27zM440 650q-44 0 -77 -31t-33 -76q0 -46 34 -105 q74 30 109 63.5t35 79.5q0 30 -19 49.5t-49 19.5z" />
<glyph unicode="'" horiz-adv-x="273" d="M278 712h17q28 0 29.5 -18t-8.5 -40v-2.5t-1 -2.5l1 1q-22 -80 -45 -145h1q-5 -17 -10 -20t-24 -3q-22 0 -25.5 7t2.5 21v-1q16 85 22 145q4 34 13.5 46t27.5 12z" />
<glyph unicode="(" horiz-adv-x="288" d="M242 -146l-70 -6q-70 121 -70 307q0 140 70.5 302t185.5 279l71 -6q-113 -118 -184 -272.5t-71 -301.5q0 -182 68 -302z" />
<glyph unicode=")" horiz-adv-x="283" d="M240 431q0 171 -68 299l70 6q71 -125 71 -303q0 -142 -70 -304t-187 -281l-72 6q117 125 186.5 275.5t69.5 301.5z" />
<glyph unicode="*" horiz-adv-x="525" d="M306 337l35 134l-127 -72l-24 66l133 61l-107 62l48 62l101 -74l21 137h74l-36 -135l129 73l23 -66l-133 -61l108 -62l-48 -62l-102 74l-21 -137h-74z" />
<glyph unicode="+" horiz-adv-x="624" d="M115 317h222l48 220h74l-46 -220h222l-16 -74h-222l-48 -223h-75l48 223h-223z" />
<glyph unicode="," horiz-adv-x="254" d="M148 96h23q15 0 22 -6.5t4 -20.5t-6 -22t-10 -23q-32 -64 -81 -136v1q-11 -18 -37 -18q-36 0 -16 30l-1 -1q42 84 55 140q11 56 47 56z" />
<glyph unicode="-" horiz-adv-x="298" d="M74 234l16 74h248l-16 -74h-248z" />
<glyph unicode="." horiz-adv-x="257" d="M150 103q30 0 37 -10.5t1 -43.5q-6 -28 -18.5 -39.5t-38.5 -11.5q-33 0 -39.5 11t0.5 44q7 31 18.5 40.5t39.5 9.5z" />
<glyph unicode="/" horiz-adv-x="350" d="M55 -32h-78l471 766h79z" />
<glyph unicode="0" horiz-adv-x="547" d="M417 649q-54 0 -98 -35t-70 -85.5t-44 -111.5t-25 -109t-7 -81q0 -165 117 -165q66 0 117 51t76.5 124.5t37.5 137t12 107.5q0 80 -29.5 123.5t-86.5 43.5zM278 -8q-96 0 -140 63.5t-44 165.5q0 67 20.5 148.5t59 161.5t106 134t150.5 54q96 0 139 -63t43 -164 q0 -56 -11.5 -120.5t-38 -132.5t-64 -122.5t-95 -89.5t-125.5 -35z" />
<glyph unicode="1" horiz-adv-x="365" d="M347 712h46l-152 -712h-79l133 621l-85 -35l-16 62z" />
<glyph unicode="2" horiz-adv-x="551" d="M490 0h-441l8 48l93 88l114 102l94 83q151 136 151 227q0 46 -30 73.5t-79 27.5q-50 0 -102.5 -29t-86.5 -78l-31 63q37 51 105 82.5t128 31.5q79 0 127.5 -42.5t48.5 -113.5q0 -58 -33 -118t-69 -97t-89 -83l-69.5 -59l-85.5 -74.5l-65 -60.5h326z" />
<glyph unicode="3" horiz-adv-x="551" d="M246 -8q-65 0 -113.5 25.5t-71.5 60.5l53 70q14 -42 54.5 -64t88.5 -22q83 0 140 49.5t57 126.5q0 98 -144 98h-49l14 71h33q81 0 144.5 42t63.5 106q0 41 -32 67.5t-86 26.5q-44 0 -91 -21.5t-80 -63.5l-15 77q24 29 83.5 53.5t117.5 24.5q81 0 132 -37.5t51 -106.5 q0 -70 -39 -122t-106 -79q82 -35 82 -128q0 -79 -43.5 -138.5t-107.5 -87.5t-136 -28z" />
<glyph unicode="4" horiz-adv-x="552" d="M400 247l67 322l-295 -322h228zM62 230l446 482h69l-101 -465h102l-13 -70h-104l-37 -177h-75l36 177h-335z" />
<glyph unicode="5" horiz-adv-x="551" d="M241 -8q-52 0 -103 21t-72 58l43 68q19 -34 61 -55.5t82 -21.5q83 0 151 63t68 149q0 56 -37 87.5t-104 31.5q-52 0 -115 -40l-44 6l105 353h339l-13 -71h-270l-57 -192q37 14 82 14q88 0 140 -47.5t52 -127.5q0 -130 -92 -213t-216 -83z" />
<glyph unicode="6" horiz-adv-x="567" d="M370 381q-64 0 -122 -39t-71 -100q-3 -27 -3 -49q0 -131 121 -131q77 0 137 62.5t60 139.5q0 54 -32 85.5t-90 31.5zM284 -8q-97 0 -142 56t-45 146q0 192 149 366q61 71 132.5 113.5t145.5 42.5q25 0 45 -4l-1 -70q-31 7 -51 7q-107 0 -211 -121q-45 -53 -83 -131 q73 55 162 55q86 0 135.5 -50.5t49.5 -130.5q0 -116 -88.5 -197.5t-197.5 -81.5z" />
<glyph unicode="7" horiz-adv-x="552" d="M201 712h468l-9 -44l-480 -682l-79 14l455 641h-368z" />
<glyph unicode="8" horiz-adv-x="551" d="M418 648q-64 0 -112.5 -39.5t-48.5 -98.5q0 -39 28.5 -68t76.5 -39q60 9 111.5 56t51.5 100q0 41 -30.5 65t-76.5 24zM351 335q-88 -21 -137.5 -66t-49.5 -106q0 -47 35.5 -74t90.5 -27q69 0 126 43.5t57 112.5q0 41 -32 71.5t-90 45.5zM278 -8q-84 0 -139 41.5 t-55 114.5q0 74 45 132t126 91q-76 53 -76 132q0 96 79.5 156t174.5 60q77 0 124.5 -39t47.5 -107q0 -132 -146 -203q93 -50 93 -139q0 -107 -85 -173t-189 -66z" />
<glyph unicode="9" horiz-adv-x="551" d="M408 649q-74 0 -135.5 -63t-61.5 -140q0 -53 32 -84.5t90 -31.5q74 0 139 51.5t65 139.5q0 53 -34 90.5t-95 37.5zM192 6q-39 0 -68 5l9 73q40 -8 62 -8q115 0 212 111q60 68 88 139q-85 -66 -174 -66q-86 0 -137 48.5t-51 128.5q0 117 87 199.5t200 82.5q191 0 191 -195 q0 -104 -41 -203.5t-109 -174.5q-59 -65 -129.5 -102.5t-139.5 -37.5z" />
<glyph unicode=":" horiz-adv-x="270" d="M153 104q31 0 38.5 -10.5t0.5 -43.5q-7 -30 -19.5 -40.5t-38.5 -10.5q-32 0 -39 11.5t1 42.5q7 30 19 40.5t38 10.5zM231 472q31 0 38.5 -10.5t0.5 -44.5q-7 -30 -19 -40t-38 -10q-33 0 -40 10.5t1 43.5q7 32 18 41.5t39 9.5z" />
<glyph unicode=";" horiz-adv-x="284" d="M238 472q31 0 38.5 -10.5t0.5 -44.5q-7 -30 -19 -40t-38 -10q-32 0 -38.5 10t-0.5 44q7 32 18 41.5t39 9.5zM149 96h23q15 0 22 -6.5t4 -20.5t-6 -22t-10 -23q-24 -48 -80 -136v1q-12 -18 -38 -18q-35 0 -16 30l-1 -1q40 80 56 140q10 56 46 56z" />
<glyph unicode="&#x3c;" horiz-adv-x="609" d="M668 466l-465 -189l385 -189l-16 -73l-470 233l13 62l570 233z" />
<glyph unicode="=" horiz-adv-x="628" d="M639 339h-520l17 74h520zM597 143h-520l17 74h520z" />
<glyph unicode="&#x3e;" horiz-adv-x="626" d="M50 14l17 76l463 189l-383 189l16 74l470 -234l-13 -62z" />
<glyph unicode="?" horiz-adv-x="445" d="M354 722q69 -3 107.5 -42t38.5 -96q0 -60 -25 -92t-154 -143q-48 -42 -48 -91q0 -23 10 -53l-67 -36q-22 51 -22 86q0 74 89 148l35 27.5t39.5 32.5t30.5 31t26 39.5t8 41.5q0 35 -21.5 56t-59.5 21q-33 0 -68 -20t-55 -49l-30 55q22 34 70.5 59t95.5 25zM216 104 q31 0 38.5 -10.5t0.5 -43.5q-7 -30 -19 -40.5t-38 -10.5q-33 0 -40 11.5t2 42.5q7 30 18.5 40.5t37.5 10.5z" />
<glyph unicode="@" horiz-adv-x="799" d="M533 495q-67 0 -129 -76.5t-62 -145.5q0 -51 52 -51q60 0 108.5 48.5t82.5 132.5q11 27 11 45q0 47 -63 47zM415 -41q-138 0 -228.5 83.5t-90.5 217.5q0 112 63.5 219t173 175t231.5 68q125 0 207.5 -71.5t82.5 -182.5q0 -124 -82 -219t-177 -95q-32 0 -52 16.5t-20 45.5 q-58 -62 -144 -62q-48 0 -79 33.5t-31 89.5q0 94 87.5 189.5t185.5 95.5q58 0 92.5 -26t34.5 -68q0 -30 -10 -60.5t-33 -78l-26 -53.5q-11 -23 -11 -41q0 -21 18 -21q61 0 118.5 75.5t57.5 167.5q0 85 -64 141.5t-162 56.5q-93 0 -183 -52.5t-148 -143t-58 -190.5 q0 -104 72 -173.5t177 -69.5q82 0 165.5 36.5t135.5 97.5l30 -54q-51 -63 -147 -105t-186 -42z" />
<glyph unicode="A" horiz-adv-x="655" d="M260 285h249l-58 319zM510 718l129 -718h-81l-39 214h-304l-128 -214h-83l438 718h68z" />
<glyph unicode="B" horiz-adv-x="580" d="M295 641l-50 -238h88q86 0 136 39t50 114q0 85 -131 85h-93zM332 332h-103l-55 -261h108q94 0 151 43.5t57 120.5q0 97 -158 97zM272 0h-193l152 712h175q195 0 195 -137q0 -65 -34 -119.5t-92 -80.5q95 -34 95 -133q0 -113 -83.5 -177.5t-214.5 -64.5z" />
<glyph unicode="C" horiz-adv-x="672" d="M400 -10q-134 0 -210.5 75.5t-76.5 200.5q0 117 60 222.5t160.5 169t214.5 63.5q138 0 203 -89l-41 -72q-64 90 -176 90q-139 0 -239.5 -113t-100.5 -261q0 -96 56 -155.5t157 -59.5q125 0 221 95l4 -74q-101 -92 -232 -92z" />
<glyph unicode="D" horiz-adv-x="679" d="M408 641h-113l-122 -570h92q158 0 262 101t104 269q0 97 -57 148.5t-166 51.5zM256 0h-176l152 712h192q136 0 212.5 -68t76.5 -190q0 -200 -129 -327t-328 -127z" />
<glyph unicode="E" d="M483 71l-14 -71h-387l151 712h376l-13 -71h-299l-51 -236h269l-13 -71h-271l-55 -263h307z" />
<glyph unicode="F" horiz-adv-x="460" d="M228 336l-72 -336h-79l152 712h359l-14 -71h-281l-50 -233h249l-16 -72h-248z" />
<glyph unicode="G" horiz-adv-x="731" d="M402 -10q-134 0 -210 78t-76 202q0 89 45.5 188.5t116.5 160.5q120 102 271 102q76 0 138 -27t89 -77l-47 -67q-68 100 -191 100q-124 0 -223 -94q-55 -52 -86.5 -124t-31.5 -154q0 -98 58.5 -157.5t161.5 -59.5q60 0 118 26t84 76l26 130h-180l17 70h259l-51 -234 q-108 -139 -288 -139z" />
<glyph unicode="H" horiz-adv-x="700" d="M84 0l151 712h78l-65 -307h375l65 307h79l-151 -712h-79l71 334h-375l-71 -334h-78z" />
<glyph unicode="I" horiz-adv-x="220" d="M305 712l-152 -712h-79l152 712h79z" />
<glyph unicode="J" horiz-adv-x="301" d="M167 101l130 611h79l-132 -622q-39 -185 -197 -185q-29 0 -58.5 11.5t-44.5 32.5l49 69q10 -19 29 -30t35 -11q83 0 110 124z" />
<glyph unicode="K" horiz-adv-x="592" d="M226 291l-62 -291h-79l152 712h79l-68 -317l373 317h108l-397 -332l268 -380h-100l-228 330z" />
<glyph unicode="L" horiz-adv-x="438" d="M227 712h78l-136 -641h274l-14 -71h-354z" />
<glyph unicode="M" horiz-adv-x="860" d="M468 180l350 533h86l-117 -713h-78l98 580l-341 -527h-49l-121 528l-147 -581h-79l185 713h88z" />
<glyph unicode="N" horiz-adv-x="740" d="M606 135l123 577h79l-152 -712h-70l-303 581l-124 -581h-79l152 712h77z" />
<glyph unicode="O" horiz-adv-x="759" d="M518 650q-87 0 -163.5 -58t-119 -144t-42.5 -173q0 -93 51 -153.5t145 -60.5q89 0 165 55.5t118 141t42 177.5q0 93 -51.5 154t-144.5 61zM377 -10q-127 0 -196 75t-69 197q0 120 54.5 225t151 169.5t211.5 64.5q128 0 197 -75t69 -197q0 -119 -55 -224.5t-152 -170 t-211 -64.5z" />
<glyph unicode="P" d="M296 641l-54 -258h89q87 0 141.5 46.5t54.5 124.5q0 87 -122 87h-109zM332 312h-105l-67 -312h-79l152 712h185q91 0 139.5 -39t48.5 -111q0 -112 -78 -181t-196 -69z" />
<glyph unicode="Q" horiz-adv-x="759" d="M377 -10q-127 0 -196 75t-69 197q0 120 54.5 225t151 169.5t211.5 64.5q128 0 197 -75t69 -197q0 -124 -60 -233t-160 -170q45 -61 94 -61l8 -15l-30 -47q-65 0 -137 91q-67 -24 -133 -24zM518 650q-87 0 -163.5 -58t-119 -144t-42.5 -173q0 -93 51 -153.5t145 -60.5 q39 0 78 11l-34 47l61 44l41 -60q80 50 129.5 142t49.5 190q0 93 -51.5 154t-144.5 61z" />
<glyph unicode="R" horiz-adv-x="561" d="M296 641l-52 -245h88q81 0 135 43.5t54 116.5q0 85 -128 85h-97zM301 325h-72l-69 -325h-79l152 712h178q93 0 142 -37t49 -107q0 -81 -54.5 -143.5t-133.5 -80.5q11 -12 20 -32.5t30 -80.5l82 -231h-85l-73 210q-2 5 -7.5 22.5t-8 24t-8.5 20.5t-11 20t-13 14t-17.5 11 t-21.5 3z" />
<glyph unicode="S" horiz-adv-x="509" d="M245 -10q-139 0 -188 96l52 75q17 -45 58 -72.5t88 -27.5q68 0 123 48.5t55 120.5q0 31 -26 52.5t-78 46.5l-39.5 20l-36 19.5t-37 25t-25.5 27.5t-21 36t-6 41q0 94 79 158.5t173 64.5q55 0 101.5 -22.5t64.5 -56.5l-50 -65q-37 73 -126 73q-62 0 -111 -39.5t-49 -96.5 q0 -27 21 -50t42.5 -35t60.5 -30q72 -33 107.5 -69.5t35.5 -94.5q0 -106 -82 -175.5t-186 -69.5z" />
<glyph unicode="T" horiz-adv-x="515" d="M436 641l-137 -641h-78l136 641h-210l14 71h499l-14 -71h-210z" />
<glyph unicode="U" horiz-adv-x="679" d="M583 260l96 452h79l-98 -459q-25 -119 -113 -193q-85 -70 -205 -70q-123 0 -180 71q-39 50 -39 122q0 31 8 71l98 458h79l-98 -458q-7 -31 -7 -58q0 -65 38.5 -100t111.5 -35q87 0 148 53.5t82 145.5z" />
<glyph unicode="V" horiz-adv-x="583" d="M321 126l338 586h84l-421 -719h-59l-111 719h82z" />
<glyph unicode="W" horiz-adv-x="980" d="M738 144l300 568h79l-378 -712h-59l-70 572l-314 -572h-61l-72 712h79l56 -566l312 566h60z" />
<glyph unicode="X" horiz-adv-x="586" d="M387 433l250 279h95l-310 -345l173 -367h-92l-141 304l-271 -304h-95l331 370l-161 342h91z" />
<glyph unicode="Y" horiz-adv-x="581" d="M374 391l271 321h93l-339 -397l-67 -315h-78l68 320l-169 392h90z" />
<glyph unicode="Z" horiz-adv-x="551" d="M142 71h398l-13 -71h-508l12 53l520 588h-372l13 71h480l-9 -52z" />
<glyph unicode="[" horiz-adv-x="284" d="M31 -152l190 893h205l-12 -63h-133l-164 -766h133l-13 -64h-206z" />
<glyph unicode="\" horiz-adv-x="354" d="M370 -8h-75l-155 742h75z" />
<glyph unicode="]" horiz-adv-x="300" d="M382 719l-190 -892h-203l9 63h134l164 766h-133l13 63h206z" />
<glyph unicode="^" horiz-adv-x="595" d="M441 622l-244 -319h-80l311 410h59l136 -408h-75z" />
<glyph unicode="_" horiz-adv-x="500" d="M492 -62l-15 -70h-511l14 70h512z" />
<glyph unicode="`" horiz-adv-x="209" d="M257 701l60 -129h-61l-96 129h97z" />
<glyph unicode="a" horiz-adv-x="540" d="M343 438q-79 0 -140 -75t-61 -182q0 -60 30 -93t87 -33q58 0 108 40.5t62 98.5l23 110q4 16 4 31q0 48 -32.5 75.5t-80.5 27.5zM240 -10q-86 0 -130.5 49.5t-44.5 131.5q0 137 86.5 235.5t198.5 98.5q92 0 137 -57l20 52h62l-94 -436q0 -38 8 -64h-65q-2 12 -5 52 q-57 -62 -173 -62z" />
<glyph unicode="b" horiz-adv-x="549" d="M200 277l-15 -82q-15 -54 18 -96.5t90 -42.5q60 0 107.5 44.5t70 103t22.5 113.5t-26 89.5t-82 34.5q-59 0 -114 -48t-71 -116zM303 749l-66 -309q77 66 164 66q84 0 127.5 -50.5t43.5 -130.5q0 -129 -80.5 -232t-200.5 -103q-55 0 -87.5 15t-56.5 48l-19 -53h-59 l160 749h74z" />
<glyph unicode="c" horiz-adv-x="452" d="M435 122l1 -76q-73 -56 -164 -56q-94 0 -144 51t-50 138q0 135 87.5 231t214.5 96q88 0 138 -60l-33 -68q-45 61 -113 61q-86 0 -151 -72t-65 -174q0 -61 33.5 -99t96.5 -38q31 0 75 18.5t74 47.5z" />
<glyph unicode="d" horiz-adv-x="540" d="M360 439q-61 0 -108.5 -41.5t-69.5 -98.5t-22 -113q0 -61 30.5 -95.5t85.5 -34.5q58 0 109 46.5t62 105.5l21 96q12 56 -20.5 95.5t-87.5 39.5zM425 0l3 54q-65 -64 -166 -64q-89 0 -134 50t-45 134q0 126 81 229t198 103q96 0 136 -59l65 302h75l-159 -749h-54z" />
<glyph unicode="e" horiz-adv-x="500" d="M354 440q-59 0 -107.5 -44t-73.5 -114q101 -8 123 -8q26 0 51 4.5t50.5 14t41 29t15.5 46.5q0 35 -28 53.5t-72 18.5zM443 130l24 -59q-33 -36 -88.5 -58t-110.5 -22q-94 0 -141 51t-47 135q0 78 34.5 153t100.5 126t145 51q69 0 116.5 -34.5t47.5 -96.5q0 -45 -19 -78 t-44.5 -50t-61 -27t-59.5 -12.5t-49 -2.5q-73 0 -134 9q-4 -28 -4 -39q0 -55 32 -87t99 -32q36 0 82.5 20.5t76.5 52.5z" />
<glyph unicode="f" horiz-adv-x="281" d="M363 430h-104l-91 -430h-75l91 430h-81l14 65h81l21 93q38 167 175 167q32 0 65 -16l-14 -65q-35 15 -60 15q-71 0 -93 -103l-20 -91h104z" />
<glyph unicode="g" horiz-adv-x="541" d="M511 500h69l-90 -427q-9 -47 -15.5 -73.5t-18 -61.5t-24.5 -54t-34.5 -41t-49 -32.5t-66 -17.5t-87.5 -7q-83 0 -166 56l46 52q63 -43 142 -43q63 0 111 27t63 85l27 101q-56 -71 -153 -71q-89 0 -138.5 47t-49.5 136q0 76 34 151t101.5 128t149.5 53q90 0 135 -54z M266 57q60 0 110.5 41.5t64.5 98.5l23 110q14 56 -18.5 95t-89.5 39q-58 0 -105.5 -39.5t-71.5 -97t-24 -116.5q0 -56 27 -93.5t84 -37.5z" />
<glyph unicode="h" horiz-adv-x="522" d="M521 313l-66 -313h-74l65 311q6 29 6 52q0 76 -77 76q-57 0 -106.5 -42.5t-61.5 -97.5l-64 -299h-74l159 749h75l-66 -305q63 62 153 62q138 0 138 -127q0 -34 -7 -66z" />
<glyph unicode="i" horiz-adv-x="200" d="M206 655q6 27 15.5 38t33.5 11q29 0 34.5 -15t-2.5 -38q-5 -27 -15.5 -37.5t-33.5 -10.5q-28 0 -34 13.5t2 38.5zM173 500h76l-93 -429q-6 -29 7 -71h-69q-20 33 -11 74z" />
<glyph unicode="j" horiz-adv-x="210" d="M204 655q5 26 15 37.5t34 11.5q29 0 34.5 -15t-2.5 -38q-5 -27 -15.5 -37.5t-33.5 -10.5q-28 0 -34 13.5t2 38.5zM58 -50l117 550h75l-118 -554q-17 -82 -61 -122.5t-124 -36.5l14 71q45 -3 65 16.5t32 75.5z" />
<glyph unicode="k" horiz-adv-x="472" d="M388 0l-152 218l20 36q92 0 145 32.5t53 96.5q0 56 -68 56q-60 0 -114 -46t-69 -114l-59 -279h-74l159 749h75l-66 -305q63 62 153 62q65 0 100.5 -33.5t35.5 -87.5q0 -45 -16.5 -80t-46.5 -56t-63.5 -33t-73.5 -17l146 -199h-85z" />
<glyph unicode="l" horiz-adv-x="211" d="M224 749h76l-144 -678q-6 -29 7 -71h-69q-20 33 -11 74z" />
<glyph unicode="m" horiz-adv-x="799" d="M792 320l-68 -320h-74l67 322q24 117 -62 117q-52 0 -97.5 -37.5t-57.5 -96.5l-65 -305h-73l67 322q24 117 -62 117q-51 0 -97.5 -40t-58.5 -97l-64 -302h-75l107 500h64l-7 -57q56 63 146 63q47 0 76 -20.5t39 -52.5q31 35 76 54t90 19q87 0 117 -51t12 -135z" />
<glyph unicode="n" d="M521 313l-66 -313h-74l65 311q6 27 6 47q0 84 -84 84q-54 0 -101 -42t-60 -101l-64 -299h-74l106 500h69l-10 -56q64 64 150 64q70 0 106.5 -34t36.5 -100q0 -36 -6 -61z" />
<glyph unicode="o" horiz-adv-x="542" d="M365 439q-86 0 -147.5 -78t-61.5 -169q0 -59 32 -97.5t91 -38.5q88 0 148 77t60 170q0 60 -31 98t-91 38zM268 -10q-91 0 -140 52.5t-49 138.5q0 130 86 227.5t209 97.5q91 0 140.5 -53t49.5 -140q0 -132 -86.5 -227.5t-209.5 -95.5z" />
<glyph unicode="p" horiz-adv-x="542" d="M204 288l-20 -92q-3 -14 -3 -26q0 -46 31.5 -80t76.5 -34q88 0 143.5 80t55.5 169q0 59 -28.5 96t-84.5 37t-107 -44t-64 -106zM154 50l-56 -265h-75l152 715h65l-7 -56q68 61 156 61t132.5 -50.5t44.5 -134.5q0 -80 -34.5 -155.5t-100 -125t-144.5 -49.5q-94 0 -133 60z " />
<glyph unicode="q" horiz-adv-x="539" d="M444 194l23 110q4 16 4 31q0 48 -32.5 75.5t-80.5 27.5q-89 0 -145 -83.5t-56 -173.5q0 -60 30 -93t87 -33q56 0 103.5 42t67.5 98zM356 -215l57 266q-35 -35 -71 -48t-87 -13q-86 0 -130.5 49.5t-44.5 131.5q0 80 36 156.5t102.5 127t146.5 50.5q90 0 135 -54l15 49h69 l-153 -715h-75z" />
<glyph unicode="r" horiz-adv-x="321" d="M199 268l-56 -268h-75l107 500h68l-11 -61q57 67 131 67q32 0 67 -24l-49 -78q0 9 -10.5 21.5t-18.5 12.5q-54 0 -96 -55t-57 -115z" />
<glyph unicode="s" horiz-adv-x="393" d="M190 -11q-53 0 -95 19.5t-58 52.5l40 62q37 -67 118 -67q47 0 83 28t36 65q0 27 -20.5 44.5t-68.5 35.5q-110 42 -110 126q0 70 54 110.5t124 40.5q47 0 85.5 -17.5t55.5 -44.5l-44 -57q-41 53 -97 53q-39 0 -71.5 -20t-32.5 -54q0 -45 85 -76q57 -22 87 -51t30 -79 q0 -70 -60.5 -120.5t-140.5 -50.5z" />
<glyph unicode="t" horiz-adv-x="301" d="M255 429l-70 -328q-8 -45 28 -45q25 0 66 18l-15 -69q-46 -13 -78 -13q-81 0 -81 73q0 11 4 33l70 331h-79l14 65h79l30 134l75 10l-31 -144h116l-14 -65h-114z" />
<glyph unicode="u" horiz-adv-x="519" d="M477 500h74l-107 -500h-62l8 51q-60 -61 -154 -61q-92 0 -125 51t-15 138l69 321h74l-67 -314q-12 -56 5.5 -93t71.5 -37q55 0 101 37t58 91z" />
<glyph unicode="v" horiz-adv-x="436" d="M469 500h80l-300 -501h-59l-83 501h77l60 -385z" />
<glyph unicode="w" horiz-adv-x="732" d="M444 500h60l46 -377l212 377h78l-287 -500h-58l-48 376l-208 -376h-61l-70 500h77l48 -377z" />
<glyph unicode="x" horiz-adv-x="468" d="M463 500h90l-228 -237l134 -263h-89l-98 208l-189 -208h-91l248 265l-126 235h88l92 -179z" />
<glyph unicode="y" d="M479 500h73l-106 -507q-25 -119 -90.5 -165t-187.5 -46q-102 0 -165 58l47 55q60 -48 140 -48q63 0 112 27t62 85l21 92q-30 -33 -64 -47t-82 -14q-87 0 -122.5 50.5t-17.5 138.5l69 321h74l-67 -314q-6 -34 -6 -62.5t20.5 -48t62.5 -19.5q54 0 101 39.5t59 91.5z" />
<glyph unicode="z" horiz-adv-x="437" d="M130 434l16 66h381l-8 -44l-383 -390h301l-13 -66h-410l8 44l386 390h-278z" />
<glyph unicode="{" horiz-adv-x="268" d="M61 277l12 61q79 18 98 111l35 166q29 137 156 137h39l-13 -66h-45q-46 0 -59 -70l-35 -161q-26 -107 -105 -149q47 -30 47 -99q0 -30 -6.5 -66t-18 -81t-15.5 -65q-15 -66 27 -66h48l-13 -65h-35q-67 0 -90.5 39t-11.5 101q3 13 15.5 61.5t18.5 82t6 62.5q0 54 -55 67z " />
<glyph unicode="|" horiz-adv-x="242" d="M146 -58h-75l175 819h75z" />
<glyph unicode="}" horiz-adv-x="263" d="M324 338l-12 -61q-78 -18 -99 -111l-35 -166q-29 -136 -155 -136h-38l12 65h45q44 0 59 70l15.5 70.5l19.5 90.5q23 108 104 149q-34 18 -43.5 64.5t2.5 85.5q4 17 15 58t17.5 74t6.5 59q0 36 -31 36h-48l13 66h35q105 0 105 -95q0 -30 -6.5 -66t-17.5 -81t-15 -65 q-20 -92 51 -107z" />
<glyph unicode="~" horiz-adv-x="624" d="M257 272q-47 0 -115 -77l-31 61q29 40 74 66t86 26q27 0 113 -39q72 -32 91 -32q26 0 51.5 17.5t64.5 58.5l31 -59q-28 -39 -72 -66t-90 -27q-20 0 -109 38q-74 33 -94 33z" />
<glyph unicode="&#xa1;" horiz-adv-x="283" d="M295 457q-11 -48 -58 -48q-53 0 -39 52q9 49 56 49q27 0 36.5 -13t4.5 -40zM144 -202h-77l45 221l74 317h66l-59 -321z" />
<glyph unicode="&#xa2;" horiz-adv-x="488" d="M228 117l170 354q-86 -2 -149 -72t-63 -174q0 -73 42 -108zM252 25l-56 -117h-66l65 138q-86 44 -86 164q0 143 91.5 235t224.5 92h4l52 105h67l-58 -121q33 -14 59 -43l-34 -69q-22 31 -57 48l-175 -368q14 -2 23 -2q85 0 160 66l1 -76q-68 -56 -166 -56q-28 0 -49 4z " />
<glyph unicode="&#xa3;" horiz-adv-x="540" d="M340 -5l-188 30q-39 0 -82 -28l-29 64q37 22 85 32q101 24 119 209h-104l13 67h95q2 104 10 158q12 84 80 136t155 52q104 0 140 -85l-63 -45q-19 63 -89 63q-124 0 -149 -146q-6 -88 -6 -133h141l-13 -67q-129 0 -132 2q-10 -79 -28.5 -126t-62.5 -91q87 -21 132 -21 q98 0 159 50l16 -66q-70 -55 -199 -55z" />
<glyph unicode="&#xa5;" horiz-adv-x="560" d="M116 208l14 65h172l9 36l-10 25h-157l13 66h122l-115 313h88l113 -330l259 330h90l-247 -313h116l-13 -66h-155l-24 -31l-8 -30h173l-14 -65h-172l-44 -208h-81l44 208h-173z" />
<glyph unicode="&#xa6;" horiz-adv-x="235" d="M146 -58h-75l70 325h75zM251 436h-75l70 325h75z" />
<glyph unicode="&#xa7;" horiz-adv-x="506" d="M306 415q-39 -15 -66.5 -48t-27.5 -65q0 -20 11.5 -40.5t34.5 -40.5t38 -31.5t41 -28.5q40 17 67 50t27 65q0 28 -22.5 56.5t-44.5 44t-58 38.5zM221 -146q-132 0 -153 94l64 45q20 -73 97 -73q45 0 83 25.5t38 66.5q0 44 -58 87l-73 53q-83 61 -83 131q0 49 32.5 95 t89.5 79q-43 39 -43 89q0 78 59 126.5t142 48.5q121 0 142 -98l-60 -40q-18 72 -89 72q-40 0 -78 -26.5t-38 -65.5q0 -46 59 -87l73 -52q81 -57 81 -135q0 -100 -121 -170q43 -40 43 -91q0 -77 -61.5 -125.5t-145.5 -48.5z" />
<glyph unicode="&#xa8;" horiz-adv-x="367" d="M253 751q5 26 14.5 37t34.5 11q29 0 34.5 -14.5t-2.5 -37.5q-5 -27 -15.5 -38t-33.5 -11q-28 0 -34 14t2 39zM353 751q6 26 15.5 37t33.5 11q29 0 34.5 -14.5t-2.5 -37.5q-5 -27 -15.5 -38t-33.5 -11q-28 0 -34 14t2 39z" />
<glyph unicode="&#xa9;" horiz-adv-x="795" d="M424 136q-78 0 -122 47.5t-44 119.5q0 108 76 187t178 79q66 0 105.5 -39.5t39.5 -107.5l-71 -8q0 42 -23 66.5t-60 24.5q-69 0 -118.5 -56.5t-49.5 -136.5q0 -48 24.5 -79t74.5 -31q42 0 77 26t53 70l68 -8q-33 -73 -89 -113.5t-119 -40.5zM522 639q-132 0 -240.5 -107 t-108.5 -241q0 -93 63 -158.5t161 -65.5q82 0 163.5 50t133.5 130.5t52 164.5q0 95 -62 161t-162 66zM387 1q-129 0 -208.5 81.5t-79.5 200.5q0 108 63.5 206.5t163.5 156.5t205 58q129 0 208 -81.5t79 -203.5q0 -107 -63 -205t-162.5 -155.5t-205.5 -57.5z" />
<glyph unicode="&#xaa;" horiz-adv-x="263" d="M263 600q-26 0 -50.5 -15t-24.5 -39q0 -27 35 -27q23 0 43.5 13.5t30.5 35.5l-1 -2l7 31q-15 3 -40 3zM285 481v18q-32 -22 -71 -22q-34 0 -54 17t-20 44q0 45 37 73.5t92 28.5q21 0 41 -2q7 28 7 33q0 26 -39 26q-37 0 -79 -32l-8 40q15 14 43.5 24t50.5 10q78 0 78 -61 q0 -14 -2 -22q-30 -143 -33 -175h-43z" />
<glyph unicode="&#xab;" horiz-adv-x="471" d="M522 463l-186 -193l103 -188h-76l-111 189l190 192h80zM361 463l-185 -193l103 -188h-76l-112 189l191 192h79z" />
<glyph unicode="&#xad;" horiz-adv-x="298" d="M74 234l16 74h248l-16 -74h-248z" />
<glyph unicode="&#xae;" horiz-adv-x="515" d="M342 578l-13 -61h45q55 0 55 39q0 22 -37 22h-50zM403 670q-83 0 -150.5 -66t-67.5 -149q0 -58 37.5 -98.5t100.5 -40.5q62 0 122 43h-49q-2 5 -11 35.5t-17.5 51t-16.5 23.5h-32l-23 -110h-55l58 266h107q81 0 81 -57q0 -37 -21 -61.5t-53 -33.5q9 -15 15.5 -33 t13.5 -41.5l10 -33.5q88 70 88 166q0 59 -38 99t-99 40zM317 266q-88 0 -135.5 54.5t-47.5 137.5q0 102 86.5 181t187.5 79q88 0 135.5 -54.5t47.5 -137.5q0 -101 -86.5 -180.5t-187.5 -79.5z" />
<glyph unicode="&#xaf;" horiz-adv-x="500" d="M270 712l10 55h289l-10 -55h-289z" />
<glyph unicode="&#xb0;" horiz-adv-x="270" d="M281 677q-23 0 -41.5 -18t-18.5 -41q0 -15 10 -25t26 -10q23 0 41.5 18t18.5 41q0 14 -10.5 24.5t-25.5 10.5zM250 530q-37 0 -60.5 22.5t-23.5 56.5q0 46 37.5 83.5t84.5 37.5q37 0 60 -22.5t23 -57.5q0 -46 -38 -83t-83 -37z" />
<glyph unicode="&#xb1;" horiz-adv-x="621" d="M48 0l13 65h519l-12 -65h-520zM124 366h223l42 195h74l-42 -195h223l-16 -74h-223l-41 -199h-74l41 199h-223z" />
<glyph unicode="&#xb2;" horiz-adv-x="422" d="M410 292h-293l7 34q61 56 193 162q26 21 40.5 34.5t33 41t18.5 51.5q0 27 -18.5 43t-49.5 16q-69 0 -117 -63l-30 37q24 32 67.5 54t87.5 22q54 0 86 -30t32 -76q0 -77 -121 -169q-83 -64 -132 -108h206z" />
<glyph unicode="&#xb3;" horiz-adv-x="415" d="M239 285q-47 0 -80.5 18.5t-39.5 44.5l34 39q10 -28 36.5 -40.5t55.5 -12.5q52 0 87 28t35 72q0 54 -91 54h-36l11 50h23q57 0 93.5 22.5t36.5 62.5q0 22 -20.5 36t-53.5 14q-71 0 -110 -54l-17 48q18 23 56 39t78 16q58 0 91.5 -24.5t33.5 -66.5q0 -79 -82 -117 q45 -22 45 -74q0 -68 -53.5 -111.5t-132.5 -43.5z" />
<glyph unicode="&#xb4;" horiz-adv-x="455" d="M352 700h-68l145 158h104z" />
<glyph unicode="&#xb5;" horiz-adv-x="522" d="M492 500h75l-107 -500h-62l11 57q-59 -63 -145 -63q-77 0 -108 31l-38 -179h-75l140 654h75l-60 -281q-12 -59 -12 -74q0 -85 87 -85q51 0 94 37.5t58 91.5z" />
<glyph unicode="&#xb6;" horiz-adv-x="585" d="M677 650h-42l-167 -783h-77l166 781h-93l-166 -781h-77l98 455q-78 2 -117.5 49t-39.5 119q0 104 77 166t187 62h264z" />
<glyph unicode="&#xb7;" horiz-adv-x="259" d="M197 320q31 0 38 -10.5t1 -44.5q-7 -29 -19.5 -39.5t-38.5 -10.5q-32 0 -39 11.5t1 42.5q7 30 19 40.5t38 10.5z" />
<glyph unicode="&#xb8;" horiz-adv-x="417" d="M77 -168l9 55l17 -7t23 -8.5t20 -3.5q36 0 41 22q1 8 -4 12.5t-17 4.5h-46l82 114h59l-56 -74q29 -1 42.5 -19t8.5 -45q-18 -65 -101 -65q-33 0 -78 14z" />
<glyph unicode="&#xb9;" horiz-adv-x="337" d="M337 718h34l-93 -426h-57l81 372l-64 -25l-1 42z" />
<glyph unicode="&#xba;" horiz-adv-x="288" d="M293 704q-41 0 -68.5 -35.5t-27.5 -80.5q0 -28 14 -45t41 -17q40 0 68 36t28 79q0 28 -14 45.5t-41 17.5zM247 484q-47 0 -72 27t-25 71q0 65 43 114.5t105 49.5q46 0 72 -27t26 -71q0 -66 -43 -115t-106 -49z" />
<glyph unicode="&#xbb;" horiz-adv-x="472" d="M233 82l184 191l-101 194h76l109 -194l-189 -191h-79zM72 82l185 191l-101 194h76l108 -194l-188 -191h-80z" />
<glyph unicode="&#xbc;" horiz-adv-x="851" d="M678 154l41 189l-182 -189h141zM342 718h34l-93 -426h-57l81 372l-64 -25l-1 42zM206 -17l-72 1l606 743h72zM459 143l287 289h51l-60 -278h65l-11 -50h-65l-21 -104h-58l21 104h-218z" />
<glyph unicode="&#xbd;" horiz-adv-x="870" d="M338 718h33l-90 -426h-59l81 372l-64 -25l-1 42zM780 0h-293l7 35q61 56 193 162q26 21 40.5 34.5t33 41t18.5 51.5q0 27 -18.5 43t-49.5 16q-69 0 -117 -63l-30 37q24 32 67.5 54t87.5 22q54 0 86 -30t32 -76q0 -77 -121 -169q-83 -64 -132 -108h206zM186 -15l-72 -1 l607 743l72 -2z" />
<glyph unicode="&#xbe;" horiz-adv-x="862" d="M709 154l39 184l-179 -184h140zM245 285q-47 0 -80.5 18.5t-39.5 44.5l34 39q10 -28 36.5 -40.5t55.5 -12.5q52 0 87 28t35 72q0 54 -91 54h-36l11 50h23q57 0 93.5 22.5t36.5 62.5q0 22 -20.5 36t-53.5 14q-71 0 -110 -54l-17 48q18 23 56 39t78 16q58 0 91.5 -24.5 t33.5 -66.5q0 -79 -82 -117q45 -22 45 -74q0 -68 -53.5 -111.5t-132.5 -43.5zM257 -17l-72 1l607 743h71zM489 143l287 288h50l-59 -277h64l-10 -50h-65l-21 -104h-58l21 104h-219z" />
<glyph unicode="&#xbf;" horiz-adv-x="445" d="M206 -213q-69 3 -107.5 42t-38.5 96q0 60 25 92t154 143q48 42 48 91q0 23 -10 53l67 36q22 -51 22 -86q0 -74 -89 -148l-35 -27.5t-39.5 -32.5t-30.5 -31t-26 -39.5t-8 -41.5q0 -35 21.5 -56t59.5 -21q33 0 68 20t55 49l30 -55q-22 -34 -70.5 -59t-95.5 -25zM344 405 q-31 0 -38.5 10.5t-0.5 43.5q7 30 19 40.5t38 10.5q33 0 40 -11t-2 -43q-7 -30 -18.5 -40.5t-37.5 -10.5z" />
<glyph unicode="&#xc0;" horiz-adv-x="655" d="M498 862l51 -119h-60l-88 119h97zM260 285h249l-58 319zM510 718l129 -718h-81l-39 214h-304l-128 -214h-83l438 718h68z" />
<glyph unicode="&#xc1;" horiz-adv-x="655" d="M491 752h-65l80 106h103zM260 285h249l-58 319zM510 718l129 -718h-81l-39 214h-304l-128 -214h-83l438 718h68z" />
<glyph unicode="&#xc2;" horiz-adv-x="655" d="M410 731h-68l123 131h82l60 -128h-60l-52 68zM260 285h249l-58 319zM510 718l129 -718h-81l-39 214h-304l-128 -214h-83l438 718h68z" />
<glyph unicode="&#xc3;" horiz-adv-x="655" d="M592 837h52q-36 -96 -101 -96q-20 0 -56 16.5t-55 16.5q-21 0 -39 -33h-50q38 96 102 96q20 0 55 -16.5t54 -16.5q23 0 38 33zM260 285h249l-58 319zM510 718l129 -718h-81l-39 214h-304l-128 -214h-83l438 718h68z" />
<glyph unicode="&#xc4;" horiz-adv-x="655" d="M390 796q6 26 16 37.5t34 11.5q28 0 34 -15t-2 -38q-5 -27 -16 -37.5t-34 -10.5q-28 0 -34 13t2 39zM509 796q5 26 15 37.5t34 11.5q29 0 34.5 -15t-2.5 -38q-5 -27 -15.5 -37.5t-33.5 -10.5q-28 0 -34 13t2 39zM260 285h249l-58 319zM510 718l129 -718h-81l-39 214h-304 l-128 -214h-83l438 718h68z" />
<glyph unicode="&#xc5;" horiz-adv-x="655" d="M494 804q-18 0 -33 -12.5t-18 -30.5q-6 -24 20 -36h21q33 11 40 40q2 16 -6.5 27.5t-23.5 11.5zM501 854q38 0 59.5 -27t13.5 -66q-11 -47 -60 -76l125 -685h-81l-39 214h-304l-128 -214h-83l418 686q-40 27 -29 79q8 37 39.5 63t68.5 26zM260 285h249l-58 319z" />
<glyph unicode="&#xc6;" horiz-adv-x="930" d="M324 301h200l72 344h-4zM460 0l49 231h-240l-185 -231h-90l569 712h418l-14 -71h-291l-52 -236h264l-14 -72h-264l-56 -262h301l-14 -71h-381z" />
<glyph unicode="&#xc7;" horiz-adv-x="672" d="M254 -168l11 49l13 -1q32 -12 45 -12q41 0 41 26q0 13 -20 13h-45l60 85q-116 11 -181 85t-65 189q0 117 60 222.5t160.5 169t214.5 63.5q138 0 203 -89l-41 -72q-64 90 -176 90q-139 0 -239.5 -113t-100.5 -261q0 -96 56 -155.5t157 -59.5q125 0 221 95l4 -74 q-95 -87 -218 -92l-33 -43q25 0 39.5 -13.5t14.5 -35.5q0 -35 -29 -57.5t-73 -22.5q-34 0 -79 14z" />
<glyph unicode="&#xc8;" d="M430 846l50 -108h-60l-88 108h98zM483 71l-14 -71h-387l151 712h376l-13 -71h-299l-51 -236h269l-13 -71h-271l-55 -263h307z" />
<glyph unicode="&#xc9;" d="M440 731h-67l147 158h103zM483 71l-14 -71h-387l151 712h376l-13 -71h-299l-51 -236h269l-13 -71h-271l-55 -263h307z" />
<glyph unicode="&#xca;" d="M372 738h-67l123 131h81l61 -128h-61l-51 68zM483 71l-14 -71h-387l151 712h376l-13 -71h-299l-51 -236h269l-13 -71h-271l-55 -263h307z" />
<glyph unicode="&#xcb;" d="M469 796q6 26 16 37.5t34 11.5q29 0 34.5 -15t-2.5 -38q-5 -27 -15.5 -37.5t-33.5 -10.5q-28 0 -34 13t1 39zM351 796q6 27 15.5 38t33.5 11q29 0 34.5 -15t-1.5 -38q-5 -27 -16 -37.5t-34 -10.5q-28 0 -34 13t2 39zM483 71l-14 -71h-387l151 712h376l-13 -71h-299 l-51 -236h269l-13 -71h-271l-55 -263h307z" />
<glyph unicode="&#xcc;" horiz-adv-x="220" d="M269 854l60 -129h-60l-97 129h97zM305 712l-152 -712h-79l152 712h79z" />
<glyph unicode="&#xcd;" horiz-adv-x="220" d="M267 726h-65l107 132h103zM305 712l-152 -712h-79l152 712h79z" />
<glyph unicode="&#xce;" horiz-adv-x="220" d="M188 717h-67l122 128h82l60 -128h-60l-52 68zM305 712l-152 -712h-79l152 712h79z" />
<glyph unicode="&#xcf;" horiz-adv-x="220" d="M291 796q5 26 15 37.5t34 11.5q29 0 34.5 -15t-2.5 -38q-5 -27 -15.5 -37.5t-33.5 -10.5q-28 0 -34 13t2 39zM172 796q6 26 16 37.5t34 11.5q28 0 33.5 -15t-1.5 -38q-5 -27 -16 -37.5t-34 -10.5q-28 0 -34 13t2 39zM305 712l-152 -712h-79l152 712h79z" />
<glyph unicode="&#xd0;" horiz-adv-x="679" d="M71 334l14 70h81l66 308h192q136 0 212.5 -68t76.5 -190q0 -200 -129 -327t-328 -127h-176l71 334h-80zM408 641h-113l-51 -237h199l-14 -70h-200l-56 -263h92q158 0 262 101t104 269q0 97 -57 148.5t-166 51.5z" />
<glyph unicode="&#xd1;" horiz-adv-x="740" d="M643 807h52q-36 -95 -101 -95q-18 0 -61 17h1q-46 16 -51 16q-20 0 -39 -33h-50q38 95 102 95q14 0 60 -18h-1q7 -2 18.5 -6l19 -6.5t12.5 -2.5q22 0 38 33zM606 135l123 577h79l-152 -712h-70l-303 581l-124 -581h-79l152 712h77z" />
<glyph unicode="&#xd2;" horiz-adv-x="759" d="M557 867l60 -129h-60l-97 129h97zM518 650q-87 0 -163.5 -58t-119 -144t-42.5 -173q0 -93 51 -153.5t145 -60.5q89 0 165 55.5t118 141t42 177.5q0 93 -51.5 154t-144.5 61zM377 -10q-127 0 -196 75t-69 197q0 120 54.5 225t151 169.5t211.5 64.5q128 0 197 -75t69 -197 q0 -119 -55 -224.5t-152 -170t-211 -64.5z" />
<glyph unicode="&#xd3;" horiz-adv-x="759" d="M530 745h-66l117 132h103zM518 650q-87 0 -163.5 -58t-119 -144t-42.5 -173q0 -93 51 -153.5t145 -60.5q89 0 165 55.5t118 141t42 177.5q0 93 -51.5 154t-144.5 61zM377 -10q-127 0 -196 75t-69 197q0 120 54.5 225t151 169.5t211.5 64.5q128 0 197 -75t69 -197 q0 -119 -55 -224.5t-152 -170t-211 -64.5z" />
<glyph unicode="&#xd4;" horiz-adv-x="759" d="M469 734h-67l122 130h82l60 -128h-60l-52 68zM518 650q-87 0 -163.5 -58t-119 -144t-42.5 -173q0 -93 51 -153.5t145 -60.5q89 0 165 55.5t118 141t42 177.5q0 93 -51.5 154t-144.5 61zM377 -10q-127 0 -196 75t-69 197q0 120 54.5 225t151 169.5t211.5 64.5 q128 0 197 -75t69 -197q0 -119 -55 -224.5t-152 -170t-211 -64.5z" />
<glyph unicode="&#xd5;" horiz-adv-x="759" d="M672 839h52q-36 -96 -101 -96q-20 0 -56 16.5t-55 16.5q-21 0 -39 -33h-49q37 96 101 96q20 0 55.5 -16.5t54.5 -16.5q22 0 37 33zM518 650q-87 0 -163.5 -58t-119 -144t-42.5 -173q0 -93 51 -153.5t145 -60.5q89 0 165 55.5t118 141t42 177.5q0 93 -51.5 154t-144.5 61z M377 -10q-127 0 -196 75t-69 197q0 120 54.5 225t151 169.5t211.5 64.5q128 0 197 -75t69 -197q0 -119 -55 -224.5t-152 -170t-211 -64.5z" />
<glyph unicode="&#xd6;" horiz-adv-x="759" d="M445 796q6 26 16 37.5t34 11.5q29 0 34.5 -15t-2.5 -38q-5 -27 -16 -37.5t-34 -10.5q-28 0 -34 13t2 39zM564 796q6 27 15.5 38t33.5 11q29 0 34.5 -15t-1.5 -38q-5 -27 -16 -37.5t-34 -10.5q-28 0 -34 13t2 39zM518 650q-87 0 -163.5 -58t-119 -144t-42.5 -173 q0 -93 51 -153.5t145 -60.5q89 0 165 55.5t118 141t42 177.5q0 93 -51.5 154t-144.5 61zM377 -10q-127 0 -196 75t-69 197q0 120 54.5 225t151 169.5t211.5 64.5q128 0 197 -75t69 -197q0 -119 -55 -224.5t-152 -170t-211 -64.5z" />
<glyph unicode="&#xd7;" horiz-adv-x="621" d="M83 89l230 191l-149 191l62 50l151 -190l230 190l43 -54l-231 -191l150 -190l-63 -51l-150 191l-231 -191z" />
<glyph unicode="&#xd8;" horiz-adv-x="759" d="M129 -2h-83l105 106q-39 66 -39 158q0 120 54.5 225t151 169.5t211.5 64.5q108 0 176 -56l55 56h83l-98 -99q50 -70 50 -173q0 -119 -55 -224.5t-152 -170t-211 -64.5q-119 0 -189 67zM714 435q0 72 -31 124l-436 -441q52 -57 142 -57q89 0 165 55.5t118 141t42 177.5z M518 650q-87 0 -163.5 -58t-119 -144t-42.5 -173q0 -59 21 -107l432 437q-51 45 -128 45z" />
<glyph unicode="&#xd9;" horiz-adv-x="679" d="M499 832l61 -129h-61l-97 129h97zM583 260l96 452h79l-98 -459q-25 -119 -113 -193q-85 -70 -205 -70q-123 0 -180 71q-39 50 -39 122q0 31 8 71l98 458h79l-98 -458q-7 -31 -7 -58q0 -65 38.5 -100t111.5 -35q87 0 148 53.5t82 145.5z" />
<glyph unicode="&#xda;" horiz-adv-x="679" d="M514 723h-68l119 135h104zM583 260l96 452h79l-98 -459q-25 -119 -113 -193q-85 -70 -205 -70q-123 0 -180 71q-39 50 -39 122q0 31 8 71l98 458h79l-98 -458q-7 -31 -7 -58q0 -65 38.5 -100t111.5 -35q87 0 148 53.5t82 145.5z" />
<glyph unicode="&#xdb;" horiz-adv-x="679" d="M427 714h-67l123 132h82l60 -129h-61l-51 68q-28 -25 -86 -71zM583 260l96 452h79l-98 -459q-25 -119 -113 -193q-85 -70 -205 -70q-123 0 -180 71q-39 50 -39 122q0 31 8 71l98 458h79l-98 -458q-7 -31 -7 -58q0 -65 38.5 -100t111.5 -35q87 0 148 53.5t82 145.5z" />
<glyph unicode="&#xdc;" horiz-adv-x="679" d="M414 796q6 27 15.5 38t33.5 11q29 0 34.5 -15t-2.5 -38q-5 -27 -15.5 -37.5t-33.5 -10.5q-28 0 -34 13t2 39zM532 796q6 26 16 37.5t34 11.5q29 0 34.5 -15t-2.5 -38q-5 -27 -15.5 -37.5t-34.5 -10.5q-27 0 -33 13t1 39zM583 260l96 452h79l-98 -459q-25 -119 -113 -193 q-85 -70 -205 -70q-123 0 -180 71q-39 50 -39 122q0 31 8 71l98 458h79l-98 -458q-7 -31 -7 -58q0 -65 38.5 -100t111.5 -35q87 0 148 53.5t82 145.5z" />
<glyph unicode="&#xdd;" horiz-adv-x="581" d="M438 700h-68l146 158h104zM374 391l271 321h93l-339 -397l-67 -315h-78l68 320l-169 392h90z" />
<glyph unicode="&#xde;" horiz-adv-x="528" d="M266 499l-56 -258h91q87 0 141 46.5t54 124.5q0 87 -121 87h-109zM81 0l152 712h78l-31 -142h103q92 0 142 -39.5t50 -112.5q0 -112 -78.5 -180.5t-195.5 -68.5h-106l-35 -169h-79z" />
<glyph unicode="&#xdf;" horiz-adv-x="527" d="M276 -4q-31 0 -77 10l30 70q33 -12 60 -12q72 0 125 64.5t53 143.5q0 53 -33.5 82t-97.5 29h-25l14 66h19q58 0 102 46.5t44 111.5q0 38 -23 59.5t-65 21.5q-54 0 -93 -42.5t-55 -117.5l-112 -528h-73l115 546q20 96 80 151.5t152 55.5q71 0 111.5 -37t40.5 -100 q0 -64 -33.5 -115t-87.5 -77q47 -17 72.5 -56t25.5 -92q0 -117 -78.5 -198.5t-190.5 -81.5z" />
<glyph unicode="&#xe0;" horiz-adv-x="540" d="M345 651l54 -115h-60l-91 115h97zM343 438q-79 0 -140 -75t-61 -182q0 -60 30 -93t87 -33q58 0 108 40.5t62 98.5l23 110q4 16 4 31q0 48 -32.5 75.5t-80.5 27.5zM240 -10q-86 0 -130.5 49.5t-44.5 131.5q0 137 86.5 235.5t198.5 98.5q92 0 137 -57l20 52h62l-94 -436 q0 -38 8 -64h-65q-2 12 -5 52q-57 -62 -173 -62z" />
<glyph unicode="&#xe1;" horiz-adv-x="540" d="M370 540h-65l86 111h103zM343 438q-79 0 -140 -75t-61 -182q0 -60 30 -93t87 -33q58 0 108 40.5t62 98.5l23 110q4 16 4 31q0 48 -32.5 75.5t-80.5 27.5zM240 -10q-86 0 -130.5 49.5t-44.5 131.5q0 137 86.5 235.5t198.5 98.5q92 0 137 -57l20 52h62l-94 -436 q0 -38 8 -64h-65q-2 12 -5 52q-57 -62 -173 -62z" />
<glyph unicode="&#xe2;" horiz-adv-x="540" d="M296 527h-67l122 132h83l59 -129h-60l-51 68zM343 438q-79 0 -140 -75t-61 -182q0 -60 30 -93t87 -33q58 0 108 40.5t62 98.5l23 110q4 16 4 31q0 48 -32.5 75.5t-80.5 27.5zM240 -10q-86 0 -130.5 49.5t-44.5 131.5q0 137 86.5 235.5t198.5 98.5q92 0 137 -57l20 52h62 l-94 -436q0 -38 8 -64h-65q-2 12 -5 52q-57 -62 -173 -62z" />
<glyph unicode="&#xe3;" horiz-adv-x="540" d="M479 641h52q-38 -95 -102 -95q-20 0 -55.5 16.5t-54.5 16.5q-22 0 -39 -33h-50q36 95 101 95q20 0 56 -16.5t54 -16.5q21 0 38 33zM343 438q-79 0 -140 -75t-61 -182q0 -60 30 -93t87 -33q58 0 108 40.5t62 98.5l23 110q4 16 4 31q0 48 -32.5 75.5t-80.5 27.5zM240 -10 q-86 0 -130.5 49.5t-44.5 131.5q0 137 86.5 235.5t198.5 98.5q92 0 137 -57l20 52h62l-94 -436q0 -38 8 -64h-65q-2 12 -5 52q-57 -62 -173 -62z" />
<glyph unicode="&#xe4;" horiz-adv-x="540" d="M266 598q5 26 15 37.5t35 11.5q29 0 34.5 -15.5t-2.5 -37.5q-7 -28 -16.5 -38.5t-32.5 -10.5q-28 0 -34 13.5t1 39.5zM385 598q5 26 15 37.5t35 11.5q28 0 34 -15.5t-2 -37.5q-7 -28 -17 -38.5t-33 -10.5q-28 0 -34 13.5t2 39.5zM343 438q-79 0 -140 -75t-61 -182 q0 -60 30 -93t87 -33q58 0 108 40.5t62 98.5l23 110q4 16 4 31q0 48 -32.5 75.5t-80.5 27.5zM240 -10q-86 0 -130.5 49.5t-44.5 131.5q0 137 86.5 235.5t198.5 98.5q92 0 137 -57l20 52h62l-94 -436q0 -38 8 -64h-65q-2 12 -5 52q-57 -62 -173 -62z" />
<glyph unicode="&#xe5;" horiz-adv-x="540" d="M383 639q-15 0 -28.5 -11t-15.5 -26q-3 -14 4 -23.5t21 -9.5q15 0 28.5 11t16.5 26q2 13 -5.5 23t-20.5 10zM389 685q33 0 53 -25t13 -58q-8 -32 -36.5 -56t-60.5 -24q-35 0 -54 25t-12 59q8 33 36 56t61 23zM343 438q-79 0 -140 -75t-61 -182q0 -60 30 -93t87 -33 q58 0 108 40.5t62 98.5l23 110q4 16 4 31q0 48 -32.5 75.5t-80.5 27.5zM240 -10q-86 0 -130.5 49.5t-44.5 131.5q0 137 86.5 235.5t198.5 98.5q92 0 137 -57l20 52h62l-94 -436q0 -38 8 -64h-65q-2 12 -5 52q-57 -62 -173 -62z" />
<glyph unicode="&#xe6;" horiz-adv-x="806" d="M315 240q-81 0 -130.5 -36t-49.5 -91q0 -57 80 -57q50 0 100 36.5t63 89.5l11 52q-40 6 -74 6zM661 440q-60 0 -108 -43t-73 -112q95 -11 131 -11q58 0 104 22.5t46 71.5q0 35 -28 53.5t-72 18.5zM575 -10q-126 0 -169 93q-46 -53 -96 -73t-117 -20q-63 0 -99 31t-36 81 q0 93 74 146.5t172 53.5q55 0 99 -3q13 65 13 75q0 66 -87 66q-74 0 -155 -59l-6 67q35 27 84 43t91 16q120 0 139 -90q92 90 186 90q68 0 115.5 -34.5t47.5 -96.5q0 -42 -17 -74.5t-41.5 -49.5t-57 -27.5t-57 -13.5t-48.5 -3q-72 0 -146 12q-2 -24 -2 -33q0 -131 130 -131 q35 0 81 21t77 53l25 -59q-34 -36 -90 -58.5t-110 -22.5z" />
<glyph unicode="&#xe7;" horiz-adv-x="452" d="M435 122l1 -76q-68 -53 -157 -56l-32 -43q25 0 39.5 -13.5t14.5 -35.5q0 -36 -29.5 -58t-69.5 -22q-37 0 -82 14l11 49l13 -1q32 -12 45 -12q41 0 41 25q0 14 -20 14h-45l60 87q-72 13 -109.5 61.5t-37.5 123.5q0 135 87.5 231t214.5 96q88 0 138 -60l-33 -68 q-45 61 -113 61q-86 0 -151 -72t-65 -174q0 -61 33.5 -99t96.5 -38q31 0 75 18.5t74 47.5z" />
<glyph unicode="&#xe8;" horiz-adv-x="500" d="M376 651l52 -117h-60l-89 117h97zM354 440q-59 0 -107.5 -44t-73.5 -114q101 -8 123 -8q26 0 51 4.5t50.5 14t41 29t15.5 46.5q0 35 -28 53.5t-72 18.5zM443 130l24 -59q-33 -36 -88.5 -58t-110.5 -22q-94 0 -141 51t-47 135q0 78 34.5 153t100.5 126t145 51 q69 0 116.5 -34.5t47.5 -96.5q0 -45 -19 -78t-44.5 -50t-61 -27t-59.5 -12.5t-49 -2.5q-73 0 -134 9q-4 -28 -4 -39q0 -55 32 -87t99 -32q36 0 82.5 20.5t76.5 52.5z" />
<glyph unicode="&#xe9;" horiz-adv-x="500" d="M372 536h-66l90 115h103zM354 440q-59 0 -107.5 -44t-73.5 -114q101 -8 123 -8q26 0 51 4.5t50.5 14t41 29t15.5 46.5q0 35 -28 53.5t-72 18.5zM443 130l24 -59q-33 -36 -88.5 -58t-110.5 -22q-94 0 -141 51t-47 135q0 78 34.5 153t100.5 126t145 51q69 0 116.5 -34.5 t47.5 -96.5q0 -45 -19 -78t-44.5 -50t-61 -27t-59.5 -12.5t-49 -2.5q-73 0 -134 9q-4 -28 -4 -39q0 -55 32 -87t99 -32q36 0 82.5 20.5t76.5 52.5z" />
<glyph unicode="&#xea;" horiz-adv-x="500" d="M306 531h-67l123 132h82l60 -129h-61l-51 68zM354 440q-59 0 -107.5 -44t-73.5 -114q101 -8 123 -8q26 0 51 4.5t50.5 14t41 29t15.5 46.5q0 35 -28 53.5t-72 18.5zM443 130l24 -59q-33 -36 -88.5 -58t-110.5 -22q-94 0 -141 51t-47 135q0 78 34.5 153t100.5 126t145 51 q69 0 116.5 -34.5t47.5 -96.5q0 -45 -19 -78t-44.5 -50t-61 -27t-59.5 -12.5t-49 -2.5q-73 0 -134 9q-4 -28 -4 -39q0 -55 32 -87t99 -32q36 0 82.5 20.5t76.5 52.5z" />
<glyph unicode="&#xeb;" horiz-adv-x="500" d="M280 598q4 26 14 37.5t35 11.5q29 0 34.5 -15.5t-2.5 -37.5q-6 -28 -16 -38.5t-33 -10.5q-28 0 -34 13.5t2 39.5zM398 598q5 26 15 37.5t35 11.5q29 0 34.5 -15.5t-2.5 -37.5q-7 -28 -17 -38.5t-33 -10.5q-28 0 -34 13.5t2 39.5zM354 440q-59 0 -107.5 -44t-73.5 -114 q101 -8 123 -8q26 0 51 4.5t50.5 14t41 29t15.5 46.5q0 35 -28 53.5t-72 18.5zM443 130l24 -59q-33 -36 -88.5 -58t-110.5 -22q-94 0 -141 51t-47 135q0 78 34.5 153t100.5 126t145 51q69 0 116.5 -34.5t47.5 -96.5q0 -45 -19 -78t-44.5 -50t-61 -27t-59.5 -12.5t-49 -2.5 q-73 0 -134 9q-4 -28 -4 -39q0 -55 32 -87t99 -32q36 0 82.5 20.5t76.5 52.5z" />
<glyph unicode="&#xec;" horiz-adv-x="200" d="M232 651l51 -119h-60l-89 119h98zM173 500h76l-93 -429q-6 -29 7 -71h-69q-20 33 -11 74z" />
<glyph unicode="&#xed;" horiz-adv-x="200" d="M230 538h-65l88 113h103zM173 500h76l-93 -429q-6 -29 7 -71h-69q-20 33 -11 74z" />
<glyph unicode="&#xee;" horiz-adv-x="200" d="M165 535h-67l122 132h83l59 -129h-60l-52 68zM173 500h76l-93 -429q-6 -29 7 -71h-69q-20 33 -11 74z" />
<glyph unicode="&#xef;" horiz-adv-x="200" d="M261 605q4 26 14 37.5t35 11.5q29 0 34.5 -15t-2.5 -38q-6 -28 -16 -38.5t-33 -10.5q-28 0 -34 14t2 39zM142 605q5 26 15 37.5t35 11.5q28 0 33.5 -15t-1.5 -38q-7 -28 -17 -38.5t-33 -10.5q-28 0 -34 14t2 39zM173 500h76l-93 -429q-6 -29 7 -71h-69q-20 33 -11 74z " />
<glyph unicode="&#xf0;" horiz-adv-x="540" d="M369 441q-86 0 -150 -78.5t-64 -168.5q0 -60 32.5 -100t94.5 -40q89 0 150.5 78.5t61.5 170.5q0 58 -31.5 98t-93.5 40zM273 -11q-93 0 -144 54.5t-51 138.5q0 126 91 225t210 99q71 0 120 -44q-13 77 -70 142l-121 -65l-27 54l102 54q-38 27 -102 46l46 57 q79 -28 126 -67l109 59l27 -55l-91 -48q83 -100 83 -242q0 -77 -19.5 -149t-56.5 -130.5t-97 -93.5t-135 -35z" />
<glyph unicode="&#xf1;" d="M504 644h51q-36 -95 -101 -95q-20 0 -56 16.5t-55 16.5q-21 0 -39 -33h-49q36 95 101 95q20 0 55.5 -16.5t54.5 -16.5q21 0 38 33zM521 313l-66 -313h-74l65 311q6 27 6 47q0 84 -84 84q-54 0 -101 -42t-60 -101l-64 -299h-74l106 500h69l-10 -56q64 64 150 64 q70 0 106.5 -34t36.5 -100q0 -36 -6 -61z" />
<glyph unicode="&#xf2;" horiz-adv-x="542" d="M396 651l51 -114h-60l-88 114h97zM365 439q-86 0 -147.5 -78t-61.5 -169q0 -59 32 -97.5t91 -38.5q88 0 148 77t60 170q0 60 -31 98t-91 38zM268 -10q-91 0 -140 52.5t-49 138.5q0 130 86 227.5t209 97.5q91 0 140.5 -53t49.5 -140q0 -132 -86.5 -227.5t-209.5 -95.5z " />
<glyph unicode="&#xf3;" horiz-adv-x="542" d="M387 539h-65l85 112h103zM365 439q-86 0 -147.5 -78t-61.5 -169q0 -59 32 -97.5t91 -38.5q88 0 148 77t60 170q0 60 -31 98t-91 38zM268 -10q-91 0 -140 52.5t-49 138.5q0 130 86 227.5t209 97.5q91 0 140.5 -53t49.5 -140q0 -132 -86.5 -227.5t-209.5 -95.5z" />
<glyph unicode="&#xf4;" horiz-adv-x="542" d="M318 528h-67l123 132h82l60 -129h-61l-51 68zM365 439q-86 0 -147.5 -78t-61.5 -169q0 -59 32 -97.5t91 -38.5q88 0 148 77t60 170q0 60 -31 98t-91 38zM268 -10q-91 0 -140 52.5t-49 138.5q0 130 86 227.5t209 97.5q91 0 140.5 -53t49.5 -140q0 -132 -86.5 -227.5 t-209.5 -95.5z" />
<glyph unicode="&#xf5;" horiz-adv-x="542" d="M514 633h51q-36 -95 -101 -95q-20 0 -56 16.5t-55 16.5q-21 0 -38 -33h-50q36 95 101 95q20 0 55.5 -16.5t54.5 -16.5q21 0 38 33zM365 439q-86 0 -147.5 -78t-61.5 -169q0 -59 32 -97.5t91 -38.5q88 0 148 77t60 170q0 60 -31 98t-91 38zM268 -10q-91 0 -140 52.5 t-49 138.5q0 130 86 227.5t209 97.5q91 0 140.5 -53t49.5 -140q0 -132 -86.5 -227.5t-209.5 -95.5z" />
<glyph unicode="&#xf6;" horiz-adv-x="542" d="M295 598q5 26 14.5 37.5t34.5 11.5q29 0 34.5 -15.5t-2.5 -37.5q-6 -28 -16 -38.5t-33 -10.5q-28 0 -34 13.5t2 39.5zM413 598q5 26 15 37.5t35 11.5q29 0 34.5 -15.5t-2.5 -37.5q-7 -28 -16.5 -38.5t-33.5 -10.5q-27 0 -33 13.5t1 39.5zM365 439q-86 0 -147.5 -78 t-61.5 -169q0 -59 32 -97.5t91 -38.5q88 0 148 77t60 170q0 60 -31 98t-91 38zM268 -10q-91 0 -140 52.5t-49 138.5q0 130 86 227.5t209 97.5q91 0 140.5 -53t49.5 -140q0 -132 -86.5 -227.5t-209.5 -95.5z" />
<glyph unicode="&#xf7;" horiz-adv-x="613" d="M341 150q31 0 38 -10.5t1 -44.5q-7 -30 -19.5 -40t-38.5 -10q-32 0 -39 11t1 43q6 29 18.5 40t38.5 11zM419 517q31 0 38 -10t0 -44q-7 -30 -18.5 -40.5t-37.5 -10.5q-33 0 -40 11t1 44q7 31 18 40.5t39 9.5zM618 241h-520l16 74h520z" />
<glyph unicode="&#xf8;" horiz-adv-x="542" d="M104 -2h-83l82 79q-24 45 -24 104q0 130 86 227.5t209 97.5q80 0 128 -42l38 37h83l-84 -82q25 -47 25 -106q0 -132 -86.5 -227.5t-209.5 -95.5q-81 0 -129 42zM487 303q0 31 -9 57l-283 -274q32 -30 84 -30q88 0 148 77t60 170zM365 439q-86 0 -147.5 -78t-61.5 -169 q0 -28 8 -55l283 273q-32 29 -82 29z" />
<glyph unicode="&#xf9;" horiz-adv-x="519" d="M380 651l60 -129h-60l-98 129h98zM477 500h74l-107 -500h-62l8 51q-60 -61 -154 -61q-92 0 -125 51t-15 138l69 321h74l-67 -314q-12 -56 5.5 -93t71.5 -37q55 0 101 37t58 91z" />
<glyph unicode="&#xfa;" horiz-adv-x="519" d="M366 519h-65l107 132h103zM477 500h74l-107 -500h-62l8 51q-60 -61 -154 -61q-92 0 -125 51t-15 138l69 321h74l-67 -314q-12 -56 5.5 -93t71.5 -37q55 0 101 37t58 91z" />
<glyph unicode="&#xfb;" horiz-adv-x="519" d="M310 531h-67l122 132h83l59 -129h-60l-52 68zM477 500h74l-107 -500h-62l8 51q-60 -61 -154 -61q-92 0 -125 51t-15 138l69 321h74l-67 -314q-12 -56 5.5 -93t71.5 -37q55 0 101 37t58 91z" />
<glyph unicode="&#xfc;" horiz-adv-x="519" d="M409 598q5 26 14.5 37.5t34.5 11.5q29 0 34.5 -15.5t-2.5 -37.5q-6 -28 -16 -38.5t-33 -10.5q-28 0 -34 13.5t2 39.5zM290 598q5 26 15 37.5t35 11.5q29 0 34.5 -15.5t-2.5 -37.5q-7 -28 -17 -38.5t-33 -10.5q-28 0 -34 13.5t2 39.5zM477 500h74l-107 -500h-62l8 51 q-60 -61 -154 -61q-92 0 -125 51t-15 138l69 321h74l-67 -314q-12 -56 5.5 -93t71.5 -37q55 0 101 37t58 91z" />
<glyph unicode="&#xfd;" d="M381 506h-68l116 133h104zM479 500h73l-106 -507q-25 -119 -90.5 -165t-187.5 -46q-102 0 -165 58l47 55q60 -48 140 -48q63 0 112 27t62 85l21 92q-30 -33 -64 -47t-82 -14q-87 0 -122.5 50.5t-17.5 138.5l69 321h74l-67 -314q-6 -34 -6 -62.5t20.5 -48t62.5 -19.5 q54 0 101 39.5t59 91.5z" />
<glyph unicode="&#xfe;" horiz-adv-x="549" d="M204 287l-17 -74q-4 -17 -4 -35q0 -51 30.5 -86.5t75.5 -35.5q77 0 138.5 72t61.5 176q0 57 -28 96t-85 39t-107.5 -42t-64.5 -110zM154 50l-56 -265h-75l205 964h75l-64 -298q61 55 150 55t133.5 -52.5t44.5 -133.5q0 -80 -35 -155.5t-100.5 -125t-144.5 -49.5 q-94 0 -133 60z" />
<glyph unicode="&#xff;" d="M371 601q5 26 14.5 37t34.5 11q29 0 34.5 -14.5t-2.5 -37.5q-5 -27 -15.5 -38t-33.5 -11q-27 0 -33 14t1 39zM252 601q6 26 16 37t34 11q28 0 34 -14.5t-2 -37.5q-5 -27 -16 -38t-34 -11q-27 0 -33 14t1 39zM479 500h73l-106 -507q-25 -119 -90.5 -165t-187.5 -46 q-102 0 -165 58l47 55q60 -48 140 -48q63 0 112 27t62 85l21 92q-30 -33 -64 -47t-82 -14q-87 0 -122.5 50.5t-17.5 138.5l69 321h74l-67 -314q-6 -34 -6 -62.5t20.5 -48t62.5 -19.5q54 0 101 39.5t59 91.5z" />
<glyph unicode="&#x152;" horiz-adv-x="1071" d="M523 650q-88 0 -164.5 -57t-118.5 -143.5t-42 -174.5q0 -93 51 -153.5t145 -60.5q93 0 181.5 70.5t109.5 156.5l31 146q3 14 3 30q0 71 -57 128.5t-139 57.5zM1025 71l-14 -71h-387l21 100q-110 -110 -263 -110q-127 0 -196 75t-69 197q0 110 51 214.5t148.5 174.5 t217.5 70q156 0 219 -109l22 100h376l-13 -71h-299l-51 -236h269l-14 -72h-270l-55 -262h307z" />
<glyph unicode="&#x153;" horiz-adv-x="909" d="M754 439q-60 0 -108 -42.5t-73 -110.5q79 -11 138 -11q55 0 99 23t44 70q0 35 -28 53t-72 18zM370 439q-86 0 -147.5 -78t-61.5 -169q0 -59 32 -97.5t91 -38.5q84 0 146 75.5t62 172.5q0 59 -31.5 97t-90.5 38zM668 -10q-68 0 -113.5 29.5t-63.5 82.5 q-35 -51 -93.5 -81.5t-123.5 -30.5q-91 0 -140.5 52.5t-49.5 138.5q0 130 86.5 227.5t209.5 97.5q131 0 175 -108q82 108 206 108q68 0 115.5 -34.5t47.5 -95.5q0 -81 -64 -125t-153 -44q-80 0 -150 11q-2 -17 -2 -41q0 -121 130 -121q36 0 82 21t76 53l25 -59 q-34 -36 -90 -58.5t-110 -22.5z" />
<glyph unicode="&#x178;" horiz-adv-x="581" d="M484 796q6 27 15.5 38t33.5 11q29 0 34.5 -15t-1.5 -38q-5 -27 -16 -37.5t-34 -10.5q-28 0 -34 13t2 39zM365 796q6 26 16 37.5t34 11.5q29 0 34.5 -15t-2.5 -38q-5 -27 -16 -37.5t-34 -10.5q-28 0 -34 13t2 39zM374 391l271 321h93l-339 -397l-67 -315h-78l68 320 l-169 392h90z" />
<glyph unicode="&#x2c6;" horiz-adv-x="500" d="M332 714h-67l122 132h83l59 -129h-60l-52 68z" />
<glyph unicode="&#x2dc;" horiz-adv-x="445" d="M479 807h52q-38 -95 -101 -95q-18 0 -61 17h1q-46 16 -51 16q-20 0 -39 -33h-50q38 95 101 95q15 0 61 -18h-1q7 -2 18.5 -6l19 -6.5t12.5 -2.5q21 0 38 33z" />
<glyph unicode="&#x2000;" horiz-adv-x="444" />
<glyph unicode="&#x2001;" horiz-adv-x="889" />
<glyph unicode="&#x2002;" horiz-adv-x="444" />
<glyph unicode="&#x2003;" horiz-adv-x="889" />
<glyph unicode="&#x2004;" horiz-adv-x="296" />
<glyph unicode="&#x2005;" horiz-adv-x="222" />
<glyph unicode="&#x2006;" horiz-adv-x="148" />
<glyph unicode="&#x2007;" horiz-adv-x="148" />
<glyph unicode="&#x2008;" horiz-adv-x="111" />
<glyph unicode="&#x2009;" horiz-adv-x="177" />
<glyph unicode="&#x200a;" horiz-adv-x="49" />
<glyph unicode="&#x2010;" horiz-adv-x="298" d="M74 234l16 74h248l-16 -74h-248z" />
<glyph unicode="&#x2011;" horiz-adv-x="298" d="M74 234l16 74h248l-16 -74h-248z" />
<glyph unicode="&#x2013;" horiz-adv-x="502" d="M45 241l15 70h510l-14 -70h-511z" />
<glyph unicode="&#x2014;" horiz-adv-x="926" d="M51 241l15 70h921l-14 -70h-922z" />
<glyph unicode="&#x2018;" horiz-adv-x="211" d="M205 542h-23q-49 0 -9 72v-1q18 42 79 137v-1q12 18 38 18q16 0 21 -8.5t-3 -21.5q-46 -92 -56 -139q-7 -33 -18 -44.5t-29 -11.5z" />
<glyph unicode="&#x2019;" horiz-adv-x="202" d="M263 752h23q16 0 22.5 -7t3 -21t-6.5 -21.5t-10 -22.5q-16 -37 -80 -137v1q-12 -18 -38 -18q-35 0 -17 30v-1q43 87 55 140q15 57 48 57z" />
<glyph unicode="&#x201a;" horiz-adv-x="271" d="M148 96h23q15 0 22 -6.5t4 -20.5t-6 -22t-10 -23q-32 -64 -81 -136v1q-11 -18 -37 -18q-36 0 -16 30l-1 -1q42 84 55 140q11 56 47 56z" />
<glyph unicode="&#x201c;" horiz-adv-x="303" d="M315 542h-22q-47 0 -10 72v-1q32 66 80 137v-1q12 18 38 18q16 0 20.5 -8.5t-3.5 -21.5q-44 -88 -55 -139q-8 -33 -19 -44.5t-29 -11.5zM206 542h-22q-47 0 -10 72v-1q32 66 80 137v-1q12 18 38 18q16 0 20.5 -8.5t-3.5 -21.5q-44 -88 -55 -139q-8 -33 -19 -44.5 t-29 -11.5z" />
<glyph unicode="&#x201d;" horiz-adv-x="316" d="M265 752h22q20 0 24.5 -12t0.5 -24.5t-12 -29.5l-3 -6q-30 -61 -81 -137v1q-12 -18 -38 -18q-34 0 -16 30v-1q39 79 55 140q15 57 48 57zM374 752h22q20 0 24.5 -12t0.5 -24.5t-12 -29.5l-3 -6q-30 -61 -81 -137v1q-12 -18 -38 -18q-34 0 -16 30v-1q39 79 55 140 q15 57 48 57z" />
<glyph unicode="&#x201e;" horiz-adv-x="362" d="M150 96h22q15 0 21.5 -5.5t4.5 -18.5t-4 -20t-9 -23q-1 -3 -2 -5q-45 -84 -81 -136v1q-12 -18 -38 -18q-35 0 -15 30l-1 -1q38 76 55 140q11 56 47 56zM259 96h22q15 0 21.5 -5.5t4.5 -18.5t-4 -20t-9 -23q-1 -3 -2 -5q-45 -84 -81 -136v1q-12 -18 -38 -18q-35 0 -16 30 l-1 -1q38 74 56 140q11 56 47 56z" />
<glyph unicode="&#x2022;" horiz-adv-x="500" d="M355 440q61 0 92 -30t31 -82q0 -85 -52 -139t-125 -54q-56 0 -89.5 30.5t-33.5 83.5q0 76 53 133.5t124 57.5z" />
<glyph unicode="&#x2026;" horiz-adv-x="532" d="M461 103q30 0 37 -10.5t1 -43.5q-6 -28 -18.5 -39.5t-38.5 -11.5q-33 0 -39.5 11t0.5 44q7 31 18.5 40.5t39.5 9.5zM283 103q30 0 37 -10.5t1 -43.5q-6 -28 -18.5 -39.5t-38.5 -11.5q-33 0 -39.5 11t0.5 44q7 31 18.5 40.5t39.5 9.5zM106 103q30 0 37 -10.5t1 -43.5 q-6 -28 -18.5 -39.5t-38.5 -11.5q-33 0 -39.5 11t0.5 44q7 31 18.5 40.5t39.5 9.5z" />
<glyph unicode="&#x202f;" horiz-adv-x="177" />
<glyph unicode="&#x2039;" horiz-adv-x="323" d="M359 463l-186 -193l104 -188h-76l-112 189l190 192h80z" />
<glyph unicode="&#x203a;" horiz-adv-x="355" d="M70 82l185 191l-102 194h76l109 -194l-188 -191h-80z" />
<glyph unicode="&#x205f;" horiz-adv-x="222" />
<glyph unicode="&#x20ac;" horiz-adv-x="644" d="M111 283h-53l13 58h48q1 7 9 41h-48l14 63h55q49 124 160 200t238 76q134 0 197 -89l-34 -73q-66 91 -177 91q-95 0 -177 -56t-124 -149h369l-13 -63h-379q-2 -9 -5.5 -20t-4.5 -21h383l-14 -58h-376q-6 -100 53 -161t161 -61q124 0 221 94l8 -77q-106 -88 -236 -88 t-209 74t-79 198v21z" />
<glyph unicode="&#x2122;" horiz-adv-x="651" d="M416 713l-10 -49h-85l-51 -230h-54l49 230h-85l10 49h226zM651 713h75l-60 -279h-53l40 184l-112 -184h-36l-31 182l-39 -182h-52l60 279h70l31 -185z" />
</font>
</defs>
</svg>
