<?xml version="1.0" standalone="no"?>
<!DOCTYPE svg PUBLIC "-//W3C//DTD SVG 1.1//EN" "http://www.w3.org/Graphics/SVG/1.1/DTD/svg11.dtd" >
<svg xmlns="http://www.w3.org/2000/svg">
<metadata>
This is a custom SVG webfont generated by Fontspring.
Designer    : Robbie de Villiers
Foundry     : Wilton Foundry
Foundry URL : wiltonfoundry.com
</metadata>
<defs>
<font id="webfont" horiz-adv-x="500" >
<font-face units-per-em="1000" ascent="800" descent="-200" />
<missing-glyph horiz-adv-x="386" />
<glyph unicode=" "  horiz-adv-x="386" />
<glyph unicode="&#x09;" horiz-adv-x="386" />
<glyph unicode="&#xa0;" horiz-adv-x="386" />
<glyph unicode="!" horiz-adv-x="283" d="M100 51q0 50 49 50t49 -50q0 -51 -49 -51t-49 51zM110 712h77l2 -219l-7 -319h-66l-8 319z" />
<glyph unicode="&#x22;" horiz-adv-x="369" d="M221 712h76l-1 -119l-4 -112h-66l-4 113zM99 712h76l-1 -119l-4 -112h-66l-4 113z" />
<glyph unicode="#" horiz-adv-x="581" d="M252 433l-25 -149h124l27 149h-126zM43 216v68h113l26 149h-113v68h123l33 211h71l-33 -211h124l34 211h70l-33 -211h95v-68h-105l-26 -149h105v-68h-115l-34 -216h-71l34 216h-125l-34 -216h-71l34 216h-102z" />
<glyph unicode="$" horiz-adv-x="562" d="M502 188q0 -73 -53 -127t-129 -66v-100h-67v96q-54 2 -110 30.5t-89 69.5l35 66q72 -97 182 -97q63 0 109 35t46 94q0 28 -12 49.5t-39.5 39t-47 27t-60.5 25.5q-43 17 -73 32.5t-59 39t-44 55t-15 71.5q0 70 52 120.5t125 62.5v66h67v-64q38 -2 85.5 -23.5t70.5 -46.5 l-31 -69q-64 70 -156 70q-60 0 -98.5 -32.5t-38.5 -83.5q0 -20 10 -38.5t23 -31t37.5 -26t40.5 -20.5t46 -19q51 -21 79 -35.5t58 -38.5t43 -56t13 -75z" />
<glyph unicode="%" horiz-adv-x="848" d="M615 275q-42 0 -69 -30.5t-27 -76.5q0 -47 27 -77.5t69 -30.5q43 0 69 30t26 78q0 46 -26.5 76.5t-68.5 30.5zM231 652q-42 0 -69.5 -30.5t-27.5 -76.5q0 -47 27.5 -77.5t69.5 -30.5q43 0 69 30t26 78q0 47 -26.5 77t-68.5 30zM159 -13l449 735h75l-450 -735h-74z M615 339q73 0 118.5 -49t45.5 -123t-45.5 -123.5t-118.5 -49.5q-74 0 -119.5 48t-45.5 126q0 74 46 122.5t119 48.5zM230 718q72 0 118.5 -50t46.5 -124q0 -75 -45.5 -124.5t-119.5 -49.5q-75 0 -120 49.5t-45 125.5q0 74 46 123.5t119 49.5z" />
<glyph unicode="&#x26;" horiz-adv-x="653" d="M211 569q0 -59 61 -132q110 54 110 130q0 38 -23 60t-60 22t-62.5 -22.5t-25.5 -57.5zM424 142l-174 206q-135 -64 -135 -164q0 -55 39 -91t95 -36q88 0 175 85zM536 357h72q-17 -114 -87 -213l116 -145h-92l-74 89q-98 -99 -222 -99q-89 0 -150.5 52t-61.5 138 q0 143 169 224q-70 88 -70 162q0 70 48 111.5t119 41.5q65 0 111 -42.5t46 -104.5q0 -109 -143 -188l155 -184q49 60 64 158z" />
<glyph unicode="'" horiz-adv-x="273" d="M127 712h18q17 0 25 -8.5t7.5 -20t-0.5 -24.5q0 -1 -0.5 -3t-0.5 -3q-10 -120 -13 -146q-2 -18 -6.5 -21.5t-24.5 -3.5q-18 0 -22 6.5t-3 19.5q-3 78 -10 144q-4 35 3.5 47.5t26.5 12.5z" />
<glyph unicode="(" horiz-adv-x="288" d="M126 292q0 -107 40.5 -228.5t106.5 -209.5l-70 -6q-65 84 -107.5 210t-42.5 234t43 234t107 210l70 -6q-65 -84 -106 -207.5t-41 -230.5z" />
<glyph unicode=")" horiz-adv-x="283" d="M166 292q0 106 -41 229t-106 209l70 6q64 -83 107 -208.5t43 -235.5q0 -109 -43 -234.5t-107 -209.5l-70 6q65 86 106 208.5t41 229.5z" />
<glyph unicode="*" horiz-adv-x="525" d="M234 337l9 137l-117 -74l-36 63l121 62l-121 62l36 63l117 -74l-8 137h72l-8 -137l117 74l36 -63l-121 -62l121 -62l-36 -63l-117 74l8 -137h-73z" />
<glyph unicode="+" horiz-adv-x="624" d="M48 317h223v220h74v-220h223v-74h-223v-223h-74v223h-223v74z" />
<glyph unicode="," horiz-adv-x="254" d="M133 96h22q30 0 30 -33q0 -8 -6 -38q-28 -86 -52 -135q-10 -19 -36 -19q-31 0 -20 28h-1q26 91 26 139q0 34 9 46t28 12z" />
<glyph unicode="-" horiz-adv-x="298" d="M26 234v74h246v-74h-246z" />
<glyph unicode="." horiz-adv-x="257" d="M132 103q30 0 39 -10t9 -42q0 -31 -10.5 -42t-37.5 -11q-31 0 -39.5 10t-8.5 43q0 32 10 42t38 10z" />
<glyph unicode="/" horiz-adv-x="350" d="M61 -32h-77l310 766h76z" />
<glyph unicode="0" horiz-adv-x="547" d="M443 355q0 137 -43.5 215.5t-121.5 78.5q-47 0 -81.5 -27.5t-51.5 -73t-24.5 -92.5t-7.5 -99q0 -53 7.5 -101t24.5 -94t51.5 -73t82.5 -27q47 0 81 27.5t51 73t24.5 93t7.5 99.5zM521 357q0 -68 -12 -129.5t-38.5 -116t-76 -87t-116.5 -32.5q-54 0 -97 21.5t-69.5 57 t-44.5 83.5t-25 97.5t-7 103.5q0 69 12 129.5t39 115.5t76.5 87t116.5 32t116 -32t75.5 -86.5t38.5 -115t12 -128.5z" />
<glyph unicode="1" horiz-adv-x="365" d="M197 712h42v-712h-77v623l-79 -36l-27 61z" />
<glyph unicode="2" horiz-adv-x="551" d="M490 0h-441v47q18 25 52.5 63l90 98.5l100.5 112.5q104 120 104 195q0 57 -39 95t-96 38q-50 0 -96 -28.5t-69 -77.5l-43 60q27 52 88.5 84t121.5 32q92 0 152 -55t60 -145q0 -113 -183 -304q-86 -89 -129 -144h327v-71z" />
<glyph unicode="3" horiz-adv-x="551" d="M107 565l-30 74q19 30 72.5 55t112.5 25q92 0 154.5 -47.5t62.5 -134.5q0 -111 -107 -161q54 -20 84 -65t30 -108q0 -100 -67.5 -155.5t-171.5 -55.5q-66 0 -119.5 24.5t-82.5 59.5l40 73q23 -43 68.5 -65t93.5 -22q73 0 117 38.5t44 103.5q0 64 -44 98t-126 34h-48v71 h34q82 0 129.5 34t47.5 96q0 48 -39.5 80t-102.5 32q-44 0 -86 -21.5t-66 -62.5z" />
<glyph unicode="4" horiz-adv-x="552" d="M350 247v340l-239 -340h239zM14 229l345 483h67v-465h102v-70h-102v-177h-76v177h-336v52z" />
<glyph unicode="5" horiz-adv-x="551" d="M126 712h339v-71h-269l-17 -192q31 14 82 14q104 0 169 -63.5t65 -166.5q0 -110 -71 -175.5t-183 -65.5q-51 0 -105.5 20.5t-83.5 57.5l28 70q25 -34 72.5 -56t88.5 -22q78 0 127.5 46t49.5 123q0 75 -47 118.5t-125 43.5q-49 0 -106 -40l-44 6z" />
<glyph unicode="6" horiz-adv-x="567" d="M288 381q-64 0 -113 -38.5t-49 -97.5q13 -183 159 -183q68 0 112 46t44 113q0 71 -42 115.5t-111 44.5zM519 221q0 -98 -69.5 -163.5t-164.5 -65.5q-63 0 -111 25.5t-74.5 68.5t-39.5 94t-13 109q0 94 39.5 191t117 166.5t170.5 69.5q23 0 46 -4l13 -70q-34 7 -55 7 q-104 0 -183 -120q-33 -48 -55 -134q60 57 152 57q100 0 163.5 -66.5t63.5 -164.5z" />
<glyph unicode="7" horiz-adv-x="552" d="M51 712h466v-42l-335 -684l-80 14l318 641h-369v71z" />
<glyph unicode="8" horiz-adv-x="551" d="M279 648q-58 0 -95 -32t-37 -83q0 -46 37 -82.5t95 -47.5q50 10 90.5 48.5t40.5 83.5q0 51 -38.5 82t-92.5 31zM431 192q0 51 -41 88t-111 55q-152 -36 -152 -142q0 -60 44 -95.5t108 -35.5q63 0 107.5 35t44.5 95zM50 189q0 126 126 182q-107 63 -107 164q0 84 63 134 t151 50q87 0 146 -50.5t59 -134.5q0 -102 -107 -163q126 -57 126 -179q0 -95 -65 -147.5t-164 -52.5q-96 0 -162 53t-66 144z" />
<glyph unicode="9" horiz-adv-x="551" d="M430 486q0 63 -45 113t-117 50q-68 0 -111.5 -45t-43.5 -115q0 -69 41.5 -114t110.5 -45q67 0 116 41.5t49 114.5zM35 488q0 100 66.5 165.5t167.5 65.5q65 0 112.5 -23t75 -65t40.5 -94.5t13 -116.5q0 -152 -82 -272q-81 -117 -196 -139q-18 -3 -44 -3q-38 0 -68 5 l-5 74q45 -9 67 -9q112 0 185 110q46 68 60 142q-71 -68 -163 -68q-100 0 -164.5 64t-64.5 164z" />
<glyph unicode=":" horiz-adv-x="270" d="M134 472q30 0 39 -10t9 -43q0 -31 -10.5 -41.5t-37.5 -10.5q-31 0 -39.5 9.5t-8.5 42.5q0 32 10 42.5t38 10.5zM134 104q30 0 39 -10t9 -42q0 -31 -10.5 -42t-37.5 -11q-31 0 -39.5 10t-8.5 43q0 32 10 42t38 10z" />
<glyph unicode=";" horiz-adv-x="284" d="M142 472q29 0 38 -10.5t9 -42.5q0 -31 -10 -41.5t-37 -10.5q-31 0 -39.5 9.5t-8.5 42.5q0 32 10 42.5t38 10.5zM133 96h22q30 0 30 -33q0 -8 -6 -38q-28 -86 -52 -135q-10 -19 -36 -19q-31 0 -20 28h-1q26 91 26 139q0 34 9 46t28 12z" />
<glyph unicode="&#x3c;" horiz-adv-x="609" d="M569 467l-423 -189l423 -189v-74l-520 232v62l520 233v-75z" />
<glyph unicode="=" horiz-adv-x="628" d="M568 339h-520v74h520v-74zM568 143h-520v74h520v-74z" />
<glyph unicode="&#x3e;" horiz-adv-x="626" d="M49 15v74l423 189l-423 189v75l520 -233v-62z" />
<glyph unicode="?" horiz-adv-x="445" d="M196 104q29 0 38 -10t9 -42t-10 -42.5t-37 -10.5q-31 0 -39.5 10t-8.5 43q0 32 10 42t38 10zM202 722q80 0 128.5 -47t48.5 -126q0 -32 -15.5 -63t-29.5 -46.5t-44 -45.5q-47 -47 -61 -68t-14 -47q0 -28 22 -74l-59 -35q-41 59 -41 109q0 12 1.5 22.5t6 21.5t7.5 19 t11 19l12 16.5t14.5 17t14 15l16 16l14.5 14.5q35 35 52 59.5t17 51.5q0 46 -28 73.5t-76 27.5q-31 0 -62.5 -22.5t-46.5 -52.5l-38 60q15 35 58.5 60t91.5 25z" />
<glyph unicode="@" horiz-adv-x="799" d="M426 495q-59 0 -102.5 -57t-43.5 -129q0 -87 69 -87q70 0 111 66q43 72 43 141q0 66 -77 66zM414 722q142 0 245 -93.5t103 -223.5q0 -108 -59.5 -179.5t-142.5 -71.5q-30 0 -53 16t-30 47q-42 -63 -133 -63q-57 0 -97.5 47.5t-40.5 117.5q0 96 69.5 169.5t149.5 73.5 q73 0 111 -36.5t38 -96.5q0 -29 -8 -61l-27 -101q-2 -8 -2 -11q0 -17 8 -29.5t19 -12.5q49 0 88.5 58.5t39.5 135.5q0 101 -82 174t-195 73q-127 0 -219 -93t-92 -224q0 -126 92.5 -219t217.5 -93q82 0 157 36.5t115 96.5l40 -52q-38 -63 -125.5 -105.5t-179.5 -42.5 q-164 0 -276.5 112.5t-112.5 272.5q0 150 112.5 264t269.5 114z" />
<glyph unicode="A" horiz-adv-x="655" d="M200 285h250l-125 321zM360 718l282 -718h-82l-83 214h-306l-83 -214h-81l286 718h67z" />
<glyph unicode="B" horiz-adv-x="580" d="M159 641v-238h92q154 0 154 120q0 118 -155 118h-91zM261 332h-102v-261h111q83 0 129 33.5t46 94.5q0 133 -184 133zM271 0h-190v712h177q227 0 227 -186q0 -106 -89 -150q62 -21 95.5 -66.5t33.5 -106.5q0 -97 -66.5 -150t-187.5 -53z" />
<glyph unicode="C" horiz-adv-x="672" d="M127 356q0 -126 72.5 -210.5t195.5 -84.5t200 95l20 -72q-84 -94 -215 -94q-158 0 -255.5 103t-97.5 263q0 156 98 260.5t251 104.5q137 0 219 -86l-25 -75q-84 90 -197 90q-121 0 -193.5 -84.5t-72.5 -209.5z" />
<glyph unicode="D" horiz-adv-x="679" d="M547 355q0 136 -72.5 211t-204.5 75h-110v-570h93q139 0 216.5 75t77.5 209zM82 0v712h194q165 0 258 -96q93 -94 93 -261q0 -165 -99 -261q-97 -94 -273 -94h-173z" />
<glyph unicode="E" horiz-adv-x="520" d="M468 71v-71h-386v712h377v-71h-299v-236h270v-71h-270v-263h308z" />
<glyph unicode="F" horiz-adv-x="460" d="M156 336v-336h-78v712h359v-71h-281v-233h249v-72h-249z" />
<glyph unicode="G" horiz-adv-x="731" d="M130 357q0 -130 76 -213t200 -83q56 0 109 28t69 75v129h-179v70h257v-233q-80 -140 -259 -140q-159 0 -255.5 105.5t-96.5 261.5q0 158 97 261t250 103q79 0 144 -27q65 -28 103 -76l-34 -68q-91 100 -213 100q-118 0 -193 -82q-75 -83 -75 -211z" />
<glyph unicode="H" horiz-adv-x="700" d="M85 0v712h77v-307h376v307h77v-712h-77v334h-376v-334h-77z" />
<glyph unicode="I" horiz-adv-x="220" d="M153 712v-712h-78v712h78z" />
<glyph unicode="J" horiz-adv-x="301" d="M146 99v613h78v-620q0 -187 -158 -187q-29 0 -61 11t-50 31l35 71q14 -19 36 -30t39 -11q81 0 81 122z" />
<glyph unicode="K" horiz-adv-x="592" d="M164 291v-291h-78v712h78v-319l308 319h104l-324 -330l350 -382h-102l-299 331z" />
<glyph unicode="L" horiz-adv-x="438" d="M78 712h78v-641h274v-71h-352v712z" />
<glyph unicode="M" horiz-adv-x="860" d="M431 179l237 534h86l33 -713h-78l-24 581l-231 -528h-47l-234 530l-24 -583h-78l33 713h89z" />
<glyph unicode="N" horiz-adv-x="740" d="M578 136v576h78v-712h-71l-426 582v-582h-78v712h78z" />
<glyph unicode="O" horiz-adv-x="759" d="M630 356q0 120 -69 207t-183 87t-182.5 -86.5t-68.5 -207.5q0 -122 68 -208.5t183 -86.5t183.5 86.5t68.5 208.5zM710 356q0 -156 -90.5 -261t-241.5 -105q-152 0 -241.5 104.5t-89.5 261.5q0 156 89.5 260.5t241.5 104.5q151 0 241.5 -104.5t90.5 -260.5z" />
<glyph unicode="P" horiz-adv-x="520" d="M161 641v-257h92q160 0 160 130q0 127 -145 127h-107zM265 312h-104v-312h-78v712h186q107 0 165 -52.5t58 -149.5q0 -91 -61.5 -144.5t-165.5 -53.5z" />
<glyph unicode="Q" horiz-adv-x="759" d="M378 61q42 0 74 9l-44 48l54 45l54 -60q114 91 114 253q0 120 -69 207t-183 87t-182.5 -86.5t-68.5 -207.5q0 -122 68 -208.5t183 -86.5zM571 51l95 -99l-57 -44l-101 106q-47 -24 -130 -24q-152 0 -241.5 104.5t-89.5 261.5q0 156 89.5 260.5t241.5 104.5 q151 0 241.5 -104.5t90.5 -260.5q0 -197 -139 -305z" />
<glyph unicode="R" horiz-adv-x="561" d="M161 641v-245h91q72 0 113.5 33t41.5 93q0 119 -151 119h-95zM232 325h-71v-325h-77v712h179q107 0 165.5 -49.5t58.5 -142.5q0 -71 -38 -116.5t-107 -59.5q29 -26 76 -111l130 -233h-87l-118 211l-25 43.5t-23 33.5t-30 28.5t-33 8.5z" />
<glyph unicode="S" horiz-adv-x="509" d="M469 191q0 -89 -65.5 -145t-157.5 -56q-138 0 -205 95l36 77q26 -46 73 -73.5t94 -27.5q60 0 103 36.5t43 94.5q0 23 -9 42.5t-20 32t-34.5 26.5t-40 21.5t-47.5 20.5q-90 38 -136.5 81t-46.5 119q0 83 61.5 134.5t148.5 51.5q55 0 105.5 -22t74.5 -55l-35 -67 q-55 73 -145 73q-57 0 -94 -32.5t-37 -83.5q0 -25 12 -45.5t38.5 -37.5t45.5 -26.5t56 -25.5q91 -40 136.5 -85t45.5 -123z" />
<glyph unicode="T" horiz-adv-x="515" d="M297 641v-641h-78v641h-210v71h498v-71h-210z" />
<glyph unicode="U" horiz-adv-x="679" d="M528 258v454h77v-457q0 -121 -71 -194q-73 -71 -192 -71t-194 70q-70 71 -70 192v460h77v-456q0 -93 49 -144t138 -51q88 0 137 52t49 145z" />
<glyph unicode="V" horiz-adv-x="583" d="M293 123l215 589h80l-269 -719h-55l-265 719h81z" />
<glyph unicode="W" horiz-adv-x="980" d="M706 143l179 569h78l-226 -712h-59l-191 575l-194 -575h-62l-222 712h81l176 -568l192 568h59z" />
<glyph unicode="X" horiz-adv-x="586" d="M298 432l190 280h92l-235 -344l251 -368h-94l-205 304l-207 -304h-92l251 368l-235 344h93z" />
<glyph unicode="Y" horiz-adv-x="581" d="M290 391l204 321h89l-253 -395v-317h-78v318l-253 394h92z" />
<glyph unicode="Z" horiz-adv-x="551" d="M125 71h401v-71h-506v52l396 589h-373v71h478v-51z" />
<glyph unicode="[" horiz-adv-x="284" d="M65 -152v893h205v-63h-132v-766h132v-64h-205z" />
<glyph unicode="\" horiz-adv-x="354" d="M372 -8h-75l-313 742h75z" />
<glyph unicode="]" horiz-adv-x="300" d="M229 719v-892h-205v63h132v766h-132v63h205z" />
<glyph unicode="^" horiz-adv-x="595" d="M308 621l-176 -318h-78l225 410h58l224 -408h-78z" />
<glyph unicode="_" d="M507 -62v-70h-511v70h511z" />
<glyph unicode="`" horiz-adv-x="209" d="M108 701l88 -129h-63l-125 129h100z" />
<glyph unicode="a" horiz-adv-x="482" d="M343 160v74q-40 8 -97 8q-60 0 -99 -26t-39 -80q0 -37 25.5 -58.5t73.5 -21.5t87 29.5t49 74.5zM352 0q-5 29 -6 48q-63 -58 -147 -58q-74 0 -119.5 40.5t-45.5 104.5q0 77 57.5 122.5t157.5 45.5q53 0 94 -6v58q0 86 -108 86q-76 0 -140 -57l-26 59q24 27 75 45.5 t94 18.5q178 0 178 -157v-274q5 -54 6 -76h-70z" />
<glyph unicode="b" horiz-adv-x="549" d="M144 295v-98q0 -58 41.5 -99.5t98.5 -41.5q72 0 111 56.5t39 136.5q0 87 -38.5 139.5t-104.5 52.5q-57 0 -97.5 -41.5t-49.5 -104.5zM145 749v-311q66 68 152 68q99 0 156.5 -69.5t57.5 -187.5q0 -113 -60 -186t-169 -73q-89 0 -149 62q0 -22 -2 -52h-60v749h74z" />
<glyph unicode="c" horiz-adv-x="452" d="M410 121l17 -73q-61 -58 -154 -58q-112 0 -175.5 71.5t-63.5 186.5q0 113 65.5 185.5t175.5 72.5q89 0 148 -58l-18 -71q-60 62 -128 62q-77 0 -122.5 -51.5t-45.5 -137.5q0 -83 44.5 -138.5t123.5 -55.5q31 0 70 18.5t63 46.5z" />
<glyph unicode="d" horiz-adv-x="540" d="M266 56q56 0 95 41.5t43 98.5v106q0 56 -42 96.5t-98 40.5q-69 0 -109.5 -52.5t-40.5 -139.5t41.5 -139t110.5 -52zM408 0l-2 52q-56 -62 -144 -62q-108 0 -166 72.5t-58 184.5q0 114 57 186.5t165 72.5q94 0 144 -58v301h74v-749h-70z" />
<glyph unicode="e" d="M112 298h271q-9 64 -43 102.5t-84 38.5q-58 0 -96.5 -40t-47.5 -101zM414 128l37 -56q-27 -37 -78.5 -59.5t-106.5 -22.5q-109 0 -170.5 69t-61.5 191q0 104 60 180t159 76q98 0 154 -71t56 -202h-355q6 -80 46.5 -128.5t117.5 -48.5q36 0 78 20.5t64 51.5z" />
<glyph unicode="f" horiz-adv-x="281" d="M271 430h-104v-430h-74v430h-82v65h82v91q0 169 142 169q35 0 66 -15v-67q-40 16 -65 16q-69 0 -69 -101v-93h104v-65z" />
<glyph unicode="g" d="M253 -2l-30 3q-38 -7 -60.5 -13.5t-44 -24t-21.5 -42.5q0 -74 150 -74q26 0 50 3.5t48.5 11t39.5 23.5t15 39q0 31 -39.5 51t-107.5 23zM244 442q-51 0 -83 -34t-32 -89q0 -52 31.5 -85.5t82.5 -33.5q52 0 84 32t32 86q0 59 -30.5 91.5t-84.5 32.5zM54 321 q0 80 54.5 132.5t135.5 52.5q55 0 101 -27q51 29 142 29v-64q-53 0 -86 -11q32 -48 32 -114q0 -83 -54 -133.5t-138 -50.5q-23 0 -47 6q-44 -18 -44 -38q0 -31 111 -36q214 -7 214 -140q0 -41 -20 -70.5t-55 -44.5t-71.5 -21.5t-79.5 -6.5q-106 0 -165.5 36t-59.5 99 q0 72 88 112q-37 23 -37 64q0 49 53 77q-74 53 -74 149z" />
<glyph unicode="h" horiz-adv-x="522" d="M456 315v-315h-74v309q0 130 -101 130q-57 0 -97 -41.5t-40 -96.5v-301h-74v749h74v-307q53 64 142 64q170 0 170 -191z" />
<glyph unicode="i" horiz-adv-x="200" d="M67 653q0 27 7.5 39t33.5 12q28 0 34.5 -11.5t6.5 -39.5t-8.5 -39t-32.5 -11q-26 0 -33.5 11.5t-7.5 38.5zM71 500h74v-500h-74v500z" />
<glyph unicode="j" horiz-adv-x="210" d="M66 653q0 27 7.5 39t33.5 12q28 0 34.5 -11.5t6.5 -39.5t-8.5 -39t-32.5 -11q-26 0 -33.5 11.5t-7.5 38.5zM70 -52v552h74v-553q0 -83 -35 -124t-117 -37v72q46 -3 62 16.5t16 73.5z" />
<glyph unicode="k" horiz-adv-x="472" d="M356 500h95l-227 -221l262 -279h-97l-224 235l-20 -19v-216h-74v748h74v-453z" />
<glyph unicode="l" horiz-adv-x="211" d="M67 0v749h74v-749h-74z" />
<glyph unicode="m" horiz-adv-x="799" d="M725 322v-322h-74v320q0 119 -91 119q-51 0 -87.5 -37t-36.5 -95v-307h-73v320q0 119 -90 119q-51 0 -88 -39t-37 -96v-304h-74v500h65l4 -57q53 63 134 63q90 0 131 -74q24 36 64.5 55t85.5 19q167 0 167 -184z" />
<glyph unicode="n" horiz-adv-x="520" d="M456 315v-315h-74v309q0 65 -28.5 99t-79.5 34q-53 0 -91.5 -41.5t-38.5 -99.5v-301h-74v500h68l2 -57q49 65 140 65q84 0 130 -49.5t46 -143.5z" />
<glyph unicode="o" horiz-adv-x="542" d="M429 248q0 80 -42.5 135.5t-116.5 55.5q-75 0 -117 -55.5t-42 -135.5t42 -136t117 -56q74 0 116.5 56t42.5 136zM505 248q0 -112 -63.5 -185t-171.5 -73t-171.5 73t-63.5 185q0 111 63.5 184.5t171.5 73.5t171.5 -73.5t63.5 -184.5z" />
<glyph unicode="p" horiz-adv-x="542" d="M144 290v-92q0 -54 41.5 -98t95.5 -44q72 0 111.5 51t39.5 141q0 78 -39.5 134t-110.5 56q-55 0 -96.5 -43.5t-41.5 -104.5zM145 49v-264h-74v715h64l7 -57q59 62 144 62q107 0 165 -72.5t58 -185.5q0 -109 -57.5 -183t-161.5 -74q-91 0 -145 59z" />
<glyph unicode="q" horiz-adv-x="539" d="M403 193v109q0 61 -41 98.5t-98 37.5q-71 0 -111 -51.5t-40 -141.5q0 -87 40.5 -138.5t111.5 -51.5q53 0 90.5 41.5t47.5 96.5zM403 -215v268q-53 -63 -147 -63q-105 0 -162 72t-57 182q0 121 59 191t164 70q92 0 145 -53l4 48h68v-715h-74z" />
<glyph unicode="r" horiz-adv-x="321" d="M144 270v-270h-74v500h67l4 -62q44 68 117 68q33 0 71 -22l-33 -78q-2 9 -16 20.5t-22 11.5q-37 0 -64 -29t-38.5 -66t-11.5 -73z" />
<glyph unicode="s" horiz-adv-x="393" d="M358 138q0 -65 -48.5 -107t-125.5 -42q-48 0 -92 19t-67 51l29 64q50 -67 132 -67q42 0 70 23t28 57q0 32 -24.5 52.5t-83.5 40.5q-136 49 -136 140q0 62 44 99.5t113 37.5q42 0 82.5 -17t62.5 -42l-35 -60q-48 53 -108 53q-40 0 -63.5 -19.5t-23.5 -50.5q0 -46 102 -80 q71 -25 107.5 -58t36.5 -94z" />
<glyph unicode="t" horiz-adv-x="301" d="M166 429v-326q0 -47 40 -47q22 0 60 18v-69q-44 -13 -77 -13q-97 0 -97 104v333h-86v65h86v134l74 10v-144h107v-65h-107z" />
<glyph unicode="u" horiz-adv-x="519" d="M381 500h74v-500h-62l-4 53q-49 -63 -142 -63q-178 0 -178 187v323h74v-312q0 -132 106 -132q55 0 93.5 36t38.5 90v318z" />
<glyph unicode="v" horiz-adv-x="436" d="M364 500h76l-192 -501h-58l-190 501h76l144 -387z" />
<glyph unicode="w" horiz-adv-x="732" d="M338 500h60l126 -377l132 377h75l-181 -500h-56l-129 379l-128 -379h-60l-176 500h77l130 -380z" />
<glyph unicode="x" horiz-adv-x="468" d="M358 500h89l-177 -236l189 -264h-89l-142 208l-145 -208h-89l191 264l-178 236h91l130 -179z" />
<glyph unicode="y" horiz-adv-x="444" d="M224 120l144 380h79l-250 -626q-18 -46 -48 -68t-85 -22q-2 0 -8 0.5t-9 0.5v66q3 0 7 -0.5t6 -0.5q52 0 67 34l60 142l-190 474h80z" />
<glyph unicode="z" horiz-adv-x="437" d="M40 434v66h381v-43l-300 -391h303v-66h-409v43l304 391h-279z" />
<glyph unicode="{" horiz-adv-x="268" d="M1 277v61q74 18 74 109v166q0 139 129 139h37v-66h-47q-43 0 -43 -68v-161q0 -99 -73 -150q73 -43 73 -149v-161q0 -68 43 -68h47v-65h-37q-129 0 -129 138v166q0 91 -74 109z" />
<glyph unicode="|" horiz-adv-x="242" d="M159 -58h-75v819h75v-819z" />
<glyph unicode="}" horiz-adv-x="263" d="M254 338v-61q-74 -18 -74 -109v-166q0 -138 -129 -138h-37v65h47q43 0 43 68v161q0 99 73 150q-73 43 -73 149v161q0 68 -43 68h-47v66h37q129 0 129 -139v-166q0 -91 74 -109z" />
<glyph unicode="~" horiz-adv-x="624" d="M198 272q-48 0 -98 -77l-42 59q19 40 60 67t82 27q22 0 121 -39q82 -32 98 -32q24 0 45 17.5t53 58.5l42 -57q-19 -40 -57.5 -67.5t-84.5 -27.5q-22 0 -117 38q-80 33 -102 33z" />
<glyph unicode="&#xa1;" horiz-adv-x="283" d="M183 459q0 -50 -49 -50t-49 50q0 51 49 51t49 -51zM173 -202h-77l-2 219l7 319h66l8 -319z" />
<glyph unicode="&#xa2;" horiz-adv-x="488" d="M204 118l95 353q-76 -1 -121 -52.5t-45 -137.5q0 -106 71 -163zM248 24l-32 -116h-66l36 137q-128 68 -128 234q0 113 65.5 185.5t175.5 72.5h17l28 105h67l-32 -120q38 -15 68 -43l-19 -71q-28 29 -64 48l-2 1l-97 -367q10 -2 36 -2q32 0 70.5 17.5t62.5 45.5l17 -72 q-61 -58 -154 -58q-36 0 -49 3z" />
<glyph unicode="&#xa3;" horiz-adv-x="540" d="M340 -5l-193 30q-40 -2 -79 -29l-39 63q37 24 80 34q73 19 73 153q0 45 -1 56h-104v67h94q-22 118 -22 156q0 87 54 138.5t142 51.5q103 0 156 -83l-55 -47q-33 63 -103 63q-116 0 -116 -139q0 -28 23 -140h141v-67h-135q5 -32 5 -65q2 -96 -48 -149q96 -22 140 -22 q76 0 147 50l29 -65q-38 -26 -90.5 -41t-98.5 -15z" />
<glyph unicode="&#xa5;" horiz-adv-x="560" d="M71 208v65h173v32l-16 29h-157v66h120l-181 313h90l184 -329l189 329h88l-183 -313h119v-66h-155l-18 -30v-31h173v-65h-173v-208h-80v208h-173z" />
<glyph unicode="&#xa6;" horiz-adv-x="235" d="M159 -58h-75v325h75v-325zM159 436h-75v325h75v-325z" />
<glyph unicode="&#xa7;" horiz-adv-x="506" d="M217 415q-32 -13 -51 -40.5t-19 -56.5q0 -23 14.5 -46t45.5 -46t47.5 -33.5t52.5 -31.5q31 14 50 41.5t19 56.5q0 23 -13 45t-42 44t-47 33zM449 263q0 -85 -88 -143q64 -50 64 -119q0 -67 -49 -107t-126 -40q-132 0 -170 93l57 45q34 -72 112 -72q41 0 71 21t30 58 q0 49 -79 100l-84 53q-61 39 -87 75t-26 85q0 88 87 144q-63 47 -63 119q0 67 46.5 106.5t121.5 39.5q119 0 161 -97l-52 -40q-33 71 -106 71q-40 0 -68 -20.5t-28 -57.5q0 -52 79 -101l85 -52q112 -69 112 -161z" />
<glyph unicode="&#xa8;" horiz-adv-x="367" d="M92 749q0 27 7 38.5t33 11.5q28 0 34.5 -11.5t6.5 -38.5q0 -28 -8.5 -39.5t-32.5 -11.5q-26 0 -33 11.5t-7 39.5zM192 749q0 27 7.5 38.5t33.5 11.5q19 0 28 -7.5t10.5 -16t1.5 -26.5q0 -28 -8 -39.5t-32 -11.5q-26 0 -33.5 12t-7.5 39z" />
<glyph unicode="&#xa9;" horiz-adv-x="795" d="M568 422l-69 -8q-7 41 -37 66t-68 25q-59 0 -94.5 -41t-35.5 -106q0 -67 34 -111.5t96 -44.5q41 0 70 26t38 70l69 -7q-19 -73 -66.5 -114t-110.5 -41q-91 0 -147.5 62.5t-56.5 155.5q0 95 55 155t149 60q65 0 113 -40t61 -107zM385 639q-116 0 -198 -84.5t-82 -201.5 t82 -201.5t198 -84.5t198 84.5t82 201.5t-82 201.5t-198 84.5zM384 704q145 0 248.5 -103.5t103.5 -247.5q0 -145 -103 -248.5t-248 -103.5q-146 0 -249 103t-103 248t103 248.5t248 103.5z" />
<glyph unicode="&#xaa;" horiz-adv-x="263" d="M175 564v33q-30 3 -43 3q-27 0 -44 -12t-17 -35q0 -34 42 -34q22 0 39.5 12.5t22.5 32.5zM180 481q-3 9 -3 18q-28 -22 -68 -22q-38 0 -61.5 21t-23.5 54q0 41 29.5 64.5t80.5 23.5q29 0 41 -2v22q0 37 -48 37q-37 0 -70 -30l-18 37q14 15 41 25t49 10q91 0 91 -81v-134 l4 -43h-44z" />
<glyph unicode="&#xab;" horiz-adv-x="471" d="M423 463l-143 -191l143 -190h-77l-151 188l151 193h77zM263 463l-144 -191l144 -190h-78l-150 188l150 193h78z" />
<glyph unicode="&#xad;" horiz-adv-x="298" d="M26 234v74h246v-74h-246z" />
<glyph unicode="&#xae;" horiz-adv-x="515" d="M218 578v-61h48q45 0 45 33q0 28 -44 28h-49zM258 670q-72 0 -123 -52.5t-51 -124.5t51 -124.5t123 -52.5q62 0 112 43h-52l-43 77q-16 30 -24 32q-1 0 -3 1h-30l1 -110h-53v266h109q92 0 92 -75q0 -63 -55 -76q4 -4 26 -43l39 -66q54 52 54 128q0 72 -51 124.5 t-122 52.5zM257 718q92 0 159.5 -66.5t67.5 -158.5q0 -93 -67 -160t-159 -67q-94 0 -160.5 66.5t-66.5 159.5t66.5 159.5t159.5 66.5z" />
<glyph unicode="&#xaf;" d="M118 712v71h289v-71h-289z" />
<glyph unicode="&#xb0;" horiz-adv-x="270" d="M134 677q-19 0 -33 -14t-14 -33t14 -33t33 -14t33 14t14 33t-14 33t-33 14zM134 730q40 0 70 -30t30 -70t-30 -70t-70 -30q-42 0 -71 29.5t-29 70.5t29 70.5t71 29.5z" />
<glyph unicode="&#xb1;" horiz-adv-x="621" d="M49 0v65h520v-65h-520zM48 366h223v195h74v-195h223v-74h-223v-199h-74v199h-223v74z" />
<glyph unicode="&#xb2;" horiz-adv-x="422" d="M348 292h-294v35q20 23 160 161q67 67 67 112q0 33 -24 54t-61 21q-66 0 -103 -64l-38 37q18 32 57.5 54t84.5 22q63 0 102 -34t39 -88q0 -69 -88 -152q-76 -70 -110 -109h208v-49z" />
<glyph unicode="&#xb3;" horiz-adv-x="415" d="M87 619l-26 47q14 24 49 40t76 16q65 0 105 -30.5t40 -80.5q0 -67 -60 -96q64 -27 64 -102q0 -58 -43.5 -93t-115.5 -35q-46 0 -82.5 17.5t-48.5 42.5l27 42q32 -53 104 -53q46 0 74 22t28 58q0 74 -107 74h-34v50h25q112 0 112 73q0 27 -25 44.5t-65 17.5q-71 0 -97 -54 z" />
<glyph unicode="&#xb4;" horiz-adv-x="455" d="M197 700h-63l112 158h100z" />
<glyph unicode="&#xb5;" horiz-adv-x="522" d="M387 500h74v-500h-62l-1 58q-42 -64 -133 -64q-69 0 -113 29v-177h-74v654h74v-308q0 -65 29.5 -98.5t82.5 -33.5q51 0 85 37t38 90v313z" />
<glyph unicode="&#xb6;" horiz-adv-x="585" d="M537 650h-42v-783h-76v781h-94v-781h-76v455q-84 2 -140.5 59t-56.5 141q0 92 59.5 144t163.5 52h262v-68z" />
<glyph unicode="&#xb7;" horiz-adv-x="259" d="M132 320q30 0 39 -10t9 -43q0 -31 -10.5 -41.5t-37.5 -10.5q-31 0 -39.5 10t-8.5 42t10 42.5t38 10.5z" />
<glyph unicode="&#xb8;" horiz-adv-x="417" d="M116 -169l1 54q49 -17 63 -17q34 0 34 20q0 19 -27 19h-41l56 114h57l-41 -74q29 0 47.5 -17.5t18.5 -44.5q0 -67 -89 -67q-32 0 -79 13z" />
<glyph unicode="&#xb9;" horiz-adv-x="337" d="M184 718h32v-427h-57v373l-59 -24l-10 40z" />
<glyph unicode="&#xba;" horiz-adv-x="288" d="M214 615q0 37 -19.5 63t-53.5 26t-53.5 -26t-19.5 -63t19.5 -63t53.5 -26t53.5 26t19.5 63zM261 615q0 -56 -32.5 -93.5t-87.5 -37.5t-87.5 37.5t-32.5 93.5t32.5 93.5t87.5 37.5t87.5 -37.5t32.5 -93.5z" />
<glyph unicode="&#xbb;" horiz-adv-x="472" d="M218 82l143 190l-143 195h78l148 -193l-148 -192h-78zM58 82l142 190l-142 195h77l149 -193l-149 -192h-77z" />
<glyph unicode="&#xbc;" horiz-adv-x="851" d="M648 154v190l-144 -190h144zM192 718h32v-426h-57v372l-59 -24l-10 40zM209 -17l-70 1l450 743h70zM430 141l227 292h48v-279h65v-50h-65v-104h-57v104h-218v37z" />
<glyph unicode="&#xbd;" horiz-adv-x="870" d="M188 718h32v-426h-57v372l-59 -24l-10 40zM781 0h-293v35q37 42 159 161q67 66 67 112q0 33 -24 54t-60 21q-67 0 -104 -64l-37 38q17 32 56.5 54t84.5 22q63 0 102 -34.5t39 -88.5q0 -69 -88 -152q-74 -66 -110 -108h208v-50zM190 -15h-70l449 742h70z" />
<glyph unicode="&#xbe;" horiz-adv-x="862" d="M677 154v186l-141 -186h141zM93 619l-26 47q15 24 50 40t76 16q65 0 104.5 -30.5t39.5 -80.5q0 -67 -60 -96q64 -27 64 -102q0 -58 -43.5 -93t-114.5 -35q-46 0 -82.5 17.5t-48.5 42.5l27 42q31 -53 104 -53q46 0 73.5 22t27.5 58q0 74 -107 74h-34v50h25q112 0 112 73 q0 27 -25 44.5t-64 17.5q-70 0 -98 -54zM260 -17l-70 1l449 743h70zM459 141l227 291h48v-278h65v-50h-65v-104h-57v104h-218v37z" />
<glyph unicode="&#xbf;" horiz-adv-x="445" d="M249 405q-29 0 -38 10t-9 42t10 42.5t37 10.5q31 0 39.5 -10t8.5 -43q0 -32 -10 -42t-38 -10zM243 -213q-80 0 -128.5 47t-48.5 126q0 32 15.5 63t29.5 46.5t44 45.5q47 47 61 68t14 47q0 28 -22 74l59 35q41 -59 41 -109q0 -12 -1.5 -22.5t-6 -21.5t-7.5 -19t-11 -19 l-12 -16.5t-14.5 -17t-14 -15l-16 -16l-14.5 -14.5q-35 -35 -52 -59.5t-17 -51.5q0 -46 28 -73.5t76 -27.5q31 0 62.5 22.5t46.5 52.5l38 -60q-15 -35 -58.5 -60t-91.5 -25z" />
<glyph unicode="&#xc0;" horiz-adv-x="655" d="M299 850l89 -130h-64l-125 130h100zM200 285h250l-125 321zM360 718l282 -718h-82l-83 214h-306l-83 -214h-81l286 718h67z" />
<glyph unicode="&#xc1;" horiz-adv-x="655" d="M310 726h-62l79 132h100zM200 285h250l-125 321zM360 718l282 -718h-82l-83 214h-306l-83 -214h-81l286 718h67z" />
<glyph unicode="&#xc2;" horiz-adv-x="655" d="M255 714h-63l94 132h82l88 -129h-63l-66 69zM200 285h250l-125 321zM360 718l282 -718h-82l-83 214h-306l-83 -214h-81l286 718h67z" />
<glyph unicode="&#xc3;" horiz-adv-x="655" d="M418 821h52q-16 -96 -83 -96q-19 0 -64 18h1q-41 15 -54 15q-20 0 -31 -33h-49q17 96 82 96q18 0 65 -18h-1q41 -15 54 -15q19 0 28 33zM200 285h250l-125 321zM360 718l282 -718h-82l-83 214h-306l-83 -214h-81l286 718h67z" />
<glyph unicode="&#xc4;" horiz-adv-x="655" d="M224 794q0 27 7.5 39t33.5 12q28 0 34.5 -12t6.5 -39q0 -28 -8.5 -39t-32.5 -11q-26 0 -33.5 11.5t-7.5 38.5zM342 794q0 27 7.5 39t33.5 12q28 0 34.5 -12t6.5 -39q0 -28 -8.5 -39t-32.5 -11q-26 0 -33.5 11.5t-7.5 38.5zM200 285h250l-125 321zM360 718l282 -718h-82 l-83 214h-306l-83 -214h-81l286 718h67z" />
<glyph unicode="&#xc5;" horiz-adv-x="655" d="M324 804q-17 0 -29 -12t-12 -29q0 -27 30 -38h21q31 11 31 38q0 17 -12 29t-29 12zM200 285h250l-125 321zM324 854q37 0 63.5 -26.5t26.5 -64.5q0 -47 -43 -76l271 -687h-82l-83 214h-306l-83 -214h-81l272 684q-45 25 -45 79q0 38 26 64.5t64 26.5z" />
<glyph unicode="&#xc6;" horiz-adv-x="930" d="M457 645l-198 -344h202v344h-4zM461 231h-240l-137 -231h-89l418 712h417v-71h-291v-236h263v-71h-263v-263h301v-71h-379v231z" />
<glyph unicode="&#xc7;" horiz-adv-x="672" d="M127 356q0 -126 72.5 -210.5t195.5 -84.5t200 95l20 -72q-79 -88 -199 -94l-24 -43q28 0 46.5 -17.5t18.5 -44.5q0 -67 -88 -67q-33 0 -79 13l1 54q47 -17 62 -17q34 0 34 20q0 19 -26 19h-42l42 85q-142 13 -228 114t-86 250q0 156 98 260.5t251 104.5q137 0 219 -86 l-25 -75q-84 90 -197 90q-121 0 -193.5 -84.5t-72.5 -209.5z" />
<glyph unicode="&#xc8;" horiz-adv-x="520" d="M252 846l88 -129h-63l-125 129h100zM468 71v-71h-386v712h377v-71h-299v-236h270v-71h-270v-263h308z" />
<glyph unicode="&#xc9;" horiz-adv-x="520" d="M284 731h-63l111 159h101zM468 71v-71h-386v712h377v-71h-299v-236h270v-71h-270v-263h308z" />
<glyph unicode="&#xca;" horiz-adv-x="520" d="M214 716h-63l94 130h82l88 -129h-63l-66 69zM468 71v-71h-386v712h377v-71h-299v-236h270v-71h-270v-263h308z" />
<glyph unicode="&#xcb;" horiz-adv-x="520" d="M301 794q0 27 7.5 39t33.5 12q28 0 34.5 -12t6.5 -39q0 -28 -8.5 -39t-32.5 -11q-26 0 -33.5 11.5t-7.5 38.5zM183 794q0 27 7.5 39t32.5 12q28 0 34.5 -12t6.5 -39q0 -28 -8 -39t-33 -11t-32.5 11.5t-7.5 38.5zM468 71v-71h-386v712h377v-71h-299v-236h270v-71h-270 v-263h308z" />
<glyph unicode="&#xcc;" horiz-adv-x="220" d="M96 855l88 -129h-63l-125 129h100zM153 712v-712h-78v712h78z" />
<glyph unicode="&#xcd;" horiz-adv-x="220" d="M111 726h-62l78 132h100zM153 712v-712h-78v712h78z" />
<glyph unicode="&#xce;" horiz-adv-x="220" d="M45 714h-63l94 132h82l88 -129h-63l-66 69zM153 712v-712h-78v712h78z" />
<glyph unicode="&#xcf;" horiz-adv-x="220" d="M130 794q0 27 7.5 39t33.5 12q28 0 34.5 -12t6.5 -39q0 -28 -8.5 -39t-32.5 -11q-26 0 -33.5 11.5t-7.5 38.5zM12 794q0 27 7.5 39t33.5 12q28 0 34.5 -12t6.5 -39q0 -28 -8.5 -39t-32.5 -11q-26 0 -33.5 11.5t-7.5 38.5zM153 712v-712h-78v712h78z" />
<glyph unicode="&#xd0;" horiz-adv-x="679" d="M0 334v70h82v308h194q165 0 258 -96q93 -94 93 -261q0 -165 -99 -261q-97 -94 -273 -94h-173v334h-82zM547 355q0 136 -72.5 211t-204.5 75h-110v-237h197v-70h-197v-263h93q139 0 216.5 75t77.5 209z" />
<glyph unicode="&#xd1;" horiz-adv-x="740" d="M472 807h52q-17 -95 -83 -95q-21 0 -64 17h1q-46 16 -55 16q-19 0 -30 -33h-49q15 95 82 95q19 0 64 -18h-1q49 -15 55 -15q19 0 28 33zM578 136v576h78v-712h-71l-426 582v-582h-78v712h78z" />
<glyph unicode="&#xd2;" horiz-adv-x="759" d="M710 356q0 -156 -90.5 -261t-241.5 -105q-152 0 -241.5 104.5t-89.5 261.5q0 156 89.5 260.5t241.5 104.5h5l-124 129h100l89 -130h-40q139 -11 220.5 -113.5t81.5 -250.5zM630 356q0 120 -69 207t-183 87t-182.5 -86.5t-68.5 -207.5q0 -122 68 -208.5t183 -86.5 t183.5 86.5t68.5 208.5z" />
<glyph unicode="&#xd3;" horiz-adv-x="759" d="M355 726h-63l88 132h100zM630 356q0 120 -69 207t-183 87t-182.5 -86.5t-68.5 -207.5q0 -122 68 -208.5t183 -86.5t183.5 86.5t68.5 208.5zM710 356q0 -156 -90.5 -261t-241.5 -105q-152 0 -241.5 104.5t-89.5 261.5q0 156 89.5 260.5t241.5 104.5q151 0 241.5 -104.5 t90.5 -260.5z" />
<glyph unicode="&#xd4;" horiz-adv-x="759" d="M305 716h-63l94 130h82l88 -129h-63l-66 69zM630 356q0 120 -69 207t-183 87t-182.5 -86.5t-68.5 -207.5q0 -122 68 -208.5t183 -86.5t183.5 86.5t68.5 208.5zM710 356q0 -156 -90.5 -261t-241.5 -105q-152 0 -241.5 104.5t-89.5 261.5q0 156 89.5 260.5t241.5 104.5 q151 0 241.5 -104.5t90.5 -260.5z" />
<glyph unicode="&#xd5;" horiz-adv-x="759" d="M473 821h52q-17 -96 -83 -96q-19 0 -64 18h1q-41 15 -54 15q-21 0 -31 -33h-49q15 96 82 96q18 0 65 -18h-1q41 -15 54 -15q19 0 28 33zM630 356q0 120 -69 207t-183 87t-182.5 -86.5t-68.5 -207.5q0 -122 68 -208.5t183 -86.5t183.5 86.5t68.5 208.5zM710 356 q0 -156 -90.5 -261t-241.5 -105q-152 0 -241.5 104.5t-89.5 261.5q0 156 89.5 260.5t241.5 104.5q151 0 241.5 -104.5t90.5 -260.5z" />
<glyph unicode="&#xd6;" horiz-adv-x="759" d="M277 794q0 27 7.5 39t33.5 12q28 0 34.5 -12t6.5 -39q0 -28 -8.5 -39t-32.5 -11q-26 0 -33.5 11.5t-7.5 38.5zM396 794q0 28 7 39.5t33 11.5q28 0 34.5 -12t6.5 -39q0 -28 -8.5 -39t-32.5 -11q-26 0 -33 11.5t-7 38.5zM630 356q0 120 -69 207t-183 87t-182.5 -86.5 t-68.5 -207.5q0 -122 68 -208.5t183 -86.5t183.5 86.5t68.5 208.5zM710 356q0 -156 -90.5 -261t-241.5 -105q-152 0 -241.5 104.5t-89.5 261.5q0 156 89.5 260.5t241.5 104.5q151 0 241.5 -104.5t90.5 -260.5z" />
<glyph unicode="&#xd7;" horiz-adv-x="621" d="M65 88l190 190l-190 191l52 52l191 -190l191 190l52 -52l-190 -191l190 -190l-52 -53l-191 191l-191 -191z" />
<glyph unicode="&#xd8;" horiz-adv-x="759" d="M710 356q0 -156 -90.5 -261t-241.5 -105q-118 0 -203 67l-46 -59h-81l81 105q-82 102 -82 253q0 156 89.5 260.5t241.5 104.5q108 0 187 -56l43 56h80l-75 -97q97 -105 97 -268zM630 356q0 120 -67 204l-341 -442q63 -57 156 -57q115 0 183.5 86.5t68.5 208.5zM127 356 q0 -108 52 -188l338 436q-60 46 -139 46q-114 0 -182.5 -86.5t-68.5 -207.5z" />
<glyph unicode="&#xd9;" horiz-adv-x="679" d="M323 832l89 -129h-63l-126 129h100zM528 258v454h77v-457q0 -121 -71 -194q-73 -71 -192 -71t-194 70q-70 71 -70 192v460h77v-456q0 -93 49 -144t138 -51q88 0 137 52t49 145z" />
<glyph unicode="&#xda;" horiz-adv-x="679" d="M335 700h-63l112 158h100zM528 258v454h77v-457q0 -121 -71 -194q-73 -71 -192 -71t-194 70q-70 71 -70 192v460h77v-456q0 -93 49 -144t138 -51q88 0 137 52t49 145z" />
<glyph unicode="&#xdb;" horiz-adv-x="679" d="M273 714h-63l94 132h83l87 -129h-63l-66 69zM528 258v454h77v-457q0 -121 -71 -194q-73 -71 -192 -71t-194 70q-70 71 -70 192v460h77v-456q0 -93 49 -144t138 -51q88 0 137 52t49 145z" />
<glyph unicode="&#xdc;" horiz-adv-x="679" d="M245 794q0 27 7.5 39t33.5 12q19 0 28 -7.5t10.5 -16t1.5 -27.5q0 -28 -8 -39t-32 -11q-26 0 -33.5 11.5t-7.5 38.5zM363 794q0 27 7.5 39t33.5 12q28 0 34.5 -12t6.5 -39q0 -28 -8.5 -39t-32.5 -11q-26 0 -33.5 11.5t-7.5 38.5zM528 258v454h77v-457q0 -121 -71 -194 q-73 -71 -192 -71t-194 70q-70 71 -70 192v460h77v-456q0 -93 49 -144t138 -51q88 0 137 52t49 145z" />
<glyph unicode="&#xdd;" horiz-adv-x="581" d="M284 700h-63l112 158h100zM290 391l204 321h89l-253 -395v-317h-78v318l-253 394h92z" />
<glyph unicode="&#xde;" horiz-adv-x="528" d="M161 499v-259h92q160 0 160 132q0 127 -145 127h-107zM83 0v712h78v-142h105q107 0 166.5 -52.5t59.5 -149.5q0 -92 -61.5 -145.5t-165.5 -53.5h-104v-169h-78z" />
<glyph unicode="&#xdf;" horiz-adv-x="527" d="M143 530v-530h-73v544q0 97 48 153t142 56q82 0 132 -49t50 -129q0 -100 -85 -150q64 -20 99.5 -72t35.5 -127q0 -99 -59 -165.5t-154 -66.5q-35 0 -79 11l15 73q38 -16 64 -16q58 0 97 48.5t39 114.5q0 74 -41.5 116t-119.5 42h-23v66h22q51 0 82 35t31 90q0 52 -30 83 t-81 31q-112 0 -112 -158z" />
<glyph unicode="&#xe0;" horiz-adv-x="482" d="M208 651l88 -129h-63l-126 129h101zM343 160v74q-40 8 -97 8q-60 0 -99 -26t-39 -80q0 -37 25.5 -58.5t73.5 -21.5t87 29.5t49 74.5zM352 0q-5 29 -6 48q-63 -58 -147 -58q-74 0 -119.5 40.5t-45.5 104.5q0 77 57.5 122.5t157.5 45.5q53 0 94 -6v58q0 86 -108 86 q-76 0 -140 -57l-26 59q24 27 75 45.5t94 18.5q178 0 178 -157v-274q5 -54 6 -76h-70z" />
<glyph unicode="&#xe1;" horiz-adv-x="482" d="M247 519h-62l78 132h100zM343 160v74q-40 8 -97 8q-60 0 -99 -26t-39 -80q0 -37 25.5 -58.5t73.5 -21.5t87 29.5t49 74.5zM352 0q-5 29 -6 48q-63 -58 -147 -58q-74 0 -119.5 40.5t-45.5 104.5q0 77 57.5 122.5t157.5 45.5q53 0 94 -6v58q0 86 -108 86q-76 0 -140 -57 l-26 59q24 27 75 45.5t94 18.5q178 0 178 -157v-274q5 -54 6 -76h-70z" />
<glyph unicode="&#xe2;" horiz-adv-x="482" d="M168 522h-63l94 132h82l88 -129h-63l-66 69zM343 160v74q-40 8 -97 8q-60 0 -99 -26t-39 -80q0 -37 25.5 -58.5t73.5 -21.5t87 29.5t49 74.5zM352 0q-5 29 -6 48q-63 -58 -147 -58q-74 0 -119.5 40.5t-45.5 104.5q0 77 57.5 122.5t157.5 45.5q53 0 94 -6v58q0 86 -108 86 q-76 0 -140 -57l-26 59q24 27 75 45.5t94 18.5q178 0 178 -157v-274q5 -54 6 -76h-70z" />
<glyph unicode="&#xe3;" horiz-adv-x="482" d="M324 614h52q-17 -95 -83 -95q-19 0 -64 18h1q-47 15 -55 15q-20 0 -30 -33h-49q15 95 82 95q21 0 65 -17h-1q44 -16 54 -16q19 0 28 33zM343 160v74q-40 8 -97 8q-60 0 -99 -26t-39 -80q0 -37 25.5 -58.5t73.5 -21.5t87 29.5t49 74.5zM352 0q-5 29 -6 48 q-63 -58 -147 -58q-74 0 -119.5 40.5t-45.5 104.5q0 77 57.5 122.5t157.5 45.5q53 0 94 -6v58q0 86 -108 86q-76 0 -140 -57l-26 59q24 27 75 45.5t94 18.5q178 0 178 -157v-274q5 -54 6 -76h-70z" />
<glyph unicode="&#xe4;" horiz-adv-x="482" d="M140 596q0 28 7 39.5t33 11.5q28 0 34.5 -12t6.5 -39q0 -28 -8.5 -39.5t-32.5 -11.5q-26 0 -33 11.5t-7 39.5zM258 596q0 27 7.5 39t33.5 12q28 0 34.5 -12t6.5 -39q0 -28 -8.5 -39.5t-32.5 -11.5q-26 0 -33.5 12t-7.5 39zM343 160v74q-40 8 -97 8q-60 0 -99 -26t-39 -80 q0 -37 25.5 -58.5t73.5 -21.5t87 29.5t49 74.5zM352 0q-5 29 -6 48q-63 -58 -147 -58q-74 0 -119.5 40.5t-45.5 104.5q0 77 57.5 122.5t157.5 45.5q53 0 94 -6v58q0 86 -108 86q-76 0 -140 -57l-26 59q24 27 75 45.5t94 18.5q178 0 178 -157v-274q5 -54 6 -76h-70z" />
<glyph unicode="&#xe5;" horiz-adv-x="482" d="M242 638q-15 0 -25 -10.5t-10 -24.5q0 -15 10 -25t25 -10q14 0 24.5 10t10.5 25q0 14 -10.5 24.5t-24.5 10.5zM242 684q32 0 56.5 -24t24.5 -57t-24.5 -57.5t-56.5 -24.5q-34 0 -58 24.5t-24 57.5t24 57t58 24zM343 160v74q-40 8 -97 8q-60 0 -99 -26t-39 -80 q0 -37 25.5 -58.5t73.5 -21.5t87 29.5t49 74.5zM352 0q-5 29 -6 48q-63 -58 -147 -58q-74 0 -119.5 40.5t-45.5 104.5q0 77 57.5 122.5t157.5 45.5q53 0 94 -6v58q0 86 -108 86q-76 0 -140 -57l-26 59q24 27 75 45.5t94 18.5q178 0 178 -157v-274q5 -54 6 -76h-70z" />
<glyph unicode="&#xe6;" horiz-adv-x="806" d="M413 298h257q-5 66 -37 103.5t-84 37.5q-55 0 -91 -40.5t-45 -100.5zM340 180v54q-30 6 -77 6q-74 0 -114 -29t-40 -76q0 -79 97 -79q51 0 92.5 35t41.5 89zM238 506q113 0 154 -79q59 79 157 79q91 0 144 -65.5t55 -177.5v-30h-339q3 -79 42 -128t115 -49q34 0 76.5 24 t64.5 58l26 -67q-26 -36 -76.5 -58.5t-105.5 -22.5q-109 0 -170 90q-57 -90 -186 -90q-73 0 -117 40t-44 104q0 76 56.5 122t157.5 46q60 0 92 -3v42q0 99 -106 99q-74 0 -141 -59l-19 65q29 28 75.5 44t88.5 16z" />
<glyph unicode="&#xe7;" horiz-adv-x="452" d="M410 121l17 -73q-58 -55 -144 -58l-24 -43q28 0 46.5 -17.5t18.5 -44.5q0 -67 -88 -67q-34 0 -79 13l1 54q47 -17 62 -17q34 0 34 20q0 19 -26 19h-42l42 86q-91 14 -142.5 83.5t-51.5 171.5q0 113 65.5 185.5t175.5 72.5q89 0 148 -58l-18 -71q-60 62 -128 62 q-77 0 -122.5 -51.5t-45.5 -137.5q0 -83 44.5 -138.5t123.5 -55.5q31 0 70 18.5t63 46.5z" />
<glyph unicode="&#xe8;" d="M239 651l89 -129h-63l-126 129h100zM112 298h271q-9 64 -43 102.5t-84 38.5q-58 0 -96.5 -40t-47.5 -101zM414 128l37 -56q-27 -37 -78.5 -59.5t-106.5 -22.5q-109 0 -170.5 69t-61.5 191q0 104 60 180t159 76q98 0 154 -71t56 -202h-355q6 -80 46.5 -128.5t117.5 -48.5 q36 0 78 20.5t64 51.5z" />
<glyph unicode="&#xe9;" d="M243 519h-62l79 132h100zM112 298h271q-9 64 -43 102.5t-84 38.5q-58 0 -96.5 -40t-47.5 -101zM414 128l37 -56q-27 -37 -78.5 -59.5t-106.5 -22.5q-109 0 -170.5 69t-61.5 191q0 104 60 180t159 76q98 0 154 -71t56 -202h-355q6 -80 46.5 -128.5t117.5 -48.5 q36 0 78 20.5t64 51.5z" />
<glyph unicode="&#xea;" d="M183 522h-63l94 132h83l87 -129h-63l-66 69zM112 298h271q-9 64 -43 102.5t-84 38.5q-58 0 -96.5 -40t-47.5 -101zM414 128l37 -56q-27 -37 -78.5 -59.5t-106.5 -22.5q-109 0 -170.5 69t-61.5 191q0 104 60 180t159 76q98 0 154 -71t56 -202h-355q6 -80 46.5 -128.5 t117.5 -48.5q36 0 78 20.5t64 51.5z" />
<glyph unicode="&#xeb;" d="M154 596q0 27 7.5 39t33.5 12q19 0 28 -7.5t10.5 -16t1.5 -27.5q0 -28 -8 -39.5t-32 -11.5q-26 0 -33.5 12t-7.5 39zM272 596q0 27 7.5 39t33.5 12q28 0 34.5 -12t6.5 -39q0 -28 -8.5 -39.5t-32.5 -11.5q-26 0 -33.5 12t-7.5 39zM112 298h271q-9 64 -43 102.5t-84 38.5 q-58 0 -96.5 -40t-47.5 -101zM414 128l37 -56q-27 -37 -78.5 -59.5t-106.5 -22.5q-109 0 -170.5 69t-61.5 191q0 104 60 180t159 76q98 0 154 -71t56 -202h-355q6 -80 46.5 -128.5t117.5 -48.5q36 0 78 20.5t64 51.5z" />
<glyph unicode="&#xec;" horiz-adv-x="200" d="M94 651l88 -129h-63l-125 129h100zM71 500h74v-500h-74v500z" />
<glyph unicode="&#xed;" horiz-adv-x="200" d="M99 519h-62l78 132h100zM71 500h74v-500h-74v500z" />
<glyph unicode="&#xee;" horiz-adv-x="200" d="M37 522h-63l94 132h83l87 -129h-63l-66 69zM71 500h74v-500h-74v500z" />
<glyph unicode="&#xef;" horiz-adv-x="200" d="M128 596q0 27 7.5 39t33.5 12q28 0 34.5 -12t6.5 -39q0 -28 -8.5 -39.5t-32.5 -11.5q-26 0 -33.5 12t-7.5 39zM10 596q0 27 7.5 39t33.5 12q28 0 34.5 -12t6.5 -39q0 -28 -8.5 -39.5t-32.5 -11.5q-26 0 -33.5 12t-7.5 39zM71 500h74v-500h-74v500z" />
<glyph unicode="&#xf0;" horiz-adv-x="540" d="M274 441q-77 0 -120.5 -56t-43.5 -139q0 -80 44 -136t120 -56q74 0 117.5 57t43.5 136q0 83 -42 138.5t-119 55.5zM510 266q0 -121 -60.5 -199t-175.5 -78q-109 0 -174 72.5t-65 184.5t65 186t174 74q70 0 126 -41q-32 77 -100 139l-107 -64l-39 51l92 55q-48 29 -110 47 l35 58q90 -31 139 -68l97 59l36 -53l-82 -49q149 -145 149 -374z" />
<glyph unicode="&#xf1;" horiz-adv-x="520" d="M359 614h52q-17 -95 -83 -95q-19 0 -64 18h1q-47 15 -55 15q-20 0 -30 -33h-49q15 95 82 95q21 0 65 -17h-1q44 -16 54 -16q19 0 28 33zM456 315v-315h-74v309q0 65 -28.5 99t-79.5 34q-53 0 -91.5 -41.5t-38.5 -99.5v-301h-74v500h68l2 -57q49 65 140 65q84 0 130 -49.5 t46 -143.5z" />
<glyph unicode="&#xf2;" horiz-adv-x="542" d="M259 651l89 -129h-63l-126 129h100zM429 248q0 80 -42.5 135.5t-116.5 55.5q-75 0 -117 -55.5t-42 -135.5t42 -136t117 -56q74 0 116.5 56t42.5 136zM505 248q0 -112 -63.5 -185t-171.5 -73t-171.5 73t-63.5 185q0 111 63.5 184.5t171.5 73.5t171.5 -73.5t63.5 -184.5z " />
<glyph unicode="&#xf3;" horiz-adv-x="542" d="M253 519h-62l79 132h100zM429 248q0 80 -42.5 135.5t-116.5 55.5q-75 0 -117 -55.5t-42 -135.5t42 -136t117 -56q74 0 116.5 56t42.5 136zM505 248q0 -112 -63.5 -185t-171.5 -73t-171.5 73t-63.5 185q0 111 63.5 184.5t171.5 73.5t171.5 -73.5t63.5 -184.5z" />
<glyph unicode="&#xf4;" horiz-adv-x="542" d="M195 522h-63l94 132h83l87 -129h-63l-66 69zM429 248q0 80 -42.5 135.5t-116.5 55.5q-75 0 -117 -55.5t-42 -135.5t42 -136t117 -56q74 0 116.5 56t42.5 136zM505 248q0 -112 -63.5 -185t-171.5 -73t-171.5 73t-63.5 185q0 111 63.5 184.5t171.5 73.5t171.5 -73.5 t63.5 -184.5z" />
<glyph unicode="&#xf5;" horiz-adv-x="542" d="M371 614h52q-17 -95 -83 -95q-19 0 -64 18h1q-49 15 -55 15q-20 0 -30 -33h-49q15 95 82 95q21 0 64 -17h-1q46 -16 55 -16q19 0 28 33zM429 248q0 80 -42.5 135.5t-116.5 55.5q-75 0 -117 -55.5t-42 -135.5t42 -136t117 -56q74 0 116.5 56t42.5 136zM505 248 q0 -112 -63.5 -185t-171.5 -73t-171.5 73t-63.5 185q0 111 63.5 184.5t171.5 73.5t171.5 -73.5t63.5 -184.5z" />
<glyph unicode="&#xf6;" horiz-adv-x="542" d="M169 596q0 27 7.5 39t33.5 12q28 0 34.5 -12t6.5 -39q0 -28 -8.5 -39.5t-32.5 -11.5q-26 0 -33.5 12t-7.5 39zM288 596q0 28 7 39.5t33 11.5q28 0 34.5 -12t6.5 -39q0 -28 -8.5 -39.5t-32.5 -11.5q-26 0 -33 11.5t-7 39.5zM429 248q0 80 -42.5 135.5t-116.5 55.5 q-75 0 -117 -55.5t-42 -135.5t42 -136t117 -56q74 0 116.5 56t42.5 136zM505 248q0 -112 -63.5 -185t-171.5 -73t-171.5 73t-63.5 185q0 111 63.5 184.5t171.5 73.5t171.5 -73.5t63.5 -184.5z" />
<glyph unicode="&#xf7;" horiz-adv-x="613" d="M312 517q30 0 39 -10t9 -42q0 -31 -10.5 -42t-37.5 -11q-31 0 -39.5 10t-8.5 43q0 32 10 42t38 10zM312 150q30 0 39 -10t9 -43q0 -31 -10.5 -41.5t-37.5 -10.5q-31 0 -39.5 9.5t-8.5 42.5q0 32 10 42.5t38 10.5zM568 241h-520v74h520v-74z" />
<glyph unicode="&#xf8;" horiz-adv-x="542" d="M505 248q0 -112 -63.5 -185t-171.5 -73q-80 0 -138 42l-27 -34h-81l63 78q-52 69 -52 172q0 111 63.5 184.5t171.5 73.5q78 0 135 -41l30 36h80l-65 -80q55 -69 55 -173zM429 248q0 66 -28 113l-224 -274q39 -31 93 -31q74 0 116.5 56t42.5 136zM111 248q0 -66 26 -112 l223 273q-38 30 -90 30q-75 0 -117 -55.5t-42 -135.5z" />
<glyph unicode="&#xf9;" horiz-adv-x="519" d="M243 651l88 -129h-63l-126 129h101zM381 500h74v-500h-62l-4 53q-49 -63 -142 -63q-178 0 -178 187v323h74v-312q0 -132 106 -132q55 0 93.5 36t38.5 90v318z" />
<glyph unicode="&#xfa;" horiz-adv-x="519" d="M254 519h-62l79 132h100zM381 500h74v-500h-62l-4 53q-49 -63 -142 -63q-178 0 -178 187v323h74v-312q0 -132 106 -132q55 0 93.5 36t38.5 90v318z" />
<glyph unicode="&#xfb;" horiz-adv-x="519" d="M194 522h-63l94 132h83l87 -129h-63l-66 69zM381 500h74v-500h-62l-4 53q-49 -63 -142 -63q-178 0 -178 187v323h74v-312q0 -132 106 -132q55 0 93.5 36t38.5 90v318z" />
<glyph unicode="&#xfc;" horiz-adv-x="519" d="M282 596q0 27 7.5 39t33.5 12q28 0 34.5 -12t6.5 -39q0 -28 -8.5 -39.5t-32.5 -11.5q-26 0 -33.5 12t-7.5 39zM164 596q0 27 7.5 39t33.5 12q19 0 28 -7.5t10.5 -16t1.5 -27.5q0 -28 -8 -39.5t-32 -11.5q-26 0 -33.5 12t-7.5 39zM381 500h74v-500h-62l-4 53 q-49 -63 -142 -63q-178 0 -178 187v323h74v-312q0 -132 106 -132q55 0 93.5 36t38.5 90v318z" />
<glyph unicode="&#xfd;" horiz-adv-x="444" d="M217 481h-63l112 159l100 -1zM224 120l144 380h79l-250 -626q-18 -46 -48 -68t-85 -22q-2 0 -8 0.5t-9 0.5v66q3 0 7 -0.5t6 -0.5q52 0 67 34l60 142l-190 474h80z" />
<glyph unicode="&#xfe;" horiz-adv-x="549" d="M144 289v-74q0 -65 41 -112t96 -47q72 0 111.5 51t39.5 141q0 78 -39.5 134.5t-110.5 56.5q-56 0 -97 -41.5t-41 -108.5zM145 49v-264h-74v964h74v-300q25 27 63.5 42t77.5 15q107 0 165 -73t58 -186q0 -109 -57.5 -183t-161.5 -74q-91 0 -145 59z" />
<glyph unicode="&#xff;" horiz-adv-x="444" d="M245 599q0 27 7.5 38.5t33.5 11.5q28 0 34.5 -11.5t6.5 -38.5q0 -28 -8.5 -39.5t-32.5 -11.5q-26 0 -33.5 12t-7.5 39zM127 599q0 27 7.5 38.5t33.5 11.5q19 0 28 -7.5t10.5 -16t1.5 -26.5q0 -28 -8 -39.5t-32 -11.5q-26 0 -33.5 12t-7.5 39zM224 120l144 380h79 l-250 -626q-18 -46 -48 -68t-85 -22q-2 0 -8 0.5t-9 0.5v66q3 0 7 -0.5t6 -0.5q52 0 67 34l60 142l-190 474h80z" />
<glyph unicode="&#x152;" horiz-adv-x="1071" d="M382 650q-114 0 -182.5 -86.5t-68.5 -207.5q0 -122 68 -208.5t183 -86.5q96 0 168.5 69t72.5 156v146q0 78 -74 148t-167 70zM1009 71v-71h-386v105q-89 -115 -241 -115t-241 104.5t-89 261.5t89 261t241 104q155 0 241 -110v101h377v-71h-299v-236h269v-71l-269 -1v-262 h308z" />
<glyph unicode="&#x153;" horiz-adv-x="909" d="M512 298h272q-9 64 -43.5 102.5t-84.5 38.5q-58 0 -96.5 -40t-47.5 -101zM275 439q-75 0 -117 -55.5t-42 -135.5t42 -136t117 -56q78 0 117.5 56t41.5 144q-2 77 -44 130t-115 53zM815 128l37 -56q-27 -37 -78.5 -59.5t-106.5 -22.5q-132 0 -197 111q-25 -50 -77.5 -80.5 t-117.5 -30.5q-108 0 -171.5 73t-63.5 185q0 111 63.5 184.5t171.5 73.5q136 0 196 -109q30 49 77.5 79t104.5 30q99 0 154.5 -71t55.5 -202h-353q0 -75 45 -126t118 -51q35 0 77.5 20.5t64.5 51.5z" />
<glyph unicode="&#x178;" horiz-adv-x="581" d="M313 794q0 27 7.5 39t33.5 12q28 0 34.5 -12t6.5 -39q0 -28 -8.5 -39t-32.5 -11q-26 0 -33.5 11.5t-7.5 38.5zM195 794q0 27 7.5 39t33.5 12q19 0 28 -7.5t10.5 -16t1.5 -27.5q0 -28 -8 -39t-32 -11q-26 0 -33.5 11.5t-7.5 38.5zM290 391l204 321h89l-253 -395v-317h-78 v318l-253 394h92z" />
<glyph unicode="&#x2c6;" d="M176 714h-63l94 132h83l87 -129h-63l-66 69z" />
<glyph unicode="&#x2dc;" horiz-adv-x="445" d="M305 807h52q-17 -95 -83 -95q-22 0 -64 17h1q-44 16 -54 16q-21 0 -30 -33h-50q17 95 83 95q19 0 64 -18h-1q47 -15 54 -15q20 0 28 33z" />
<glyph unicode="&#x2000;" horiz-adv-x="445" />
<glyph unicode="&#x2001;" horiz-adv-x="890" />
<glyph unicode="&#x2002;" horiz-adv-x="445" />
<glyph unicode="&#x2003;" horiz-adv-x="890" />
<glyph unicode="&#x2004;" horiz-adv-x="296" />
<glyph unicode="&#x2005;" horiz-adv-x="222" />
<glyph unicode="&#x2006;" horiz-adv-x="148" />
<glyph unicode="&#x2007;" horiz-adv-x="148" />
<glyph unicode="&#x2008;" horiz-adv-x="111" />
<glyph unicode="&#x2009;" horiz-adv-x="178" />
<glyph unicode="&#x200a;" horiz-adv-x="49" />
<glyph unicode="&#x2010;" horiz-adv-x="298" d="M26 234v74h246v-74h-246z" />
<glyph unicode="&#x2011;" horiz-adv-x="298" d="M26 234v74h246v-74h-246z" />
<glyph unicode="&#x2013;" horiz-adv-x="502" d="M-4 241v70h509v-70h-509z" />
<glyph unicode="&#x2014;" horiz-adv-x="926" d="M2 241v70h920v-70h-920z" />
<glyph unicode="&#x2018;" horiz-adv-x="211" d="M86 542h-22q-30 0 -30 33q0 8 6 38q28 86 52 135q10 19 36 19q32 0 20 -28h1q-26 -91 -26 -139q0 -34 -9 -46t-28 -12z" />
<glyph unicode="&#x2019;" horiz-adv-x="202" d="M104 752h22q30 0 30 -34q0 -10 -6 -37q-26 -83 -52 -136q-10 -19 -36 -19q-32 0 -20 28h-1q26 93 26 139q0 34 9 46.5t28 12.5z" />
<glyph unicode="&#x201a;" horiz-adv-x="271" d="M133 96h22q30 0 30 -33q0 -8 -6 -38q-28 -86 -52 -135q-10 -19 -36 -19q-31 0 -20 28h-1q26 91 26 139q0 34 9 46t28 12z" />
<glyph unicode="&#x201c;" horiz-adv-x="303" d="M197 542h-23q-30 0 -30 33q0 15 7 38q25 77 51 135q10 19 36 19q33 0 21 -28h1q-26 -86 -26 -139q0 -34 -9.5 -46t-27.5 -12zM88 542h-23q-30 0 -30 33q0 15 7 38q28 86 52 135q9 19 36 19q32 0 20 -28h1q-26 -86 -26 -139q0 -34 -9.5 -46t-27.5 -12z" />
<glyph unicode="&#x201d;" horiz-adv-x="316" d="M105 752h23q30 0 30 -34q0 -16 -7 -37q-23 -74 -51 -136q-10 -19 -36 -19q-33 0 -21 28h-1q26 87 26 139q0 34 9.5 46.5t27.5 12.5zM214 752h23q30 0 30 -34q0 -16 -7 -37q-26 -83 -52 -136q-9 -19 -36 -19q-32 0 -20 28h-1q26 87 26 139q0 34 9.5 46.5t27.5 12.5z" />
<glyph unicode="&#x201e;" horiz-adv-x="362" d="M134 96h23q30 0 30 -33q0 -15 -7 -38q-25 -77 -51 -135q-10 -19 -36 -19q-32 0 -21 28h-1q26 86 26 139q0 34 9.5 46t27.5 12zM243 96h23q30 0 30 -33q0 -15 -7 -38q-28 -86 -52 -135q-9 -19 -36 -19q-31 0 -20 28h-1q26 86 26 139q0 34 9.5 46t27.5 12z" />
<glyph unicode="&#x2022;" d="M264 440q72 0 110.5 -42t38.5 -112q0 -69 -39 -110t-103 -41q-65 0 -107 40.5t-42 110.5q0 66 39.5 110t102.5 44z" />
<glyph unicode="&#x2026;" horiz-adv-x="532" d="M443 103q30 0 39 -10t9 -42q0 -31 -10.5 -42t-37.5 -11q-31 0 -39.5 10t-8.5 43q0 32 10 42t38 10zM265 103q30 0 39 -10t9 -42q0 -31 -10.5 -42t-37.5 -11q-31 0 -39.5 10t-8.5 43q0 32 10 42t38 10zM88 103q30 0 39 -10t9 -42q0 -31 -10.5 -42t-37.5 -11 q-31 0 -39.5 10t-8.5 43q0 32 10 42t38 10z" />
<glyph unicode="&#x202f;" horiz-adv-x="178" />
<glyph unicode="&#x2039;" horiz-adv-x="323" d="M261 463l-144 -191l144 -190h-78l-151 188l151 193h78z" />
<glyph unicode="&#x203a;" horiz-adv-x="355" d="M55 82l143 190l-143 195h78l149 -193l-149 -192h-78z" />
<glyph unicode="&#x205f;" horiz-adv-x="222" />
<glyph unicode="&#x20ac;" horiz-adv-x="644" d="M51 283h-52v58h47q-2 21 0 41h-47v63h56q25 123 119.5 199.5t221.5 76.5q132 0 214 -88l-20 -74q-84 91 -197 91q-95 0 -164.5 -56t-91.5 -149h369v-63h-379q-2 -29 -1 -41h382v-58h-375q21 -96 93.5 -159t168.5 -63q123 0 198 93l25 -75q-88 -89 -219 -89 q-135 0 -231 80t-117 213z" />
<glyph unicode="&#x2122;" horiz-adv-x="651" d="M263 713v-49h-86v-230h-54v230h-86v49h226zM500 713h72v-279h-51v190l-74 -190h-36l-70 181v-181h-51v279h70l71 -187z" />
</font>
</defs>
</svg>
